
<!-- Generator: visioncortex VTracer 0.6.4 -->
<svg version="1.1" xmlns="http://www.w3.org/2000/svg" viewBox="0 0 419 411" preserveAspectRatio="xMidYMid meet">
<path d="M0 0 C1.7 -0.012 1.7 -0.012 3.434 -0.024 C5.84 -0.038 8.245 -0.049 10.651 -0.057 C13.065 -0.068 15.479 -0.089 17.893 -0.118 C38.799 -0.376 58.956 1.332 79.008 7.613 C80 7.914 80.993 8.215 82.016 8.526 C90.024 11.002 97.779 13.834 105.445 17.238 C106.11 17.528 106.776 17.817 107.461 18.116 C137.686 31.346 165.491 52.87 185.445 79.238 C185.892 79.825 186.339 80.412 186.799 81.016 C206.023 106.503 225.318 141.895 225.638 174.649 C225.646 175.378 225.655 176.107 225.663 176.859 C225.688 179.268 225.704 181.677 225.719 184.086 C225.724 184.917 225.729 185.748 225.735 186.604 C225.762 191.017 225.781 195.429 225.795 199.842 C225.809 203.455 225.836 207.067 225.877 210.679 C226.303 248.92 226.303 248.92 220.445 265.238 C219.929 266.797 219.416 268.357 218.907 269.918 C217.542 274.074 216.027 278.161 214.445 282.238 C213.995 283.405 213.546 284.571 213.082 285.773 C204.726 306.276 192.659 325.168 177.445 341.238 C176.273 342.587 175.106 343.941 173.945 345.301 C142.851 380.817 92.83 407.139 45.685 411.594 C37.808 412.055 29.937 412.101 22.051 412.021 C18.684 411.986 15.321 412.007 11.955 412.041 C-37.437 412.469 -85.454 393.738 -122.555 361.238 C-123.379 360.523 -123.379 360.523 -124.221 359.793 C-160.164 328.447 -181.239 286.524 -190.555 240.238 C-190.791 239.118 -191.026 237.998 -191.27 236.844 C-197.124 204.922 -193.525 169.627 -182.555 139.238 C-182.128 138.008 -182.128 138.008 -181.692 136.753 C-171.786 108.631 -155.768 83.143 -135.037 61.772 C-133.574 60.258 -132.134 58.724 -130.695 57.188 C-101.481 26.448 -58.879 7.8 -17.555 1.238 C-16.714 1.064 -15.872 0.89 -15.006 0.71 C-10.006 0.027 -5.041 0.035 0 0 Z " fill="#040404" transform="translate(193.5546875,-0.23828125)"/>
<path d="M0 0 C4.421 0.53 5.962 2.286 9.125 5.375 C10.398 7.92 10.293 9.782 10.312 12.625 C10.327 13.558 10.341 14.492 10.355 15.453 C10.1 18.687 9.193 21.323 8.125 24.375 C9.441 24.359 9.441 24.359 10.784 24.343 C14.06 24.309 17.336 24.284 20.613 24.265 C22.027 24.255 23.441 24.242 24.855 24.224 C26.896 24.2 28.936 24.188 30.977 24.18 C32.202 24.169 33.427 24.159 34.69 24.148 C38.163 24.378 40.891 25.124 44.125 26.375 C44.125 27.035 44.125 27.695 44.125 28.375 C44.702 28.581 45.28 28.787 45.875 29 C49.794 31.395 51.701 35.103 53.125 39.375 C53.859 49.408 53.642 57.692 47.188 65.812 C43.229 68.812 39.599 69.625 34.692 69.602 C33.101 69.602 33.101 69.602 31.478 69.602 C29.778 69.586 29.778 69.586 28.043 69.57 C26.874 69.567 25.704 69.565 24.5 69.562 C20.77 69.551 17.042 69.525 13.312 69.5 C10.782 69.49 8.251 69.481 5.721 69.473 C-0.478 69.451 -6.676 69.416 -12.875 69.375 C-12.875 74.985 -12.875 80.595 -12.875 86.375 C-11.634 86.359 -10.393 86.344 -9.115 86.327 C-4.497 86.273 0.121 86.239 4.74 86.21 C6.736 86.195 8.732 86.175 10.728 86.149 C13.603 86.112 16.477 86.095 19.352 86.082 C20.683 86.059 20.683 86.059 22.042 86.035 C27.245 86.034 30.526 86.701 35.125 89.375 C37.876 89.628 37.876 89.628 40.125 89.375 C41.853 96.534 43.436 103.704 44.812 110.938 C44.944 111.616 45.075 112.294 45.21 112.992 C45.811 116.211 46.125 119.082 46.125 122.375 C46.785 122.375 47.445 122.375 48.125 122.375 C48.198 121.487 48.198 121.487 48.273 120.582 C48.69 116.184 49.175 112.406 51.125 108.375 C53.062 108.688 53.062 108.688 55.125 109.375 C55.455 110.365 55.785 111.355 56.125 112.375 C60.415 112.375 64.705 112.375 69.125 112.375 C69.125 111.715 69.125 111.055 69.125 110.375 C68.568 110.293 68.011 110.21 67.438 110.125 C60.019 107.719 56.256 100.46 52.855 93.941 C48.347 83.475 48.678 71.663 52.125 60.938 C57.733 47.261 68.661 38.082 82.125 32.375 C82.793 32.089 83.46 31.803 84.148 31.508 C103.306 23.801 130.231 26.663 149.125 34.188 C155.963 37.627 164.151 42.075 167.125 49.375 C168.116 57.333 167.669 64.604 163.125 71.375 C156.75 78.9 156.75 78.9 152.227 79.719 C142.612 80.325 134.159 76.55 125.354 73.131 C121.545 71.839 117.933 71.247 113.918 71.277 C113.167 71.281 112.416 71.284 111.643 71.287 C110.874 71.295 110.105 71.304 109.312 71.312 C108.13 71.319 108.13 71.319 106.924 71.326 C104.991 71.338 103.058 71.356 101.125 71.375 C100.795 73.025 100.465 74.675 100.125 76.375 C103.879 79.905 108.131 80.539 113 81.625 C124.242 84.268 135.167 87.749 146.125 91.375 C146.125 92.365 146.125 93.355 146.125 94.375 C145.424 94.629 144.722 94.883 144 95.145 C137.645 97.448 137.645 97.448 131.312 99.812 C129.917 100.334 128.521 100.855 127.125 101.375 C126.109 101.757 125.093 102.138 124.047 102.531 C108.342 108.306 92.569 111.572 76.125 114.375 C76.125 115.035 76.125 115.695 76.125 116.375 C72.667 116.404 69.208 116.422 65.75 116.438 C64.765 116.446 63.78 116.454 62.766 116.463 C61.354 116.468 61.354 116.468 59.914 116.473 C59.045 116.478 58.175 116.483 57.28 116.489 C55.125 116.375 55.125 116.375 53.125 115.375 C51.805 120.325 50.485 125.275 49.125 130.375 C47.805 130.375 46.485 130.375 45.125 130.375 C43.247 128.497 43.734 125.336 43.562 122.812 C43.479 121.615 43.395 120.417 43.309 119.184 C43.248 118.257 43.187 117.33 43.125 116.375 C42.465 116.375 41.805 116.375 41.125 116.375 C40.966 116.978 40.808 117.582 40.645 118.203 C39.135 123.375 37.988 126.548 33.125 129.375 C27.865 131.596 23.175 131.637 17.57 131.57 C16.218 131.566 16.218 131.566 14.838 131.562 C11.975 131.551 9.113 131.526 6.25 131.5 C4.302 131.49 2.354 131.481 0.406 131.473 C-4.354 131.451 -9.115 131.416 -13.875 131.375 C-13.859 132.237 -13.844 133.098 -13.827 133.986 C-13.776 137.223 -13.738 140.46 -13.71 143.698 C-13.695 145.092 -13.675 146.485 -13.649 147.879 C-13.316 166.078 -13.316 166.078 -18.394 172.208 C-24.798 178.604 -33.174 179.68 -41.875 179.875 C-49.608 179.846 -55.686 178.168 -61.484 172.918 C-66.476 167.353 -68.333 161.921 -68.168 154.57 C-68.164 153.846 -68.159 153.122 -68.155 152.376 C-68.138 150.084 -68.101 147.792 -68.062 145.5 C-68.047 143.938 -68.034 142.375 -68.021 140.812 C-67.989 137 -67.937 133.187 -67.875 129.375 C-68.965 129.86 -70.054 130.346 -71.177 130.846 C-76.319 133.136 -81.341 133.194 -86.875 132.375 C-90.013 130.235 -90.56 128.847 -91.34 125.203 C-91.836 119.734 -90.723 116.824 -87.38 112.525 C-82.741 105.48 -82.959 98.701 -83.113 90.594 C-83.114 89.089 -83.111 87.584 -83.105 86.079 C-83.095 82.144 -83.124 78.21 -83.164 74.275 C-83.226 67.98 -83.245 61.686 -83.234 55.391 C-83.238 53.213 -83.268 51.037 -83.301 48.859 C-83.387 36.375 -80.95 27.512 -72.164 18.469 C-62.324 9.468 -50.507 8.941 -37.75 9.188 C-36.398 9.203 -35.047 9.216 -33.695 9.229 C-30.421 9.264 -27.148 9.313 -23.875 9.375 C-24.205 10.695 -24.535 12.015 -24.875 13.375 C-25.762 13.384 -26.648 13.394 -27.562 13.403 C-30.899 13.448 -34.234 13.51 -37.57 13.583 C-39.005 13.61 -40.441 13.632 -41.876 13.646 C-53.027 13.763 -62.92 14.759 -71.41 22.75 C-79.297 31.499 -79.155 42.563 -79.119 53.737 C-79.113 55.961 -79.122 58.185 -79.136 60.41 C-79.173 66.728 -79.192 73.046 -79.18 79.364 C-79.175 83.246 -79.193 87.126 -79.226 91.008 C-79.234 92.479 -79.233 93.951 -79.222 95.422 C-79.132 108.344 -79.132 108.344 -82.333 112.191 C-83.172 112.912 -84.011 113.633 -84.875 114.375 C-86.752 117.379 -87.127 119.534 -87.062 123.062 C-87.056 123.85 -87.05 124.638 -87.043 125.449 C-87.082 127.382 -87.082 127.382 -85.875 128.375 C-79.753 128.975 -75.242 128.595 -69.875 125.375 C-69.215 125.375 -68.555 125.375 -67.875 125.375 C-67.875 126.035 -67.875 126.695 -67.875 127.375 C-66.141 126.321 -64.413 125.256 -62.688 124.188 C-61.725 123.596 -60.762 123.004 -59.77 122.395 C-56.792 120.507 -56.792 120.507 -54.73 117.793 C-50.878 114.53 -48.19 114.643 -43.293 114.668 C-42.479 114.653 -41.665 114.638 -40.826 114.622 C-38.238 114.579 -35.651 114.57 -33.062 114.562 C-31.303 114.539 -29.543 114.514 -27.783 114.486 C-23.48 114.424 -19.178 114.391 -14.875 114.375 C-13.885 112.395 -13.885 112.395 -12.875 110.375 C-12.215 110.375 -11.555 110.375 -10.875 110.375 C-10.038 113.166 -9.206 115.957 -8.375 118.75 C-8.017 119.941 -8.017 119.941 -7.652 121.156 C-7.314 122.297 -7.314 122.297 -6.969 123.461 C-6.759 124.163 -6.55 124.864 -6.334 125.587 C-5.875 127.375 -5.875 127.375 -5.875 129.375 C-5.215 129.045 -4.555 128.715 -3.875 128.375 C-3.059 125.879 -3.059 125.879 -2.438 122.844 C-2.182 121.724 -1.927 120.603 -1.664 119.449 C-1.404 118.27 -1.143 117.09 -0.875 115.875 C-0.362 113.55 0.159 111.227 0.688 108.906 C1.03 107.353 1.03 107.353 1.379 105.768 C1.625 104.978 1.871 104.188 2.125 103.375 C2.785 103.045 3.445 102.715 4.125 102.375 C4.236 102.96 4.346 103.545 4.46 104.147 C4.968 106.808 5.484 109.466 6 112.125 C6.261 113.506 6.261 113.506 6.527 114.914 C6.788 116.248 6.788 116.248 7.055 117.609 C7.29 118.835 7.29 118.835 7.531 120.085 C8.138 122.423 8.883 124.304 10.125 126.375 C10.785 126.705 11.445 127.035 12.125 127.375 C12.318 126.52 12.512 125.666 12.711 124.785 C12.971 123.68 13.232 122.576 13.5 121.438 C13.755 120.335 14.01 119.233 14.273 118.098 C14.554 117.199 14.835 116.301 15.125 115.375 C15.785 115.045 16.445 114.715 17.125 114.375 C17.125 115.035 17.125 115.695 17.125 116.375 C20.095 116.375 23.065 116.375 26.125 116.375 C29.125 122.125 29.125 122.125 29.125 124.375 C30.115 124.375 31.105 124.375 32.125 124.375 C32.415 122.998 32.415 122.998 32.711 121.594 C34.077 115.157 35.469 108.744 37.125 102.375 C37.785 102.375 38.445 102.375 39.125 102.375 C38.795 100.065 38.465 97.755 38.125 95.375 C37.465 95.375 36.805 95.375 36.125 95.375 C36.043 96.386 35.96 97.396 35.875 98.438 C35.053 105.224 32.964 111.806 31.125 118.375 C29.379 115.756 28.738 114.337 28.125 111.375 C27.568 111.519 27.011 111.664 26.438 111.812 C24.011 112.403 21.576 112.898 19.125 113.375 C18.465 112.385 17.805 111.395 17.125 110.375 C15.64 109.88 15.64 109.88 14.125 109.375 C13.465 112.675 12.805 115.975 12.125 119.375 C11.465 119.375 10.805 119.375 10.125 119.375 C7.884 110.39 5.714 101.649 5.125 92.375 C3.805 92.375 2.485 92.375 1.125 92.375 C1.003 93.642 0.88 94.909 0.754 96.215 C0.164 101.525 -0.852 106.71 -1.938 111.938 C-2.124 112.851 -2.31 113.764 -2.502 114.705 C-2.956 116.929 -3.414 119.152 -3.875 121.375 C-4.535 121.375 -5.195 121.375 -5.875 121.375 C-7.855 111.475 -7.855 111.475 -9.875 101.375 C-10.865 101.375 -11.855 101.375 -12.875 101.375 C-13.08 102.157 -13.285 102.94 -13.496 103.746 C-13.766 104.758 -14.035 105.77 -14.312 106.812 C-14.579 107.822 -14.846 108.831 -15.121 109.871 C-15.875 112.375 -15.875 112.375 -16.875 113.375 C-21.327 113.629 -25.791 113.56 -30.25 113.562 C-32.137 113.581 -32.137 113.581 -34.062 113.6 C-35.266 113.602 -36.47 113.603 -37.711 113.605 C-38.82 113.61 -39.929 113.614 -41.072 113.618 C-43.875 113.375 -43.875 113.375 -46.875 111.375 C-46.318 110.769 -45.761 110.163 -45.188 109.539 C-28.674 91.408 -14.726 71.405 -3.875 49.375 C-3.215 49.375 -2.555 49.375 -1.875 49.375 C-1.716 48.781 -1.558 48.186 -1.395 47.574 C0.258 41.705 2.396 36.314 5.039 30.82 C5.998 28.661 6.643 26.68 7.125 24.375 C6.465 24.375 5.805 24.375 5.125 24.375 C5.367 23.329 5.367 23.329 5.613 22.262 C6.158 19.188 6.293 16.308 6.312 13.188 C6.327 12.142 6.341 11.097 6.355 10.02 C6.397 7.218 6.397 7.218 4.125 5.375 C-0.642 4.555 -4.077 4.902 -8.25 7.375 C-9.116 8.035 -9.983 8.695 -10.875 9.375 C-11.865 9.375 -12.855 9.375 -13.875 9.375 C-13.75 7.625 -13.75 7.625 -12.875 5.375 C-8.512 1.982 -5.336 0.696 0 0 Z " fill="#FBFBFB" transform="translate(161.875,99.625)"/>
<path d="M0 0 C12.813 -0.572 21.819 0.379 32.309 8.438 C34.168 10.155 35.607 11.888 37 14 C37 14.66 37 15.32 37 16 C37.585 15.636 38.17 15.273 38.773 14.898 C50.731 7.896 64.064 3.103 78 3 C79.379 2.952 80.758 2.902 82.137 2.852 C105.796 2.195 131.063 7.354 148.809 23.754 C155.925 31.048 157.352 37.511 157.312 47.438 C157.329 48.245 157.345 49.053 157.361 49.885 C157.368 58.407 154.356 64.79 150 72 C150.736 72.014 151.472 72.028 152.23 72.043 C156.998 72.276 160.152 72.435 164.188 75.125 C166.449 78.713 166.464 80.827 166 85 C165.67 85.99 165.34 86.98 165 88 C164.01 88 163.02 88 162 88 C162.035 87.06 162.035 87.06 162.07 86.102 C162.088 85.284 162.106 84.467 162.125 83.625 C162.16 82.407 162.16 82.407 162.195 81.164 C162.214 78.787 162.214 78.787 160 77 C157.419 76.855 154.951 76.813 152.375 76.875 C151.669 76.884 150.962 76.893 150.234 76.902 C148.489 76.926 146.745 76.962 145 77 C145 77.66 145 78.32 145 79 C145.577 79.223 146.155 79.446 146.75 79.676 C155.054 84.563 160.748 97.211 163.369 106.176 C164.436 110.951 164.394 115.628 164.312 120.5 C164.317 121.952 164.317 121.952 164.322 123.434 C164.191 141.212 157.597 153.053 145.5 165.812 C138.752 172.288 130.697 175.806 122 179 C120.808 179.471 119.615 179.941 118.387 180.426 C108.167 184.071 98.051 184.458 87.312 184.438 C86.618 184.438 85.924 184.438 85.208 184.438 C71.677 184.392 58.323 183.372 45.438 178.938 C44.549 178.634 43.661 178.331 42.745 178.019 C29.388 173.226 17.258 165.62 10.5 152.688 C8.312 147.275 8.65 141.739 9 136 C7.938 136.327 6.876 136.655 5.781 136.992 C0.054 138.424 -5.632 138.216 -11.5 138.125 C-12.609 138.116 -13.717 138.107 -14.859 138.098 C-17.573 138.074 -20.286 138.041 -23 138 C-22.948 139.199 -22.948 139.199 -22.895 140.422 C-22.568 153.652 -24.823 165.36 -34.121 175.258 C-44.635 184.615 -57.555 185.963 -71.082 185.438 C-83.289 184.584 -92.744 180.23 -101 171 C-109.605 160.85 -108.349 147.476 -108 135 C-107.01 135 -106.02 135 -105 135 C-104.951 136.123 -104.902 137.246 -104.852 138.402 C-104.237 154.235 -104.237 154.235 -97.242 168.152 C-96 170 -96 170 -96 172 C-95.428 172.278 -94.855 172.557 -94.266 172.844 C-91.301 174.357 -88.465 176.072 -85.609 177.781 C-74.422 183.006 -59.881 182.731 -48.312 178.938 C-39.276 175.167 -34.17 170.405 -29.91 161.625 C-27.791 155.512 -27.753 148.972 -27.438 142.562 C-27.373 141.322 -27.373 141.322 -27.307 140.057 C-27.202 138.038 -27.1 136.019 -27 134 C-26.087 133.98 -25.174 133.96 -24.234 133.94 C-20.832 133.862 -17.431 133.775 -14.03 133.683 C-12.561 133.644 -11.091 133.61 -9.622 133.578 C-7.504 133.532 -5.387 133.474 -3.27 133.414 C-1.997 133.383 -0.724 133.351 0.587 133.319 C3.834 133.015 6.043 132.29 9 131 C9.99 131 10.98 131 12 131 C12.026 131.978 12.052 132.957 12.078 133.965 C12.533 144.488 14.061 151.821 21 160 C21 160.66 21 161.32 21 162 C21.773 162.34 21.773 162.34 22.562 162.688 C25 164 25 164 27.812 166.25 C43.573 177.642 65.569 180.247 84.312 180.312 C85.027 180.315 85.741 180.318 86.477 180.32 C101.033 180.326 114.966 179.058 128 172 C128.889 171.558 129.779 171.116 130.695 170.66 C144.159 163.745 152.883 153.445 158.562 139.438 C162.887 124.786 160.938 107.482 153.906 94.09 C150.689 88.876 146.962 83.654 142 80 C137.171 80.184 133.283 81.901 129 84 C128.67 84.66 128.34 85.32 128 86 C128.701 86.227 129.403 86.454 130.125 86.688 C138.177 90.363 143.299 97.465 147.109 105.273 C150.493 114.627 150.791 127.75 146.984 137.016 C139.343 152.419 129.801 159.942 113.797 166.266 C104.267 169.246 94.716 169.395 84.812 169.438 C83.789 169.447 83.789 169.447 82.744 169.456 C73.476 169.51 64.94 168.528 56 166 C55.245 165.791 54.49 165.582 53.712 165.366 C46.236 163.189 39.282 160.688 33 156 C32.093 155.402 31.185 154.804 30.25 154.188 C25.589 149.655 23.76 144.986 23.562 138.5 C23.853 131.26 25.791 125.209 31 120 C35.214 117.091 39.096 116.307 44.125 116.449 C48.257 117.241 51.591 119.158 55.27 121.142 C68.096 127.901 81.619 130.198 96 129 C96.66 128.67 97.32 128.34 98 128 C98 126.35 98 124.7 98 123 C92.53 119.223 87.318 118.056 80.836 116.777 C71.493 114.884 62.339 112.765 54 108 C54 107.34 54 106.68 54 106 C55.186 105.83 56.372 105.66 57.594 105.484 C76.533 102.685 95.128 98.503 112.492 90.184 C114.162 89.396 115.856 88.658 117.57 87.973 C118.372 87.652 119.174 87.331 120 87 C120.701 86.732 121.403 86.464 122.125 86.188 C124.219 85.083 124.219 85.083 125.262 82.547 C127.707 78.964 130.841 78.418 134.812 77.25 C140.941 75.188 144.87 73.458 147.961 67.465 C148.304 66.651 148.647 65.838 149 65 C149.405 64.176 149.81 63.353 150.227 62.504 C153.745 54.451 154.483 45.283 152.457 36.699 C151.7 34.68 151.7 34.68 150 32 C149.165 30.484 149.165 30.484 148.312 28.938 C138.643 16.654 122.63 12.128 108 9 C107.425 8.825 106.85 8.65 106.258 8.469 C103.013 7.795 99.782 7.797 96.48 7.762 C95.745 7.754 95.009 7.746 94.251 7.737 C92.69 7.723 91.13 7.713 89.569 7.705 C88.001 7.693 86.433 7.673 84.865 7.643 C70.87 7.378 58.046 8.857 45.75 16.188 C39.159 19.947 39.159 19.947 36 21 C35.67 20.154 35.34 19.309 35 18.438 C30.817 11.249 24.906 7.226 17 5 C13.844 4.429 10.693 4.096 7.5 3.812 C6.678 3.731 5.855 3.649 5.008 3.564 C3.006 3.367 1.003 3.182 -1 3 C-0.67 2.01 -0.34 1.02 0 0 Z " fill="#FBFBFA" transform="translate(187,109)"/>
<path d="M0 0 C3.875 3.875 4.291 7.009 4.5 12.312 C4.173 21.599 1.292 27.362 -5.414 33.688 C-8.842 36.524 -11.987 36.502 -16.312 36.496 C-23.771 35.493 -30.785 32.469 -37.771 29.756 C-41.58 28.464 -45.192 27.872 -49.207 27.902 C-49.958 27.906 -50.709 27.909 -51.482 27.912 C-52.251 27.92 -53.02 27.929 -53.812 27.938 C-54.601 27.942 -55.389 27.947 -56.201 27.951 C-58.134 27.963 -60.067 27.981 -62 28 C-62.33 29.65 -62.66 31.3 -63 33 C-59.246 36.53 -54.994 37.164 -50.125 38.25 C-38.883 40.893 -27.958 44.374 -17 48 C-17 48.99 -17 49.98 -17 51 C-17.701 51.254 -18.403 51.508 -19.125 51.77 C-25.48 54.073 -25.48 54.073 -31.812 56.438 C-33.208 56.959 -34.604 57.48 -36 58 C-37.016 58.382 -38.032 58.763 -39.078 59.156 C-55.13 65.059 -71.173 68.272 -88 71 C-88 71.33 -88 71.66 -88 72 C-93.94 72 -99.88 72 -106 72 C-106 71.67 -106 71.34 -106 71 C-101.38 71 -96.76 71 -92 71 C-92 70.34 -92 69.68 -92 69 C-92.66 69 -93.32 69 -94 69 C-94 68.34 -94 67.68 -94 67 C-94.557 66.918 -95.114 66.835 -95.688 66.75 C-103.106 64.344 -106.869 57.085 -110.27 50.566 C-114.778 40.1 -114.447 28.288 -111 17.562 C-105.392 3.886 -94.464 -5.293 -81 -11 C-80.332 -11.286 -79.665 -11.572 -78.977 -11.867 C-54.897 -21.554 -20.039 -16.262 0 0 Z " fill="#FBFBFB" transform="translate(325,143)"/>
<path d="M0 0 C1.845 0.008 1.845 0.008 3.728 0.017 C7.63 0.039 11.532 0.09 15.434 0.141 C18.09 0.163 20.747 0.179 23.404 0.195 C29.894 0.239 36.382 0.306 42.871 0.391 C42.317 4.428 41.448 7.802 39.762 11.508 C39.336 12.445 38.911 13.382 38.473 14.348 C37.804 15.792 37.804 15.792 37.121 17.266 C36.691 18.221 36.26 19.176 35.816 20.16 C33.203 25.865 30.305 31.147 26.871 36.391 C25.947 37.87 25.027 39.352 24.109 40.836 C15.934 53.945 7.791 66.724 -2.883 77.965 C-4.867 80.107 -6.577 82.302 -8.316 84.641 C-11.129 87.391 -11.129 87.391 -14.379 87.641 C-25.629 83.891 -25.629 83.891 -29.129 80.391 C-29.239 78.506 -29.278 76.617 -29.29 74.729 C-29.3 73.516 -29.309 72.304 -29.319 71.055 C-29.324 69.719 -29.328 68.383 -29.332 67.047 C-29.338 65.68 -29.344 64.313 -29.349 62.946 C-29.36 60.071 -29.366 57.195 -29.369 54.32 C-29.375 50.657 -29.399 46.993 -29.427 43.329 C-29.446 40.5 -29.451 37.67 -29.452 34.841 C-29.457 32.84 -29.476 30.839 -29.494 28.838 C-29.474 20.529 -28.69 13.823 -24.504 6.578 C-17.363 0.001 -9.288 -0.163 0 0 Z " fill="#FAFAFA" transform="translate(123.12890625,123.609375)"/>
<path d="M0 0 C4.421 0.53 5.962 2.286 9.125 5.375 C10.398 7.92 10.293 9.782 10.312 12.625 C10.327 13.558 10.341 14.492 10.355 15.453 C10.1 18.687 9.193 21.323 8.125 24.375 C9.002 24.365 9.88 24.354 10.784 24.343 C14.06 24.309 17.336 24.284 20.613 24.265 C22.027 24.255 23.441 24.242 24.855 24.224 C26.896 24.2 28.936 24.188 30.977 24.18 C32.202 24.169 33.427 24.159 34.69 24.148 C38.163 24.378 40.891 25.124 44.125 26.375 C44.125 27.035 44.125 27.695 44.125 28.375 C44.991 28.684 44.991 28.684 45.875 29 C49.794 31.395 51.701 35.103 53.125 39.375 C53.859 49.408 53.642 57.692 47.188 65.812 C43.229 68.812 39.599 69.625 34.692 69.602 C33.101 69.602 33.101 69.602 31.478 69.602 C29.778 69.586 29.778 69.586 28.043 69.57 C26.874 69.567 25.704 69.565 24.5 69.562 C20.77 69.551 17.042 69.525 13.312 69.5 C10.782 69.49 8.251 69.481 5.721 69.473 C-0.478 69.451 -6.676 69.416 -12.875 69.375 C-12.875 74.985 -12.875 80.595 -12.875 86.375 C0.985 86.375 14.845 86.375 29.125 86.375 C29.125 86.705 29.125 87.035 29.125 87.375 C14.935 87.375 0.745 87.375 -13.875 87.375 C-14.205 82.755 -14.535 78.135 -14.875 73.375 C-15.865 73.87 -15.865 73.87 -16.875 74.375 C-15.088 69.341 -12.428 64.823 -9.812 60.188 C-8.905 58.569 -7.997 56.951 -7.09 55.332 C-6.689 54.62 -6.288 53.908 -5.875 53.175 C-5.18 51.924 -4.515 50.655 -3.875 49.375 C-3.215 49.375 -2.555 49.375 -1.875 49.375 C-1.716 48.781 -1.558 48.186 -1.395 47.574 C0.258 41.705 2.396 36.314 5.039 30.82 C5.998 28.661 6.643 26.68 7.125 24.375 C6.465 24.375 5.805 24.375 5.125 24.375 C5.367 23.329 5.367 23.329 5.613 22.262 C6.158 19.188 6.293 16.308 6.312 13.188 C6.327 12.142 6.341 11.097 6.355 10.02 C6.397 7.218 6.397 7.218 4.125 5.375 C-0.642 4.555 -4.077 4.902 -8.25 7.375 C-9.116 8.035 -9.982 8.695 -10.875 9.375 C-11.865 9.375 -12.855 9.375 -13.875 9.375 C-13.75 7.625 -13.75 7.625 -12.875 5.375 C-8.512 1.982 -5.336 0.696 0 0 Z " fill="#FBFBFA" transform="translate(161.875,99.625)"/>
<path d="M0 0 C12.813 -0.572 21.819 0.379 32.309 8.438 C34.168 10.155 35.607 11.888 37 14 C37 14.66 37 15.32 37 16 C37.585 15.636 38.17 15.273 38.773 14.898 C50.731 7.896 64.064 3.103 78 3 C79.379 2.952 80.758 2.902 82.137 2.852 C105.796 2.195 131.063 7.354 148.809 23.754 C155.925 31.048 157.352 37.511 157.312 47.438 C157.329 48.245 157.345 49.053 157.361 49.885 C157.368 58.407 154.356 64.79 150 72 C150.736 72.014 151.472 72.028 152.23 72.043 C156.998 72.276 160.152 72.435 164.188 75.125 C166.449 78.713 166.464 80.827 166 85 C165.67 85.99 165.34 86.98 165 88 C164.01 88 163.02 88 162 88 C162.035 87.06 162.035 87.06 162.07 86.102 C162.088 85.284 162.106 84.467 162.125 83.625 C162.16 82.407 162.16 82.407 162.195 81.164 C162.214 78.787 162.214 78.787 160 77 C157.419 76.855 154.951 76.813 152.375 76.875 C151.669 76.884 150.962 76.893 150.234 76.902 C148.489 76.926 146.745 76.962 145 77 C145 77.66 145 78.32 145 79 C145.577 79.223 146.155 79.446 146.75 79.676 C155.054 84.563 160.748 97.211 163.369 106.176 C164.436 110.951 164.394 115.628 164.312 120.5 C164.317 121.952 164.317 121.952 164.322 123.434 C164.191 141.212 157.597 153.053 145.5 165.812 C138.752 172.288 130.697 175.806 122 179 C120.808 179.471 119.615 179.941 118.387 180.426 C108.167 184.071 98.051 184.458 87.312 184.438 C86.618 184.438 85.924 184.438 85.208 184.438 C71.677 184.392 58.323 183.372 45.438 178.938 C44.549 178.634 43.661 178.331 42.745 178.019 C29.388 173.226 17.258 165.62 10.5 152.688 C8.312 147.275 8.65 141.739 9 136 C7.938 136.327 6.876 136.655 5.781 136.992 C0.054 138.424 -5.632 138.216 -11.5 138.125 C-12.609 138.116 -13.717 138.107 -14.859 138.098 C-17.573 138.074 -20.286 138.041 -23 138 C-22.948 139.199 -22.948 139.199 -22.895 140.422 C-22.568 153.652 -24.823 165.36 -34.121 175.258 C-44.635 184.615 -57.555 185.963 -71.082 185.438 C-83.289 184.584 -92.744 180.23 -101 171 C-109.605 160.85 -108.349 147.476 -108 135 C-107.01 135 -106.02 135 -105 135 C-104.951 136.123 -104.902 137.246 -104.852 138.402 C-104.237 154.235 -104.237 154.235 -97.242 168.152 C-96 170 -96 170 -96 172 C-95.428 172.278 -94.855 172.557 -94.266 172.844 C-91.301 174.357 -88.465 176.072 -85.609 177.781 C-74.422 183.006 -59.881 182.731 -48.312 178.938 C-39.276 175.167 -34.17 170.405 -29.91 161.625 C-27.791 155.512 -27.753 148.972 -27.438 142.562 C-27.373 141.322 -27.373 141.322 -27.307 140.057 C-27.202 138.038 -27.1 136.019 -27 134 C-26.087 133.98 -25.174 133.96 -24.234 133.94 C-20.832 133.862 -17.431 133.775 -14.03 133.683 C-12.561 133.644 -11.091 133.61 -9.622 133.578 C-7.504 133.532 -5.387 133.474 -3.27 133.414 C-1.997 133.383 -0.724 133.351 0.587 133.319 C3.834 133.015 6.043 132.29 9 131 C9.99 131 10.98 131 12 131 C12.026 131.978 12.052 132.957 12.078 133.965 C12.533 144.488 14.061 151.821 21 160 C21 160.66 21 161.32 21 162 C21.773 162.34 21.773 162.34 22.562 162.688 C25 164 25 164 27.812 166.25 C43.573 177.642 65.569 180.247 84.312 180.312 C85.027 180.315 85.741 180.318 86.477 180.32 C101.033 180.326 114.966 179.058 128 172 C128.889 171.558 129.779 171.116 130.695 170.66 C144.159 163.745 152.883 153.445 158.562 139.438 C162.887 124.786 160.938 107.482 153.906 94.09 C150.689 88.876 146.962 83.654 142 80 C137.171 80.184 133.283 81.901 129 84 C128.67 84.66 128.34 85.32 128 86 C126.68 85.67 125.36 85.34 124 85 C125.658 81.185 126.667 80.138 130.582 78.516 C131.99 78.087 133.4 77.665 134.812 77.25 C140.941 75.188 144.87 73.458 147.961 67.465 C148.304 66.651 148.647 65.838 149 65 C149.405 64.176 149.81 63.353 150.227 62.504 C153.745 54.451 154.483 45.283 152.457 36.699 C151.7 34.68 151.7 34.68 150 32 C149.165 30.484 149.165 30.484 148.312 28.938 C138.643 16.654 122.63 12.128 108 9 C107.425 8.825 106.85 8.65 106.258 8.469 C103.013 7.795 99.782 7.797 96.48 7.762 C95.745 7.754 95.009 7.746 94.251 7.737 C92.69 7.723 91.13 7.713 89.569 7.705 C88.001 7.693 86.433 7.673 84.865 7.643 C70.87 7.378 58.046 8.857 45.75 16.188 C39.159 19.947 39.159 19.947 36 21 C35.67 20.154 35.34 19.309 35 18.438 C30.817 11.249 24.906 7.226 17 5 C13.844 4.429 10.693 4.096 7.5 3.812 C6.678 3.731 5.855 3.649 5.008 3.564 C3.006 3.367 1.003 3.182 -1 3 C-0.67 2.01 -0.34 1.02 0 0 Z M128 86 C130 87 130 87 130 87 Z " fill="#EFEFEF" transform="translate(187,109)"/>
<path d="M0 0 C0 4.95 0 9.9 0 15 C1.332 14.99 2.664 14.979 4.036 14.968 C8.989 14.932 13.943 14.909 18.896 14.89 C21.038 14.88 23.18 14.866 25.321 14.849 C28.404 14.825 31.487 14.813 34.57 14.805 C35.524 14.794 36.477 14.784 37.459 14.773 C42.427 14.773 46.311 15.173 51 17 C51.99 17 52.98 17 54 17 C54 19.64 54 22.28 54 25 C53.34 25 52.68 25 52 25 C52 24.34 52 23.68 52 23 C51.34 23 50.68 23 50 23 C49.918 24.011 49.835 25.021 49.75 26.062 C48.928 32.849 46.839 39.431 45 46 C43.254 43.381 42.613 41.962 42 39 C41.443 39.144 40.886 39.289 40.312 39.438 C37.886 40.028 35.451 40.523 33 41 C32.34 40.01 31.68 39.02 31 38 C30.01 37.67 29.02 37.34 28 37 C27.34 40.3 26.68 43.6 26 47 C25.34 47 24.68 47 24 47 C21.759 38.015 19.589 29.274 19 20 C17.68 20 16.36 20 15 20 C14.816 21.901 14.816 21.901 14.629 23.84 C14.039 29.15 13.023 34.335 11.938 39.562 C11.751 40.476 11.565 41.389 11.373 42.33 C10.919 44.554 10.461 46.777 10 49 C9.34 49 8.68 49 8 49 C6.68 42.4 5.36 35.8 4 29 C3.01 29 2.02 29 1 29 C0.795 29.782 0.59 30.565 0.379 31.371 C0.109 32.383 -0.16 33.395 -0.438 34.438 C-0.704 35.447 -0.971 36.456 -1.246 37.496 C-2 40 -2 40 -3 41 C-7.452 41.254 -11.916 41.185 -16.375 41.188 C-17.633 41.2 -18.891 41.212 -20.188 41.225 C-21.391 41.227 -22.595 41.228 -23.836 41.23 C-24.945 41.235 -26.054 41.239 -27.197 41.243 C-30 41 -30 41 -33 39 C-32.443 38.394 -31.886 37.788 -31.312 37.164 C-22.813 27.832 -15.243 18.127 -8.124 7.713 C-7.633 7.003 -7.142 6.294 -6.637 5.562 C-6.201 4.924 -5.765 4.286 -5.315 3.629 C-2.385 0 -2.385 0 0 0 Z " fill="#F7F7F6" transform="translate(148,172)"/>
<path d="M0 0 C0.99 1.485 0.99 1.485 2 3 C1.539 5.102 1.539 5.102 0.625 7.625 C-2.737 18.993 -2.426 31.353 3 42 C6.022 47.264 9.57 51.542 14.812 54.688 C15.534 55.121 16.256 55.554 17 56 C17 56.66 17 57.32 17 58 C17.66 58.33 18.32 58.66 19 59 C14.05 59 9.1 59 4 59 C3.01 57.02 3.01 57.02 2 55 C0.515 54.505 0.515 54.505 -1 54 C-1.133 54.759 -1.266 55.519 -1.402 56.301 C-1.579 57.295 -1.756 58.289 -1.938 59.312 C-2.112 60.299 -2.286 61.285 -2.465 62.301 C-3 65 -3 65 -4 68 C-4.66 68 -5.32 68 -6 68 C-8.253 57.031 -10.461 46.096 -12 35 C-13.052 35.34 -13.052 35.34 -14.125 35.688 C-17 36 -17 36 -19.569 34.552 C-24.072 32.515 -27.888 32.523 -32.773 32.488 C-34.159 32.461 -34.159 32.461 -35.573 32.434 C-38.507 32.38 -41.441 32.346 -44.375 32.312 C-46.371 32.279 -48.367 32.245 -50.363 32.209 C-55.242 32.124 -60.121 32.057 -65 32 C-65 26.39 -65 20.78 -65 15 C-63.431 14.985 -61.862 14.971 -60.246 14.956 C-54.41 14.898 -48.576 14.82 -42.74 14.738 C-40.218 14.704 -37.695 14.676 -35.172 14.654 C-31.54 14.62 -27.909 14.568 -24.277 14.512 C-23.154 14.505 -22.031 14.499 -20.874 14.492 C-14.841 14.38 -10.301 13.979 -5 11 C-3.403 9.15 -3.403 9.15 -2.625 7 C-2.329 6.319 -2.032 5.639 -1.727 4.938 C-1.114 3.305 -0.551 1.654 0 0 Z " fill="#070707" transform="translate(214,154)"/>
<path d="M0 0 C12.813 -0.572 21.819 0.379 32.309 8.438 C34.168 10.155 35.607 11.888 37 14 C37 14.66 37 15.32 37 16 C37.585 15.636 38.17 15.273 38.773 14.898 C50.731 7.896 64.064 3.103 78 3 C79.379 2.952 80.758 2.902 82.137 2.852 C105.796 2.195 131.063 7.354 148.809 23.754 C155.925 31.048 157.352 37.511 157.312 47.438 C157.329 48.245 157.345 49.053 157.361 49.885 C157.368 58.407 154.356 64.79 150 72 C150.736 72.014 151.472 72.028 152.23 72.043 C156.998 72.276 160.152 72.435 164.188 75.125 C166.449 78.713 166.464 80.827 166 85 C165.67 85.99 165.34 86.98 165 88 C164.01 88 163.02 88 162 88 C162.023 87.374 162.046 86.747 162.07 86.102 C162.088 85.284 162.106 84.467 162.125 83.625 C162.148 82.813 162.171 82.001 162.195 81.164 C162.214 78.787 162.214 78.787 160 77 C157.419 76.855 154.951 76.813 152.375 76.875 C151.669 76.884 150.962 76.893 150.234 76.902 C148.489 76.926 146.745 76.962 145 77 C145 77.66 145 78.32 145 79 C145.862 79.327 145.862 79.327 146.742 79.66 C149.729 81.432 151.143 83.599 153.125 86.438 C154.15 87.89 154.15 87.89 155.195 89.371 C159.01 94.928 159.01 94.928 158.625 97.688 C158.419 98.451 158.212 99.214 158 100 C156.344 97.815 154.724 95.612 153.133 93.379 C148.234 86.064 148.234 86.064 142 80 C137.274 80 133.188 81.947 129 84 C128.67 84.66 128.34 85.32 128 86 C126.02 85.505 126.02 85.505 124 85 C125.658 81.185 126.667 80.138 130.582 78.516 C131.99 78.087 133.4 77.665 134.812 77.25 C140.941 75.188 144.87 73.458 147.961 67.465 C148.304 66.651 148.647 65.838 149 65 C149.405 64.176 149.81 63.353 150.227 62.504 C153.745 54.451 154.483 45.283 152.457 36.699 C151.7 34.68 151.7 34.68 150 32 C149.443 30.989 148.886 29.979 148.312 28.938 C138.643 16.654 122.63 12.128 108 9 C107.425 8.825 106.85 8.65 106.258 8.469 C103.013 7.795 99.782 7.797 96.48 7.762 C95.745 7.754 95.009 7.746 94.251 7.737 C92.69 7.723 91.13 7.713 89.569 7.705 C88.001 7.693 86.433 7.673 84.865 7.643 C70.87 7.378 58.046 8.857 45.75 16.188 C39.159 19.947 39.159 19.947 36 21 C35.505 19.732 35.505 19.732 35 18.438 C30.817 11.249 24.906 7.226 17 5 C13.844 4.429 10.693 4.096 7.5 3.812 C6.678 3.731 5.855 3.649 5.008 3.564 C3.006 3.367 1.003 3.182 -1 3 C-0.67 2.01 -0.34 1.02 0 0 Z M128 86 C130 87 130 87 130 87 Z " fill="#E1E1E1" transform="translate(187,109)"/>
<path d="M0 0 C1.32 0 2.64 0 4 0 C4.649 3.187 5.294 6.375 5.938 9.562 C6.211 10.905 6.211 10.905 6.49 12.275 C7.477 17.172 8.354 22.046 9 27 C9.66 27 10.32 27 11 27 C11.66 23.7 12.32 20.4 13 17 C14.98 17.495 14.98 17.495 17 18 C17.495 18.99 17.495 18.99 18 20 C21.024 19.412 24.018 18.773 27 18 C27.99 19.98 28.98 21.96 30 24 C31.65 17.07 33.3 10.14 35 3 C35.66 3 36.32 3 37 3 C37.495 6.465 37.495 6.465 38 10 C37.34 10 36.68 10 36 10 C35.918 11.031 35.835 12.062 35.75 13.125 C34.969 19.585 32.875 25.79 31 32 C30.01 32 29.02 32 28 32 C27.01 29.69 26.02 27.38 25 25 C24.362 24.939 23.724 24.879 23.066 24.816 C21.827 24.691 21.827 24.691 20.562 24.562 C19.327 24.441 19.327 24.441 18.066 24.316 C16 24 16 24 15 23 C13.68 26.96 12.36 30.92 11 35 C8 34 8 34 6.91 32.477 C5.58 28.858 5.04 25.174 4.438 21.375 C3.74 16.033 3.74 16.033 2 11 C1.751 12.128 1.751 12.128 1.497 13.279 C0.741 16.668 -0.036 20.053 -0.812 23.438 C-1.204 25.214 -1.204 25.214 -1.604 27.025 C-1.995 28.712 -1.995 28.712 -2.395 30.434 C-2.63 31.476 -2.866 32.518 -3.109 33.592 C-3.403 34.386 -3.697 35.181 -4 36 C-5.485 36.495 -5.485 36.495 -7 37 C-7.277 36.073 -7.554 35.146 -7.84 34.191 C-8.383 32.395 -8.383 32.395 -8.938 30.562 C-9.477 28.77 -9.477 28.77 -10.027 26.941 C-10.709 24.141 -10.709 24.141 -12 23 C-12.041 21.334 -12.043 19.666 -12 18 C-12.66 18 -13.32 18 -14 18 C-14.144 18.639 -14.289 19.279 -14.438 19.938 C-15 22 -15 22 -16 23 C-18.644 23.074 -21.267 23.088 -23.91 23.07 C-25.557 23.079 -27.203 23.089 -28.85 23.102 C-31.448 23.118 -34.045 23.125 -36.643 23.1 C-48.092 22.569 -48.092 22.569 -57.973 27.402 C-59 28.586 -60.011 29.784 -61 31 C-66.09 35 -66.09 35 -69 35 C-69.958 32.125 -70.067 30.71 -69.879 27.77 C-69.831 26.967 -69.782 26.165 -69.732 25.338 C-69.676 24.505 -69.62 23.671 -69.562 22.812 C-69.484 21.545 -69.484 21.545 -69.404 20.252 C-69.275 18.168 -69.138 16.084 -69 14 C-66 13 -66 13 -64.203 13.742 C-63.559 14.116 -62.914 14.49 -62.25 14.875 C-56.929 17.684 -56.929 17.684 -51 18 C-47.605 14.97 -44.784 11.591 -42 8 C-41.34 8.33 -40.68 8.66 -40 9 C-41.668 12.941 -44.227 15.789 -47 19 C-44.234 20.383 -41.99 20.112 -38.898 20.098 C-37.081 20.093 -37.081 20.093 -35.227 20.088 C-33.956 20.08 -32.685 20.071 -31.375 20.062 C-29.457 20.056 -29.457 20.056 -27.5 20.049 C-24.333 20.037 -21.167 20.021 -18 20 C-17.795 19.374 -17.59 18.747 -17.379 18.102 C-17.109 17.284 -16.84 16.467 -16.562 15.625 C-16.296 14.813 -16.029 14.001 -15.754 13.164 C-15 11 -15 11 -14 9 C-13.01 9 -12.02 9 -11 9 C-10.327 11.582 -9.662 14.165 -9 16.75 C-8.809 17.48 -8.618 18.209 -8.422 18.961 C-7.535 22.446 -7 25.381 -7 29 C-6.34 29 -5.68 29 -5 29 C-4.918 27.742 -4.835 26.484 -4.75 25.188 C-3.925 16.677 -1.84 8.337 0 0 Z " fill="#303030" transform="translate(163,192)"/>
<path d="M0 0 C0.33 0 0.66 0 1 0 C1 1.98 1 3.96 1 6 C0.67 6 0.34 6 0 6 C0 4.02 0 2.04 0 0 Z M-1 6 C3.433 8.956 3.301 12.476 4.371 17.512 C5.18 21.996 5.702 26.455 6 31 C6.66 31 7.32 31 8 31 C8.049 30.408 8.098 29.817 8.148 29.207 C8.565 24.809 9.05 21.031 11 17 C12.938 17.312 12.938 17.312 15 18 C15.495 19.485 15.495 19.485 16 21 C17.036 21.061 18.073 21.121 19.141 21.184 C20.51 21.268 21.88 21.353 23.25 21.438 C24.273 21.496 24.273 21.496 25.316 21.557 C32.321 21.999 32.321 21.999 35 23 C35.495 23.99 35.495 23.99 36 25 C32.542 25.029 29.083 25.047 25.625 25.062 C24.64 25.071 23.655 25.079 22.641 25.088 C21.229 25.093 21.229 25.093 19.789 25.098 C18.485 25.106 18.485 25.106 17.155 25.114 C15 25 15 25 13 24 C11.68 28.95 10.36 33.9 9 39 C7.68 39 6.36 39 5 39 C3.122 37.122 3.609 33.961 3.438 31.438 C3.354 30.24 3.27 29.042 3.184 27.809 C3.123 26.882 3.062 25.955 3 25 C2.34 25 1.68 25 1 25 C0.762 25.905 0.762 25.905 0.52 26.828 C-0.99 32 -2.137 35.173 -7 38 C-12.26 40.221 -16.95 40.262 -22.555 40.195 C-23.456 40.192 -24.358 40.19 -25.287 40.187 C-28.15 40.176 -31.012 40.151 -33.875 40.125 C-35.823 40.115 -37.771 40.106 -39.719 40.098 C-44.479 40.076 -49.24 40.041 -54 40 C-54 39.67 -54 39.34 -54 39 C-51.69 39 -49.38 39 -47 39 C-46.67 38.01 -46.34 37.02 -46 36 C-46 36.66 -46 37.32 -46 38 C-45.34 37.67 -44.68 37.34 -44 37 C-43.184 34.504 -43.184 34.504 -42.562 31.469 C-42.18 29.788 -42.18 29.788 -41.789 28.074 C-41.529 26.895 -41.268 25.715 -41 24.5 C-40.487 22.175 -39.966 19.852 -39.438 17.531 C-39.209 16.495 -38.981 15.46 -38.746 14.393 C-38.5 13.603 -38.254 12.813 -38 12 C-37.34 11.67 -36.68 11.34 -36 11 C-35.834 11.877 -35.834 11.877 -35.665 12.772 C-35.157 15.433 -34.641 18.091 -34.125 20.75 C-33.951 21.67 -33.777 22.591 -33.598 23.539 C-33.424 24.429 -33.25 25.318 -33.07 26.234 C-32.913 27.051 -32.756 27.868 -32.594 28.71 C-31.987 31.048 -31.242 32.929 -30 35 C-29.34 35.33 -28.68 35.66 -28 36 C-27.807 35.145 -27.613 34.291 -27.414 33.41 C-27.154 32.305 -26.893 31.201 -26.625 30.062 C-26.242 28.409 -26.242 28.409 -25.852 26.723 C-25.571 25.824 -25.29 24.926 -25 24 C-24.34 23.67 -23.68 23.34 -23 23 C-23 23.66 -23 24.32 -23 25 C-20.03 25 -17.06 25 -14 25 C-11 30.75 -11 30.75 -11 33 C-10.01 33 -9.02 33 -8 33 C-7.807 32.082 -7.613 31.164 -7.414 30.219 C-6.048 23.782 -4.656 17.369 -3 11 C-2.34 11 -1.68 11 -1 11 C-1 9.35 -1 7.7 -1 6 Z " fill="#F2F2F1" transform="translate(202,191)"/>
<path d="M0 0 C1.352 0.015 2.703 0.029 4.055 0.041 C7.329 0.076 10.602 0.125 13.875 0.188 C13.545 1.507 13.215 2.828 12.875 4.188 C11.988 4.197 11.102 4.206 10.188 4.216 C6.851 4.26 3.516 4.322 0.18 4.395 C-1.255 4.423 -2.691 4.444 -4.126 4.458 C-15.277 4.575 -25.17 5.572 -33.66 13.562 C-41.547 22.311 -41.405 33.375 -41.369 44.549 C-41.363 46.774 -41.372 48.998 -41.386 51.222 C-41.423 57.541 -41.442 63.858 -41.43 70.177 C-41.425 74.058 -41.443 77.939 -41.476 81.82 C-41.484 83.292 -41.483 84.763 -41.472 86.235 C-41.382 99.157 -41.382 99.157 -44.583 103.004 C-45.422 103.724 -46.261 104.445 -47.125 105.188 C-49.002 108.192 -49.377 110.346 -49.312 113.875 C-49.306 114.663 -49.3 115.45 -49.293 116.262 C-49.332 118.194 -49.332 118.194 -48.125 119.188 C-42.003 119.787 -37.492 119.408 -32.125 116.188 C-31.465 116.188 -30.805 116.188 -30.125 116.188 C-28.565 119.307 -29.004 122.617 -29.027 126.039 C-29.029 126.813 -29.03 127.587 -29.032 128.385 C-29.037 130.861 -29.05 133.337 -29.062 135.812 C-29.068 137.49 -29.072 139.167 -29.076 140.844 C-29.087 144.958 -29.104 149.073 -29.125 153.188 C-29.455 153.188 -29.785 153.188 -30.125 153.188 C-30.125 142.298 -30.125 131.407 -30.125 120.188 C-32.435 121.178 -34.745 122.168 -37.125 123.188 C-42.411 123.97 -47.359 124.391 -51.875 121.312 C-53.719 116.702 -54.117 113.072 -53.125 108.188 C-51.553 105.811 -51.553 105.811 -49.63 103.338 C-44.991 96.293 -45.209 89.514 -45.363 81.406 C-45.364 79.901 -45.361 78.396 -45.355 76.891 C-45.345 72.956 -45.374 69.023 -45.414 65.088 C-45.476 58.793 -45.495 52.498 -45.484 46.203 C-45.488 44.026 -45.518 41.849 -45.551 39.672 C-45.637 27.187 -43.2 18.325 -34.414 9.281 C-24.574 0.281 -12.757 -0.247 0 0 Z " fill="#C4C4C3" transform="translate(124.125,108.8125)"/>
<path d="M0 0 C0.99 0 1.98 0 3 0 C3.049 1.123 3.098 2.246 3.148 3.402 C3.763 19.235 3.763 19.235 10.758 33.152 C12 35 12 35 12 37 C12.572 37.278 13.145 37.557 13.734 37.844 C16.699 39.357 19.535 41.072 22.391 42.781 C33.578 48.006 48.119 47.731 59.688 43.938 C68.723 40.168 74.034 35.36 78.105 26.441 C79.275 23.25 79.713 20.377 80 17 C80.495 16.505 80.495 16.505 81 16 C81.237 13.306 81.422 10.637 81.562 7.938 C81.707 5.318 81.851 2.699 82 0 C91.24 0 100.48 0 110 0 C110 0.33 110 0.66 110 1 C97.625 1.495 97.625 1.495 85 2 C84.918 5.094 84.835 8.188 84.75 11.375 C84.222 23.802 81.207 32.726 72.328 41.688 C61.949 50.559 47.412 51.171 34.404 50.262 C21.563 48.864 12.816 42.86 4.562 33.125 C-0.798 22.403 -0.327 11.694 0 0 Z " fill="#D9D8D8" transform="translate(79,244)"/>
<path d="M0 0 C4.569 0.49 6.74 2.148 10.062 5.25 C10.899 6.018 11.736 6.787 12.598 7.578 C19.867 14.907 21.352 21.38 21.312 31.438 C21.329 32.245 21.345 33.053 21.361 33.885 C21.368 42.407 18.356 48.79 14 56 C14.736 56.014 15.472 56.028 16.23 56.043 C20.998 56.276 24.152 56.435 28.188 59.125 C30.449 62.713 30.464 64.827 30 69 C29.505 70.485 29.505 70.485 29 72 C28.01 72 27.02 72 26 72 C26.023 71.374 26.046 70.747 26.07 70.102 C26.088 69.284 26.106 68.467 26.125 67.625 C26.148 66.813 26.171 66.001 26.195 65.164 C26.214 62.787 26.214 62.787 24 61 C21.419 60.855 18.951 60.813 16.375 60.875 C15.669 60.884 14.962 60.893 14.234 60.902 C12.489 60.926 10.745 60.962 9 61 C9 61.66 9 62.32 9 63 C9.862 63.327 9.862 63.327 10.742 63.66 C13.729 65.432 15.143 67.599 17.125 70.438 C17.808 71.406 18.491 72.374 19.195 73.371 C23.01 78.928 23.01 78.928 22.625 81.688 C22.419 82.451 22.212 83.214 22 84 C20.344 81.815 18.724 79.612 17.133 77.379 C12.234 70.064 12.234 70.064 6 64 C1.274 64 -2.812 65.947 -7 68 C-7.495 68.99 -7.495 68.99 -8 70 C-9.32 69.67 -10.64 69.34 -12 69 C-10.342 65.185 -9.333 64.138 -5.418 62.516 C-4.01 62.087 -2.6 61.665 -1.188 61.25 C4.941 59.188 8.87 57.458 11.961 51.465 C12.304 50.651 12.647 49.838 13 49 C13.405 48.176 13.81 47.353 14.227 46.504 C17.745 38.451 18.483 29.283 16.457 20.699 C15.7 18.68 15.7 18.68 14 16 C13.443 14.989 12.886 13.979 12.312 12.938 C9.786 9.729 7.177 7.745 3.805 5.492 C1.799 3.834 0.991 2.381 0 0 Z M-8 70 C-6 71 -6 71 -6 71 Z " fill="#E0E0DF" transform="translate(323,125)"/>
<path d="M0 0 C4.457 4.457 5.168 11.582 5.363 17.656 C5.362 19.604 5.345 21.552 5.312 23.5 C5.316 24.468 5.319 25.436 5.322 26.434 C5.191 44.212 -1.403 56.053 -13.5 68.812 C-22.604 77.548 -34.524 81.444 -46.438 84.812 C-47.207 85.032 -47.976 85.251 -48.769 85.477 C-52.601 86.518 -55.989 87.279 -60 87 C-60 86.34 -60 85.68 -60 85 C-67.59 85 -75.18 85 -83 85 C-83 84.67 -83 84.34 -83 84 C-82.337 83.991 -81.674 83.981 -80.991 83.972 C-63.915 83.671 -46.386 83.332 -31 75 C-30.111 74.558 -29.221 74.116 -28.305 73.66 C-14.841 66.745 -6.117 56.445 -0.438 42.438 C2.718 31.745 2.233 18.721 -0.576 7.997 C-1.201 5.054 -1.362 2.724 0 0 Z " fill="#D8D8D7" transform="translate(346,206)"/>
<path d="M0 0 C0.33 0 0.66 0 1 0 C1 1.65 1 3.3 1 5 C0.67 5 0.34 5 0 5 C0 3.35 0 1.7 0 0 Z M-31 -3 C-30.34 -2.67 -29.68 -2.34 -29 -2 C-30.668 1.941 -33.227 4.789 -36 8 C-33.234 9.383 -30.99 9.112 -27.898 9.098 C-26.081 9.093 -26.081 9.093 -24.227 9.088 C-22.956 9.08 -21.685 9.071 -20.375 9.062 C-18.457 9.056 -18.457 9.056 -16.5 9.049 C-13.333 9.037 -10.167 9.021 -7 9 C-6.34 6.36 -5.68 3.72 -5 1 C-4.34 2.32 -3.68 3.64 -3 5 C-2.01 5 -1.02 5 0 5 C0.495 8.96 0.495 8.96 1 13 C0.34 12.67 -0.32 12.34 -1 12 C-1 10.35 -1 8.7 -1 7 C-1.66 7 -2.32 7 -3 7 C-3.144 7.639 -3.289 8.279 -3.438 8.938 C-4 11 -4 11 -5 12 C-7.644 12.074 -10.267 12.088 -12.91 12.07 C-14.557 12.079 -16.203 12.089 -17.85 12.102 C-20.448 12.118 -23.045 12.125 -25.643 12.1 C-37.092 11.569 -37.092 11.569 -46.973 16.402 C-48 17.586 -49.011 18.784 -50 20 C-55.09 24 -55.09 24 -58 24 C-58.958 21.125 -59.067 19.71 -58.879 16.77 C-58.831 15.967 -58.782 15.165 -58.732 14.338 C-58.676 13.505 -58.62 12.671 -58.562 11.812 C-58.484 10.545 -58.484 10.545 -58.404 9.252 C-58.275 7.168 -58.138 5.084 -58 3 C-55 2 -55 2 -53.203 2.742 C-52.236 3.303 -52.236 3.303 -51.25 3.875 C-45.929 6.684 -45.929 6.684 -40 7 C-36.605 3.97 -33.784 0.591 -31 -3 Z M1 5 C3 8 3 8 2.625 10.188 C2.316 11.085 2.316 11.085 2 12 C1.67 9.69 1.34 7.38 1 5 Z " fill="#2C2C2C" transform="translate(152,203)"/>
<path d="M0 0 C0.33 0 0.66 0 1 0 C1.116 9.154 1.205 18.307 1.259 27.461 C1.285 31.712 1.32 35.962 1.377 40.213 C1.432 44.317 1.461 48.421 1.474 52.526 C1.484 54.09 1.502 55.653 1.529 57.217 C1.565 59.412 1.57 61.606 1.568 63.801 C1.579 65.049 1.59 66.297 1.601 67.583 C0.805 72.11 -0.863 73.697 -4 77 C-5.877 80.004 -6.252 82.159 -6.188 85.688 C-6.181 86.475 -6.175 87.263 -6.168 88.074 C-6.207 90.007 -6.207 90.007 -5 91 C1.122 91.6 5.633 91.22 11 88 C11.66 88 12.32 88 13 88 C14.56 91.12 14.121 94.43 14.098 97.852 C14.096 98.626 14.095 99.4 14.093 100.197 C14.088 102.673 14.075 105.149 14.062 107.625 C14.057 109.302 14.053 110.979 14.049 112.656 C14.038 116.771 14.021 120.885 14 125 C13.67 125 13.34 125 13 125 C13 114.11 13 103.22 13 92 C10.69 92.99 8.38 93.98 6 95 C0.714 95.782 -4.234 96.204 -8.75 93.125 C-10.584 88.541 -11.043 84.856 -10 80 C-8.067 76.023 -5.848 72.389 -3 69 C-2.34 69 -1.68 69 -1 69 C-1.002 68.15 -1.004 67.301 -1.007 66.425 C-1.027 58.435 -1.042 50.444 -1.052 42.454 C-1.057 38.345 -1.064 34.237 -1.075 30.128 C-1.086 26.167 -1.092 22.205 -1.095 18.243 C-1.097 16.729 -1.1 15.214 -1.106 13.699 C-1.113 11.585 -1.114 9.47 -1.114 7.356 C-1.116 6.15 -1.118 4.944 -1.12 3.702 C-1 1 -1 1 0 0 Z " fill="#EFEFEF" transform="translate(81,137)"/>
<path d="M0 0 C2.454 3.68 2.846 7.161 3.5 11.438 C4.321 18.03 4.321 18.03 7 24 C7.66 24.33 8.32 24.66 9 25 C9.33 24.34 9.66 23.68 10 23 C9.67 24.32 9.34 25.64 9 27 C13.95 27.33 18.9 27.66 24 28 C24 28.33 24 28.66 24 29 C10.47 29 -3.06 29 -17 29 C-17 28.67 -17 28.34 -17 28 C-14.69 28 -12.38 28 -10 28 C-9.67 27.01 -9.34 26.02 -9 25 C-9 25.66 -9 26.32 -9 27 C-8.34 26.67 -7.68 26.34 -7 26 C-6.168 23.505 -6.168 23.505 -5.527 20.469 C-5.268 19.349 -5.008 18.228 -4.74 17.074 C-4.475 15.895 -4.21 14.715 -3.938 13.5 C-3.408 11.176 -2.876 8.853 -2.34 6.531 C-1.99 4.978 -1.99 4.978 -1.633 3.393 C-1 1 -1 1 0 0 Z " fill="#E9E9E9" transform="translate(165,202)"/>
<path d="M0 0 C0.495 0.99 0.495 0.99 1 2 C1.66 2 2.32 2 3 2 C2.57 7.3 0.512 11.495 -1.723 16.23 C-3.351 19.761 -4.689 23.342 -6 27 C-6.66 27 -7.32 27 -8 27 C-8.21 27.779 -8.42 28.557 -8.637 29.359 C-10.497 34.326 -13.105 38.701 -15.812 43.25 C-16.385 44.215 -16.957 45.18 -17.547 46.174 C-24.761 58.152 -32.792 69.475 -42 80 C-42.66 79.67 -43.32 79.34 -44 79 C-42.266 75.031 -39.654 71.746 -37.062 68.312 C-21.926 47.956 -8.536 25.966 0 2 C-0.66 1.67 -1.32 1.34 -2 1 C-1.34 0.67 -0.68 0.34 0 0 Z " fill="#2A2A2A" transform="translate(166,122)"/>
<path d="M0 0 C2.31 0.33 4.62 0.66 7 1 C7.495 2.485 7.495 2.485 8 4 C4.72 6.077 1.609 7.623 -2.062 8.875 C-6.011 10.26 -9.85 11.77 -13.688 13.438 C-24.145 17.819 -34.874 20.9 -45.938 23.312 C-46.706 23.484 -47.474 23.656 -48.266 23.832 C-53.597 24.937 -58.556 25.146 -64 25 C-64.33 25.66 -64.66 26.32 -65 27 C-66.021 26.021 -67.021 25.02 -68 24 C-68 23.67 -68 23.34 -68 23 C-67.403 22.905 -66.806 22.81 -66.19 22.712 C-47.853 19.758 -30.202 16.172 -13 9 C-11.189 8.268 -9.376 7.539 -7.562 6.812 C-6.772 6.494 -5.982 6.176 -5.168 5.848 C-2.477 4.796 0.245 3.87 3 3 C2.01 2.01 1.02 1.02 0 0 Z " fill="#323231" transform="translate(305,190)"/>
<path d="M0 0 C0.66 0 1.32 0 2 0 C2.33 2.31 2.66 4.62 3 7 C2.34 7 1.68 7 1 7 C0.917 8.031 0.835 9.062 0.75 10.125 C-0.031 16.585 -2.125 22.79 -4 29 C-4.99 29 -5.98 29 -7 29 C-8.485 25.535 -8.485 25.535 -10 22 C-10.957 21.909 -10.957 21.909 -11.934 21.816 C-12.76 21.733 -13.586 21.649 -14.438 21.562 C-15.261 21.481 -16.085 21.4 -16.934 21.316 C-19 21 -19 21 -20 20 C-20.99 23.465 -20.99 23.465 -22 27 C-24.475 26.01 -24.475 26.01 -27 25 C-27 23.02 -27 21.04 -27 19 C-26.67 19 -26.34 19 -26 19 C-26 20.65 -26 22.3 -26 24 C-25.34 24 -24.68 24 -24 24 C-23.34 20.7 -22.68 17.4 -22 14 C-20.68 14.33 -19.36 14.66 -18 15 C-17.67 15.66 -17.34 16.32 -17 17 C-13.976 16.412 -10.982 15.773 -8 15 C-7.01 16.98 -6.02 18.96 -5 21 C-3.35 14.07 -1.7 7.14 0 0 Z M-29 23 C-28.34 23.66 -27.68 24.32 -27 25 C-27.375 27.125 -27.375 27.125 -28 29 C-28.33 27.02 -28.66 25.04 -29 23 Z " fill="#2A2A29" transform="translate(198,195)"/>
<path d="M0 0 C9.24 0 18.48 0 28 0 C28 0.33 28 0.66 28 1 C15.625 1.495 15.625 1.495 3 2 C2.917 5.094 2.835 8.188 2.75 11.375 C2.227 23.674 -0.665 33.152 -9.883 41.758 C-14.398 45.423 -18.292 46.981 -24 48 C-24 47.34 -24 46.68 -24 46 C-25.32 45.67 -26.64 45.34 -28 45 C-27.432 44.83 -26.863 44.66 -26.277 44.484 C-17.579 41.754 -11.298 38.649 -6 31 C-3.577 26.321 -2.625 22.206 -2 17 C-1.67 16.67 -1.34 16.34 -1 16 C-0.763 13.306 -0.578 10.637 -0.438 7.938 C-0.293 5.318 -0.149 2.699 0 0 Z " fill="#E4E4E4" transform="translate(161,244)"/>
<path d="M0 0 C0 5.61 0 11.22 0 17 C-0.66 16.67 -1.32 16.34 -2 16 C-3.283 12.15 -3.066 9.053 -3 5 C-4.062 5.327 -5.124 5.655 -6.219 5.992 C-11.946 7.424 -17.632 7.216 -23.5 7.125 C-24.609 7.116 -25.717 7.107 -26.859 7.098 C-29.573 7.074 -32.287 7.038 -35 7 C-35 11.29 -35 15.58 -35 20 C-35.33 20 -35.66 20 -36 20 C-36.027 17.688 -36.046 15.375 -36.062 13.062 C-36.074 11.775 -36.086 10.487 -36.098 9.16 C-36 6 -36 6 -35 5 C-35.99 4.67 -36.98 4.34 -38 4 C-38 9.28 -38 14.56 -38 20 C-38.33 20 -38.66 20 -39 20 C-39 14.39 -39 8.78 -39 3 C-36.82 2.951 -34.64 2.902 -32.395 2.852 C-30.273 2.797 -28.152 2.74 -26.03 2.683 C-24.561 2.644 -23.091 2.61 -21.622 2.578 C-19.504 2.532 -17.387 2.474 -15.27 2.414 C-13.997 2.383 -12.724 2.351 -11.413 2.319 C-7.306 1.935 -4.077 0 0 0 Z " fill="#A6A6A5" transform="translate(199,240)"/>
<path d="M0 0 C4.569 0.49 6.74 2.148 10.062 5.25 C10.899 6.018 11.736 6.787 12.598 7.578 C19.13 14.163 21.244 19.81 21.273 29.027 C21.266 29.843 21.258 30.659 21.25 31.5 C21.258 32.316 21.265 33.132 21.273 33.973 C21.257 39.027 20.622 43.211 19 48 C17.68 47.67 16.36 47.34 15 47 C15.33 45.824 15.66 44.649 16 43.438 C17.975 34.471 18.826 24.1 14 16 C13.443 14.989 12.886 13.979 12.312 12.938 C9.786 9.729 7.177 7.745 3.805 5.492 C1.799 3.834 0.991 2.381 0 0 Z " fill="#E6E6E6" transform="translate(323,125)"/>
<path d="M0 0 C4.421 0.53 5.962 2.286 9.125 5.375 C10.398 7.92 10.293 9.782 10.312 12.625 C10.327 13.558 10.341 14.492 10.355 15.453 C10.125 18.375 10.125 18.375 8.125 24.375 C18.025 24.375 27.925 24.375 38.125 24.375 C38.125 24.705 38.125 25.035 38.125 25.375 C22.78 25.87 22.78 25.87 7.125 26.375 C7.125 25.715 7.125 25.055 7.125 24.375 C6.465 24.375 5.805 24.375 5.125 24.375 C5.367 23.329 5.367 23.329 5.613 22.262 C6.158 19.188 6.293 16.308 6.312 13.188 C6.327 12.142 6.341 11.097 6.355 10.02 C6.397 7.218 6.397 7.218 4.125 5.375 C-0.642 4.555 -4.077 4.902 -8.25 7.375 C-9.116 8.035 -9.982 8.695 -10.875 9.375 C-11.865 9.375 -12.855 9.375 -13.875 9.375 C-13.75 7.625 -13.75 7.625 -12.875 5.375 C-8.512 1.982 -5.336 0.696 0 0 Z " fill="#C0C0C0" transform="translate(161.875,99.625)"/>
<path d="M0 0 C0 3 0 3 -1 6 C-8.807 12.33 -18.913 15.123 -28.438 17.812 C-29.207 18.032 -29.976 18.251 -30.769 18.476 C-34.601 19.518 -37.989 20.279 -42 20 C-42 19.34 -42 18.68 -42 18 C-49.59 18 -57.18 18 -65 18 C-65 17.67 -65 17.34 -65 17 C-64.337 16.991 -63.674 16.981 -62.991 16.972 C-37.147 16.516 -37.147 16.516 -13 8 C-11.561 7.25 -11.561 7.25 -10.094 6.484 C-4.69 3.741 -4.69 3.741 0 0 Z " fill="#E6E6E6" transform="translate(328,273)"/>
<path d="M0 0 C1.938 0.312 1.938 0.312 4 1 C4.33 1.99 4.66 2.98 5 4 C6.036 4.061 7.073 4.121 8.141 4.184 C9.51 4.268 10.88 4.353 12.25 4.438 C13.273 4.496 13.273 4.496 14.316 4.557 C21.321 4.999 21.321 4.999 24 6 C24.495 6.99 24.495 6.99 25 8 C21.542 8.029 18.083 8.047 14.625 8.062 C13.148 8.075 13.148 8.075 11.641 8.088 C10.229 8.093 10.229 8.093 8.789 8.098 C7.92 8.103 7.05 8.108 6.155 8.114 C4 8 4 8 2 7 C0.02 14.425 0.02 14.425 -2 22 C-3.32 22 -4.64 22 -6 22 C-7.773 20.227 -7.419 17.658 -7.625 15.25 C-7.72 14.203 -7.816 13.157 -7.914 12.078 C-7.995 9.18 -7.695 6.802 -7 4 C-6.67 4 -6.34 4 -6 4 C-5.67 7.3 -5.34 10.6 -5 14 C-4.34 14 -3.68 14 -3 14 C-2.951 13.408 -2.902 12.817 -2.852 12.207 C-2.435 7.809 -1.95 4.031 0 0 Z " fill="#CECECE" transform="translate(213,208)"/>
<path d="M0 0 C0 3 0 3 -0.988 4.895 C-2.162 7.338 -2.236 8.993 -2.188 11.688 C-2.181 12.475 -2.175 13.263 -2.168 14.074 C-2.207 16.007 -2.207 16.007 -1 17 C5.122 17.6 9.633 17.22 15 14 C15.66 14 16.32 14 17 14 C18.56 17.12 18.121 20.43 18.098 23.852 C18.096 24.626 18.095 25.4 18.093 26.197 C18.088 28.673 18.075 31.149 18.062 33.625 C18.057 35.302 18.053 36.979 18.049 38.656 C18.038 42.771 18.021 46.885 18 51 C17.67 51 17.34 51 17 51 C17 40.11 17 29.22 17 18 C14.69 18.99 12.38 19.98 10 21 C4.714 21.782 -0.234 22.204 -4.75 19.125 C-6.528 14.679 -6.929 10.716 -6 6 C-3.562 2.938 -3.562 2.938 -1 1 C-0.67 0.67 -0.34 0.34 0 0 Z " fill="#C4C4C3" transform="translate(77,211)"/>
<path d="M0 0 C11.678 -0.627 25.459 3.323 35.547 9.277 C36.922 11.965 36.922 11.965 37.547 14.277 C34.166 13.263 31.268 12.122 28.172 10.402 C21.783 7.084 14.512 5.883 7.547 4.277 C6.938 4.102 6.329 3.926 5.701 3.745 C2.942 3.146 0.29 3.058 -2.531 2.961 C-3.691 2.919 -4.852 2.877 -6.047 2.834 C-7.253 2.795 -8.46 2.755 -9.703 2.715 C-10.925 2.672 -12.147 2.628 -13.406 2.584 C-16.422 2.478 -19.437 2.376 -22.453 2.277 C-22.453 1.947 -22.453 1.617 -22.453 1.277 C-16.919 0.95 -11.384 0.659 -5.846 0.402 C-3.895 0.3 -1.947 0.156 0 0 Z M35.547 10.277 C37.547 11.277 37.547 11.277 37.547 11.277 Z " fill="#CCCCCC" transform="translate(287.453125,113.72265625)"/>
<path d="M0 0 C0.66 0 1.32 0 2 0 C2 0.66 2 1.32 2 2 C2.699 2.193 3.397 2.387 4.117 2.586 C5.027 2.846 5.937 3.107 6.875 3.375 C8.232 3.758 8.232 3.758 9.617 4.148 C12 5 12 5 14 7 C12.752 8.106 11.501 9.21 10.25 10.312 C9.554 10.927 8.858 11.542 8.141 12.176 C2.48 17 2.48 17 0 17 C0 11.39 0 5.78 0 0 Z " fill="#EAEAE9" transform="translate(94,207)"/>
<path d="M0 0 C17.82 0.33 35.64 0.66 54 1 C54 1.33 54 1.66 54 2 C36.51 2 19.02 2 1 2 C1 7.61 1 13.22 1 19 C14.86 19 28.72 19 43 19 C43 19.33 43 19.66 43 20 C28.81 20 14.62 20 0 20 C-0.33 15.38 -0.66 10.76 -1 6 C-1.99 6.495 -1.99 6.495 -3 7 C-1.125 2.25 -1.125 2.25 0 0 Z " fill="#C4C3C3" transform="translate(148,167)"/>
<path d="M0 0 C1.32 0 2.64 0 4 0 C4.68 3.164 5.341 6.332 6 9.5 C6.191 10.387 6.382 11.274 6.578 12.188 C7.688 17.578 8.206 22.498 8 28 C5.37 25.37 5.179 23.238 4.375 19.625 C4.115 18.483 3.854 17.341 3.586 16.164 C3 13 3 13 3 9 C2.01 9.33 1.02 9.66 0 10 C0 6.7 0 3.4 0 0 Z M8 28 C9.32 28 10.64 28 12 28 C11.67 30.31 11.34 32.62 11 35 C10.01 34.67 9.02 34.34 8 34 C8 32.02 8 30.04 8 28 Z " fill="#191919" transform="translate(163,192)"/>
<path d="M0 0 C1.452 4.288 0.315 6.548 -1.57 10.5 C-5.816 17.923 -11.813 24.161 -18 30 C-18.99 29.67 -19.98 29.34 -21 29 C-19.913 27.766 -19.913 27.766 -18.805 26.508 C-13.139 19.996 -8.172 13.595 -4 6 C-1.167 1.167 -1.167 1.167 0 0 Z " fill="#E6E6E6" transform="translate(347,248)"/>
<path d="M0 0 C8.35 2.349 14.457 9.983 19 17 C20.798 20.213 21.206 22.298 21 26 C20.01 26 19.02 26 18 26 C17.792 25.371 17.585 24.742 17.371 24.094 C13.781 14.12 8.297 8.023 -1 3 C-0.67 2.01 -0.34 1.02 0 0 Z " fill="#E5E5E4" transform="translate(329,119)"/>
<path d="M0 0 C2.31 0.33 4.62 0.66 7 1 C7.33 1.99 7.66 2.98 8 4 C4.683 6.102 1.522 7.661 -2.188 8.938 C-6.78 10.543 -11.25 12.326 -15.711 14.266 C-18.254 15.081 -20.346 15.131 -23 15 C-23 14.34 -23 13.68 -23 13 C-20.623 12.049 -18.245 11.098 -15.867 10.148 C-14.017 9.407 -12.168 8.663 -10.32 7.914 C-5.918 6.134 -1.532 4.431 3 3 C2.01 2.01 1.02 1.02 0 0 Z " fill="#313130" transform="translate(305,190)"/>
<path d="M0 0 C0.66 0 1.32 0 2 0 C2.33 2.31 2.66 4.62 3 7 C2.34 7 1.68 7 1 7 C0.917 8.031 0.835 9.062 0.75 10.125 C-0.031 16.585 -2.125 22.79 -4 29 C-4.99 29 -5.98 29 -7 29 C-8.354 26.291 -8.065 23.991 -8 21 C-7.01 21 -6.02 21 -5 21 C-2.525 10.605 -2.525 10.605 0 0 Z " fill="#2E2E2D" transform="translate(198,195)"/>
<path d="M0 0 C0 0.33 0 0.66 0 1 C-4.963 1.77 -9.886 2.253 -14.902 2.535 C-15.625 2.578 -16.347 2.621 -17.092 2.665 C-19.374 2.8 -21.656 2.932 -23.938 3.062 C-25.495 3.154 -27.053 3.246 -28.611 3.338 C-32.407 3.562 -36.204 3.782 -40 4 C-31.687 -4.82 -11.101 -1.571 0 0 Z " fill="#DCDCDB" transform="translate(291,113)"/>
<path d="M0 0 C1.562 1.625 1.562 1.625 3 4 C2.688 7.25 2.688 7.25 2 10 C1.34 9.34 0.68 8.68 0 8 C-0.33 30.44 -0.66 52.88 -1 76 C-1.33 76 -1.66 76 -2 76 C-2.046 67.124 -2.082 58.249 -2.104 49.373 C-2.114 45.251 -2.128 41.13 -2.151 37.008 C-2.173 33.027 -2.185 29.046 -2.19 25.065 C-2.193 23.549 -2.201 22.034 -2.211 20.519 C-2.226 18.389 -2.228 16.259 -2.227 14.129 C-2.231 12.918 -2.236 11.708 -2.241 10.461 C-1.976 6.659 -1.167 3.615 0 0 Z " fill="#C7C7C7" transform="translate(81,130)"/>
<path d="M0 0 C0.33 0.66 0.66 1.32 1 2 C1.66 2 2.32 2 3 2 C2.57 7.3 0.512 11.495 -1.723 16.23 C-3.351 19.761 -4.689 23.342 -6 27 C-6.99 27 -7.98 27 -9 27 C-9.33 26.34 -9.66 25.68 -10 25 C-9.411 23.308 -9.411 23.308 -8.418 21.297 C-8.063 20.563 -7.708 19.83 -7.342 19.074 C-6.961 18.307 -6.58 17.54 -6.188 16.75 C-3.803 11.898 -1.564 7.196 0 2 C-0.66 1.67 -1.32 1.34 -2 1 C-1.34 0.67 -0.68 0.34 0 0 Z " fill="#2A2A29" transform="translate(166,122)"/>
<path d="M0 0 C0.578 0.227 1.155 0.454 1.75 0.688 C-0.845 3.359 -3.229 5.672 -6.25 7.875 C-10.362 11.178 -12.174 15.958 -14.25 20.688 C-14.91 20.358 -15.57 20.028 -16.25 19.688 C-16.397 12.905 -13.089 9.727 -8.574 4.922 C-3.018 -0.419 -3.018 -0.419 0 0 Z " fill="#E2E1E1" transform="translate(98.25,113.3125)"/>
<path d="M0 0 C9.24 0 18.48 0 28 0 C28 0.33 28 0.66 28 1 C15.625 1.495 15.625 1.495 3 2 C2.67 8.6 2.34 15.2 2 22 C1.01 22.33 0.02 22.66 -1 23 C-0.67 15.41 -0.34 7.82 0 0 Z " fill="#F7F7F6" transform="translate(161,244)"/>
<path d="M0 0 C0.99 0.33 1.98 0.66 3 1 C3.738 2.785 3.738 2.785 4.312 5.062 C6.068 10.887 9.288 15.426 13.688 19.602 C15 21 15 21 15 23 C9.595 22.158 7.121 18.178 4 14 C1.023 9.339 -0.566 5.655 0 0 Z " fill="#DFDFDE" transform="translate(74,267)"/>
<path d="M0 0 C0 0.66 0 1.32 0 2 C-5.51 4.325 -10.511 4.234 -16.375 4.125 C-17.765 4.111 -17.765 4.111 -19.184 4.098 C-21.456 4.074 -23.728 4.041 -26 4 C-26.33 3.01 -26.66 2.02 -27 1 C-23.625 0.831 -20.25 0.665 -16.875 0.5 C-15.448 0.428 -15.448 0.428 -13.992 0.355 C-9.323 0.129 -4.676 -0.063 0 0 Z " fill="#D9D9D9" transform="translate(137,290)"/>
<path d="M0 0 C2.563 -0.054 5.124 -0.094 7.688 -0.125 C8.409 -0.142 9.13 -0.159 9.873 -0.176 C13.99 -0.213 17.429 -0.171 21 2 C21.812 4.125 21.812 4.125 22 6 C21.018 5.801 21.018 5.801 20.016 5.598 C13.024 4.245 6.103 3.471 -1 3 C-0.67 2.01 -0.34 1.02 0 0 Z " fill="#D6D6D5" transform="translate(187,109)"/>
<path d="M0 0 C0.99 0 1.98 0 3 0 C3.33 8.25 3.66 16.5 4 25 C-0.13 19.493 -0.13 19.493 -0.098 14.648 C-0.094 13.798 -0.091 12.947 -0.088 12.07 C-0.08 11.181 -0.071 10.291 -0.062 9.375 C-0.058 8.478 -0.053 7.581 -0.049 6.656 C-0.037 4.437 -0.021 2.219 0 0 Z " fill="#E5E4E4" transform="translate(79,244)"/>
<path d="M0 0 C4.015 1.521 5.705 3.973 8.125 7.438 C8.808 8.406 9.491 9.374 10.195 10.371 C14.01 15.928 14.01 15.928 13.625 18.688 C13.419 19.451 13.212 20.214 13 21 C9.924 16.925 6.935 12.789 3.938 8.656 C2.309 6.424 0.665 4.206 -1 2 C-0.67 1.34 -0.34 0.68 0 0 Z " fill="#D3D2D2" transform="translate(332,188)"/>
<path d="M0 0 C0 0.33 0 0.66 0 1 C-2.64 1.66 -5.28 2.32 -8 3 C-7.67 3.66 -7.34 4.32 -7 5 C-8.178 5.273 -8.178 5.273 -9.379 5.551 C-15.194 6.942 -20.6 8.423 -26 11 C-25.67 9.35 -25.34 7.7 -25 6 C-22.15 4.987 -19.296 3.989 -16.438 3 C-15.638 2.714 -14.838 2.428 -14.014 2.133 C-9.122 0.456 -5.17 -0.333 0 0 Z " fill="#C8C8C8" transform="translate(260,113)"/>
<path d="M0 0 C3.625 0.5 3.625 0.5 6.562 2.562 C9.113 6.195 9.109 8.147 8.625 12.5 C8.295 13.49 7.965 14.48 7.625 15.5 C6.635 15.5 5.645 15.5 4.625 15.5 C4.648 14.874 4.671 14.247 4.695 13.602 C4.713 12.784 4.731 11.967 4.75 11.125 C4.785 9.907 4.785 9.907 4.82 8.664 C4.839 6.287 4.839 6.287 2.625 4.5 C0.422 4.04 0.422 4.04 -2 3.875 C-3.226 3.763 -3.226 3.763 -4.477 3.648 C-5.103 3.599 -5.73 3.55 -6.375 3.5 C-4.116 0.926 -3.588 0.532 0 0 Z " fill="#D0D0D0" transform="translate(344.375,181.5)"/>
<path d="M0 0 C4.851 -0.606 7.271 -0.183 11.25 2.75 C13.967 4.902 16.108 7.084 18 10 C18.188 12.75 18.188 12.75 18 15 C17.34 15 16.68 15 16 15 C15.34 12.69 14.68 10.38 14 8 C13.34 8 12.68 8 12 8 C12 7.34 12 6.68 12 6 C6.06 4.515 6.06 4.515 0 3 C0 2.01 0 1.02 0 0 Z " fill="#2A2A2A" transform="translate(192,129)"/>
<path d="M0 0 C0 3 0 3 0 3 Z M-4 7 C-4.598 7.268 -5.196 7.536 -5.812 7.812 C-8.005 8.848 -8.005 8.848 -9.312 10.438 C-11.822 12.761 -14.877 13.67 -18 15 C-18.33 15.66 -18.66 16.32 -19 17 C-20.32 16.67 -21.64 16.34 -23 16 C-21.364 12.414 -20.309 11.152 -16.715 9.383 C-14.845 8.76 -14.845 8.76 -12.938 8.125 C-12.3 7.901 -11.663 7.676 -11.006 7.445 C-6.29 5.855 -6.29 5.855 -4 7 Z M-19 17 C-17 18 -17 18 -17 18 Z " fill="#CECECE" transform="translate(334,178)"/>
<path d="M0 0 C0.99 1.485 0.99 1.485 2 3 C2.66 2.67 3.32 2.34 4 2 C4.242 2.58 4.485 3.16 4.734 3.758 C6.784 8.535 8.968 12.777 12 17 C10.68 17.33 9.36 17.66 8 18 C7.036 16.608 6.079 15.211 5.125 13.812 C4.591 13.035 4.058 12.258 3.508 11.457 C1.045 7.443 0 4.754 0 0 Z " fill="#C4C4C4" transform="translate(196,253)"/>
<path d="M0 0 C-3.194 3.194 -7.068 3.902 -11.461 4.125 C-13.644 4.125 -15.818 4.089 -18 4 C-18.33 4.66 -18.66 5.32 -19 6 C-20.021 5.021 -21.021 4.02 -22 3 C-22 2.67 -22 2.34 -22 2 C-14.589 0.574 -7.551 -0.301 0 0 Z " fill="#161616" transform="translate(259,211)"/>
<path d="M0 0 C0.33 0 0.66 0 1 0 C1.33 2.97 1.66 5.94 2 9 C2.33 9 2.66 9 3 9 C3.212 14.192 2.591 18.127 1 23 C-0.32 22.67 -1.64 22.34 -3 22 C-2.691 20.783 -2.381 19.566 -2.062 18.312 C-0.701 12.269 -0.362 6.171 0 0 Z " fill="#EDEDED" transform="translate(341,150)"/>
<path d="M0 0 C4.042 3.624 6.826 7.327 7.188 12.875 C7.126 13.576 7.064 14.278 7 15 C6.01 15 5.02 15 4 15 C3.734 14.325 3.469 13.649 3.195 12.953 C2.842 12.061 2.489 11.169 2.125 10.25 C1.777 9.368 1.429 8.487 1.07 7.578 C0.135 5.326 -0.878 3.164 -2 1 C-1.34 0.67 -0.68 0.34 0 0 Z " fill="#DCDCDC" transform="translate(343,130)"/>
<path d="M0 0 C0 3 0 3 -1 6 C-5.193 9.295 -8.913 10.779 -14 12 C-13.84 10.195 -13.84 10.195 -13 8 C-10.566 6.367 -10.566 6.367 -7.562 4.875 C-3.476 2.863 -3.476 2.863 0 0 Z " fill="#CECECD" transform="translate(328,273)"/>
<path d="M0 0 C0.99 0.33 1.98 0.66 3 1 C-0.389 4.588 -3.761 7.457 -8 10 C-8.66 10 -9.32 10 -10 10 C-10.33 8.35 -10.66 6.7 -11 5 C-10.113 4.732 -9.226 4.464 -8.312 4.188 C-4.999 3.133 -4.999 3.133 -2.312 1.312 C-1.549 0.879 -0.786 0.446 0 0 Z " fill="#DFDFDF" transform="translate(233,120)"/>
<path d="M0 0 C4.165 0.54 6.544 1.831 9.812 4.438 C10.603 5.055 11.393 5.672 12.207 6.309 C12.799 6.867 13.39 7.425 14 8 C14 8.66 14 9.32 14 10 C8.705 9.669 4.756 6.528 1 3 C0.67 2.01 0.34 1.02 0 0 Z " fill="#E2E2E2" transform="translate(205,270)"/>
<path d="M0 0 C0 5.625 -5.036 10.15 -8.875 14 C-9.576 14.66 -10.278 15.32 -11 16 C-11 11.051 -9.762 10.018 -6.625 6.312 C-5.813 5.339 -5.001 4.366 -4.164 3.363 C-2 1 -2 1 0 0 Z " fill="#202020" transform="translate(134,186)"/>
<path d="M0 0 C6.366 0.491 12.693 0.997 19 2 C19 2.99 19 3.98 19 5 C16.958 4.885 14.916 4.757 12.875 4.625 C11.738 4.555 10.601 4.486 9.43 4.414 C6.046 4.006 3.184 3.19 0 2 C0 1.34 0 0.68 0 0 Z " fill="#E4E4E4" transform="translate(244,288)"/>
<path d="M0 0 C0.639 0.268 1.279 0.536 1.938 0.812 C3.603 1.153 5.269 1.488 6.938 1.812 C6.938 2.142 6.938 2.472 6.938 2.812 C6.334 2.922 5.731 3.032 5.109 3.145 C0.612 4.037 -2.499 4.797 -6.062 7.812 C-7.053 7.812 -8.042 7.812 -9.062 7.812 C-8.938 6.062 -8.938 6.062 -8.062 3.812 C-3.085 -0.28 -3.085 -0.28 0 0 Z " fill="#B9B9B9" transform="translate(157.0625,101.1875)"/>
<path d="M0 0 C0.66 0 1.32 0 2 0 C2.33 2.31 2.66 4.62 3 7 C2.34 7 1.68 7 1 7 C0.67 9.64 0.34 12.28 0 15 C-0.99 15 -1.98 15 -3 15 C-2.358 9.865 -1.317 5.006 0 0 Z " fill="#2D2D2D" transform="translate(198,195)"/>
<path d="M0 0 C0.33 0.66 0.66 1.32 1 2 C2.65 2 4.3 2 6 2 C3.932 4.797 2.856 5.027 -0.688 5.688 C-1.781 5.791 -2.874 5.894 -4 6 C-3.34 7.32 -2.68 8.64 -2 10 C-3.32 9.67 -4.64 9.34 -6 9 C-5.528 4.752 -3.033 2.8 0 0 Z " fill="#F0EFEF" transform="translate(335,180)"/>
<path d="M0 0 C3.096 0.838 4.131 1.29 6 3.812 C7.188 6 7.188 6 8 7.812 C3.028 6.321 -1.418 4.208 -6 1.812 C-3 -0.188 -3 -0.188 0 0 Z M6 3.812 C8 4.812 8 4.812 8 4.812 Z " fill="#CBCBCB" transform="translate(317,120.1875)"/>
<path d="M0 0 C2.517 2.517 3.11 4.576 4 8 C3.644 11.115 2.803 12.296 1 15 C0.661 13.585 0.329 12.168 0 10.75 C-0.186 9.961 -0.371 9.172 -0.562 8.359 C-1.131 5.293 -1.423 2.846 0 0 Z " fill="#C8C8C8" transform="translate(346,206)"/>
<path d="M0 0 C9.57 0 19.14 0 29 0 C28.67 0.99 28.34 1.98 28 3 C26.35 3 24.7 3 23 3 C23 2.34 23 1.68 23 1 C15.41 1 7.82 1 0 1 C0 0.67 0 0.34 0 0 Z " fill="#B8B8B7" transform="translate(263,290)"/>
<path d="M0 0 C0.99 0 1.98 0 3 0 C3 2.31 3 4.62 3 7 C1.68 7.33 0.36 7.66 -1 8 C-1.125 2.25 -1.125 2.25 0 0 Z M3 7 C4 11 4 11 4 11 Z M4 11 C6 14 6 14 6 17 C5.34 17 4.68 17 4 17 C4 15.02 4 13.04 4 11 Z " fill="#0E0E0E" transform="translate(149,201)"/>
<path d="M0 0 C0 0.99 0 1.98 0 3 C-1 4 -1 4 -3.562 4.062 C-4.769 4.032 -4.769 4.032 -6 4 C-5.381 3.711 -4.762 3.423 -4.125 3.125 C-1.867 2.063 -1.867 2.063 0 0 Z M2 0 C2.66 0.33 3.32 0.66 4 1 C3.67 3.64 3.34 6.28 3 9 C2.34 8.34 1.68 7.68 1 7 C-1.203 6.54 -1.203 6.54 -3.625 6.375 C-4.442 6.3 -5.26 6.225 -6.102 6.148 C-6.728 6.099 -7.355 6.05 -8 6 C-8 5.67 -8 5.34 -8 5 C-5.36 5 -2.72 5 0 5 C0 4.34 0 3.68 0 3 C0.66 3 1.32 3 2 3 C2 2.01 2 1.02 2 0 Z " fill="#4B4B4B" transform="translate(187,210)"/>
<path d="M0 0 C-2.816 1.472 -5.62 2.657 -8.625 3.688 C-9.401 3.959 -10.177 4.231 -10.977 4.512 C-13 5 -13 5 -15 4 C-15.33 3.34 -15.66 2.68 -16 2 C-5.626 -1.629 -5.626 -1.629 0 0 Z " fill="#2F2F2F" transform="translate(285,205)"/>
<path d="M0 0 C-3.487 4.359 -6.728 4.946 -12 6 C-12 5.34 -12 4.68 -12 4 C-13.32 3.67 -14.64 3.34 -16 3 C-10.472 0.894 -5.93 -0.379 0 0 Z " fill="#C6C5C5" transform="translate(149,286)"/>
<path d="M0 0 C0.33 5.28 0.66 10.56 1 16 C0.34 15.67 -0.32 15.34 -1 15 C-1.961 12.118 -2.106 10.301 -2.062 7.312 C-2.053 6.504 -2.044 5.696 -2.035 4.863 C-2.018 3.941 -2.018 3.941 -2 3 C-2.66 2.67 -3.32 2.34 -4 2 C-1 0 -1 0 0 0 Z " fill="#F4F3F3" transform="translate(198,241)"/>
<path d="M0 0 C0.33 0 0.66 0 1 0 C1.33 3.3 1.66 6.6 2 10 C2.66 10 3.32 10 4 10 C4 10.66 4 11.32 4 12 C3.01 12 2.02 12 1 12 C1.33 13.98 1.66 15.96 2 18 C1.34 17.67 0.68 17.34 0 17 C-0.449 14.453 -0.449 14.453 -0.688 11.25 C-0.774 10.203 -0.86 9.157 -0.949 8.078 C-0.997 5.195 -0.687 2.789 0 0 Z M2 18 C4 19 4 19 4 19 Z " fill="#C0C0C0" transform="translate(206,212)"/>
<path d="M0 0 C0 3 0 3 -0.938 4.688 C-2.489 8.064 -2.631 11.309 -3 15 C-5.452 13.161 -5.966 12.197 -6.5 9.125 C-5.843 5.022 -4.102 3.648 -1 1 C-0.67 0.67 -0.34 0.34 0 0 Z " fill="#CDCDCD" transform="translate(77,211)"/>
<path d="M0 0 C0.33 0.66 0.66 1.32 1 2 C0.145 4.348 0.145 4.348 -1.188 7.062 C-1.828 8.41 -1.828 8.41 -2.48 9.785 C-4 12 -4 12 -6.176 12.809 C-6.778 12.872 -7.38 12.935 -8 13 C-6.338 7.501 -4.886 3.257 0 0 Z " fill="#333333" transform="translate(158,147)"/>
<path d="M0 0 C0.66 0.33 1.32 0.66 2 1 C0.497 5.208 -2.233 6.803 -6 9 C-6.66 9 -7.32 9 -8 9 C-8.33 8.01 -8.66 7.02 -9 6 C-7.242 5.023 -5.484 4.047 -3.727 3.07 C-1.839 1.991 -1.839 1.991 0 0 Z " fill="#2A2A2A" transform="translate(102,218)"/>
<path d="M0 0 C0.99 0.33 1.98 0.66 3 1 C3.73 3.066 3.73 3.066 4.188 5.562 C4.346 6.389 4.505 7.215 4.668 8.066 C4.778 8.704 4.887 9.343 5 10 C4.01 10.33 3.02 10.66 2 11 C0.198 7.17 -0.196 4.219 0 0 Z " fill="#D9D9D9" transform="translate(74,267)"/>
<path d="M0 0 C0 0.33 0 0.66 0 1 C-2.64 1.66 -5.28 2.32 -8 3 C-7.67 3.66 -7.34 4.32 -7 5 C-13.625 5.25 -13.625 5.25 -17 3 C-11.177 1.032 -6.166 -0.402 0 0 Z " fill="#AEAEAE" transform="translate(260,113)"/>
<path d="M0 0 C0.33 0 0.66 0 1 0 C1 1.98 1 3.96 1 6 C1.66 6 2.32 6 3 6 C2.25 10.75 2.25 10.75 0 13 C-0.99 13.33 -1.98 13.66 -3 14 C-2.01 9.38 -1.02 4.76 0 0 Z " fill="#CECDCD" transform="translate(159,261)"/>
<path d="M0 0 C6.483 -0.367 6.483 -0.367 8.938 1.375 C10 3 10 3 10 5 C6.7 4.34 3.4 3.68 0 3 C0 2.01 0 1.02 0 0 Z " fill="#424241" transform="translate(192,129)"/>
<path d="M0 0 C-0.99 1.485 -0.99 1.485 -2 3 C-5.625 3.688 -5.625 3.688 -9 4 C-9 3.34 -9 2.68 -9 2 C-10.32 1.67 -11.64 1.34 -13 1 C-11.21 0.638 -9.418 0.285 -7.625 -0.062 C-6.128 -0.358 -6.128 -0.358 -4.602 -0.66 C-2 -1 -2 -1 0 0 Z " fill="#D0D0D0" transform="translate(301,288)"/>
<path d="M0 0 C0.688 1.688 0.688 1.688 1 4 C-0.641 7.446 -1.785 8.857 -5 11 C-4.394 6.756 -3.096 3.096 0 0 Z " fill="#E8E8E8" transform="translate(347,248)"/>
<path d="M0 0 C0.33 0 0.66 0 1 0 C0.67 2.97 0.34 5.94 0 9 C-0.99 9.33 -1.98 9.66 -3 10 C-3.33 8.02 -3.66 6.04 -4 4 C-3.01 4 -2.02 4 -1 4 C-0.67 2.68 -0.34 1.36 0 0 Z " fill="#F5F5F5" transform="translate(211,220)"/>
<path d="M0 0 C0.66 0.66 1.32 1.32 2 2 C1.545 7.455 1.545 7.455 -1 10 C-1.99 10 -2.98 10 -4 10 C-2.891 6.513 -1.737 3.225 0 0 Z " fill="#474747" transform="translate(160,139)"/>
<path d="M0 0 C1.562 1.625 1.562 1.625 3 4 C2.688 7.25 2.688 7.25 2 10 C1.34 9.34 0.68 8.68 0 8 C-0.33 10.31 -0.66 12.62 -1 15 C-1.33 15 -1.66 15 -2 15 C-2.194 9.473 -1.748 5.244 0 0 Z " fill="#BCBCBB" transform="translate(81,130)"/>
<path d="M0 0 C1 4 1 4 1 4 Z M1 4 C2.32 4 3.64 4 5 4 C4.67 6.31 4.34 8.62 4 11 C3.01 10.67 2.02 10.34 1 10 C1 8.02 1 6.04 1 4 Z " fill="#080808" transform="translate(170,216)"/>
<path d="M0 0 C0.33 0 0.66 0 1 0 C1 1.98 1 3.96 1 6 C0.67 6 0.34 6 0 6 C0 4.02 0 2.04 0 0 Z M-1 6 C2 8 2 8 2.688 11.125 C2.842 12.548 2.842 12.548 3 14 C1.68 14 0.36 14 -1 14 C-1 11.36 -1 8.72 -1 6 Z " fill="#B9B9B8" transform="translate(202,191)"/>
<path d="M0 0 C2.31 0.33 4.62 0.66 7 1 C7.33 1.99 7.66 2.98 8 4 C5.75 5.625 5.75 5.625 3 7 C0.688 6.188 0.688 6.188 -1 5 C0.32 4.01 1.64 3.02 3 2 C2.01 1.34 1.02 0.68 0 0 Z " fill="#3C3C3C" transform="translate(305,190)"/>
<path d="M0 0 C0.66 0.33 1.32 0.66 2 1 C1.01 1 0.02 1 -1 1 C-0.67 0.67 -0.34 0.34 0 0 Z M-6 2 C-4.35 2 -2.7 2 -1 2 C-1 4 -1 4 -2.25 5.688 C-2.827 6.121 -3.405 6.554 -4 7 C-6.188 6.688 -6.188 6.688 -8 6 C-7.34 4.68 -6.68 3.36 -6 2 Z M-4 7 C-2 8 -2 8 -2 8 Z " fill="#DDDDDD" transform="translate(319,188)"/>
<path d="M0 0 C2.31 0.33 4.62 0.66 7 1 C6.01 1.495 6.01 1.495 5 2 C5 2.66 5 3.32 5 4 C6.32 4.33 7.64 4.66 9 5 C0.429 4.143 0.429 4.143 -3 2 C-2.01 2 -1.02 2 0 2 C0 1.34 0 0.68 0 0 Z " fill="#C7C7C6" transform="translate(239,286)"/>
<path d="M0 0 C0.33 0 0.66 0 1 0 C1.33 2.97 1.66 5.94 2 9 C2.33 9 2.66 9 3 9 C3 11.31 3 13.62 3 16 C2.34 15.34 1.68 14.68 1 14 C0.01 14.495 0.01 14.495 -1 15 C-0.67 10.05 -0.34 5.1 0 0 Z " fill="#BFBFBF" transform="translate(341,150)"/>
<path d="M0 0 C0.99 0.33 1.98 0.66 3 1 C1.38 2.339 -0.246 3.671 -1.875 5 C-3.232 6.114 -3.232 6.114 -4.617 7.25 C-7 9 -7 9 -9 9 C-7.861 5.583 -6.936 4.871 -4.125 2.75 C-3.426 2.209 -2.728 1.667 -2.008 1.109 C-1.345 0.743 -0.683 0.377 0 0 Z " fill="#8B8B8B" transform="translate(346,362)"/>
<path d="M0 0 C1.65 1.32 3.3 2.64 5 4 C4.67 4.66 4.34 5.32 4 6 C2 4.688 2 4.688 0 3 C0 2.01 0 1.02 0 0 Z M6 7 C7.65 8.65 9.3 10.3 11 12 C10.67 12.66 10.34 13.32 10 14 C6 9.25 6 9.25 6 7 Z " fill="#C6C6C6" transform="translate(371,71)"/>
<path d="M0 0 C2.963 0.395 5.383 1.598 8 3 C5.812 4.188 5.812 4.188 3 5 C0.188 3.625 0.188 3.625 -2 2 C-1.34 1.34 -0.68 0.68 0 0 Z " fill="#D3D3D3" transform="translate(219,279)"/>
<path d="M0 0 C3 0 3 0 5.688 2.5 C6.451 3.325 7.214 4.15 8 5 C6.02 5.99 6.02 5.99 4 7 C0 2.25 0 2.25 0 0 Z " fill="#CFCFCF" transform="translate(200,264)"/>
<path d="M0 0 C1.32 0 2.64 0 4 0 C4 1.98 4 3.96 4 6 C3.01 6.33 2.02 6.66 1 7 C0.67 4.69 0.34 2.38 0 0 Z " fill="#0C0C0C" transform="translate(155,222)"/>
<path d="M0 0 C1.986 0.098 3.971 0.195 5.957 0.293 C5.957 0.953 5.957 1.613 5.957 2.293 C2.327 2.623 -1.303 2.953 -5.043 3.293 C-2.043 0.293 -2.043 0.293 0 0 Z " fill="#F4F4F3" transform="translate(256.04296875,113.70703125)"/>
<path d="M0 0 C0.99 0 1.98 0 3 0 C2.875 1.75 2.875 1.75 2 4 C-1.062 6.25 -1.062 6.25 -4 8 C-2.875 5.028 -1.777 2.666 0 0 Z " fill="#D8D8D8" transform="translate(78,206)"/>
<path d="M0 0 C0.99 0 1.98 0 3 0 C5 3 5 3 4.625 5.688 C4.419 6.451 4.212 7.214 4 8 C1.846 5.378 0.599 3.356 0 0 Z " fill="#E5E5E5" transform="translate(341,201)"/>
<path d="M0 0 C0.66 0 1.32 0 2 0 C2 2.97 2 5.94 2 9 C1.01 9 0.02 9 -1 9 C-0.67 6.03 -0.34 3.06 0 0 Z " fill="#E1E0E0" transform="translate(350,188)"/>
<path d="M0 0 C1.65 0.33 3.3 0.66 5 1 C5.33 2.32 5.66 3.64 6 5 C2.37 4.34 -1.26 3.68 -5 3 C-5 2.67 -5 2.34 -5 2 C-3.35 2 -1.7 2 0 2 C0 1.34 0 0.68 0 0 Z " fill="#CDCDCD" transform="translate(203,110)"/>
<path d="M0 0 C0 0.99 0 1.98 0 3 C-2.375 4.75 -2.375 4.75 -5 6 C-5.66 5.67 -6.32 5.34 -7 5 C-7 4.01 -7 3.02 -7 2 C-2.25 0 -2.25 0 0 0 Z " fill="#C8C8C8" transform="translate(94,225)"/>
<path d="M0 0 C4.29 0.33 8.58 0.66 13 1 C13 1.33 13 1.66 13 2 C10.03 2 7.06 2 4 2 C3.67 2.66 3.34 3.32 3 4 C1.979 3.021 0.979 2.02 0 1 C0 0.67 0 0.34 0 0 Z " fill="#3E3E3D" transform="translate(237,213)"/>
<path d="M0 0 C0 3 0 3 0 3 Z M1 2 C1 5 1 5 -0.5 6.688 C-0.995 7.121 -1.49 7.554 -2 8 C-2.99 7.67 -3.98 7.34 -5 7 C-1.25 3.125 -1.25 3.125 1 2 Z " fill="#333333" transform="translate(137,179)"/>
<path d="M0 0 C0 0.66 0 1.32 0 2 C-3.375 2.125 -3.375 2.125 -7 2 C-7.66 1.34 -8.32 0.68 -9 0 C-5.931 -1.534 -3.299 -0.55 0 0 Z " fill="#E0DFDF" transform="translate(314,119)"/>
<path d="M0 0 C1.98 0 3.96 0 6 0 C6 0.99 6 1.98 6 3 C3.36 3 0.72 3 -2 3 C-1.34 2.67 -0.68 2.34 0 2 C0 1.34 0 0.68 0 0 Z " fill="#D6D6D5" transform="translate(159,100)"/>
<path d="M0 0 C1.392 0.093 1.392 0.093 2.812 0.188 C2.812 0.848 2.812 1.507 2.812 2.188 C-1.643 2.683 -1.643 2.683 -6.188 3.188 C-3.188 0.188 -3.188 0.188 0 0 Z " fill="#F5F5F4" transform="translate(134.1875,289.8125)"/>
<path d="M0 0 C3.125 -0.188 3.125 -0.188 6 0 C4.25 2.062 4.25 2.062 2 4 C-0.25 3.75 -0.25 3.75 -2 3 C-1.34 2.01 -0.68 1.02 0 0 Z " fill="#DCDCDC" transform="translate(301,286)"/>
<path d="M0 0 C0.33 0.66 0.66 1.32 1 2 C4.029 2.658 4.029 2.658 7 3 C7 3.33 7 3.66 7 4 C3.7 4 0.4 4 -3 4 C-2.01 2.68 -1.02 1.36 0 0 Z " fill="#0C0C0C" transform="translate(114,210)"/>
<path d="M0 0 C-0.33 2.64 -0.66 5.28 -1 8 C-1.99 8 -2.98 8 -4 8 C-3.744 5.657 -3.407 3.322 -3 1 C-1 0 -1 0 0 0 Z " fill="#3C3C3C" transform="translate(199,202)"/>
<path d="M0 0 C0.99 0.33 1.98 0.66 3 1 C2.387 3.962 1.746 5.381 0 8 C-1.125 2.25 -1.125 2.25 0 0 Z " fill="#B2B2B2" transform="translate(347,213)"/>
<path d="M0 0 C0 3 0 3 -2.5 5.688 C-3.325 6.451 -4.15 7.214 -5 8 C-5 6.68 -5 5.36 -5 4 C-2.5 1.75 -2.5 1.75 0 0 Z " fill="#171717" transform="translate(128,194)"/>
<path d="M0 0 C0.33 0.66 0.66 1.32 1 2 C-0.438 4.625 -0.438 4.625 -2 7 C-2.99 6.67 -3.98 6.34 -5 6 C-3.63 2.839 -3.011 2.007 0 0 Z " fill="#1C1C1C" transform="translate(148,165)"/>
<path d="M0 0 C2 3 2 3 1.758 5.043 C1.172 7.029 0.586 9.014 0 11 C-2 8 -2 8 -1.758 5.957 C-1.172 3.971 -0.586 1.986 0 0 Z " fill="#474746" transform="translate(214,154)"/>
<path d="M0 0 C0.33 1.32 0.66 2.64 1 4 C-4.75 2.25 -4.75 2.25 -7 0 C-3.867 -1.044 -3.01 -0.934 0 0 Z " fill="#C6C6C6" transform="translate(318,121)"/>
<path d="M0 0 C1.361 0.371 1.361 0.371 2.75 0.75 C-0.515 2.634 -3.531 3.243 -7.25 3.75 C-4.05 -0.312 -4.05 -0.312 0 0 Z " fill="#EFEFEE" transform="translate(245.25,117.25)"/>
<path d="M0 0 C1.938 0.188 1.938 0.188 4 1 C5.25 3.062 5.25 3.062 6 5 C2.73 4.436 1.174 3.5 -1 1 C-0.67 0.67 -0.34 0.34 0 0 Z " fill="#E2E2E2" transform="translate(165,102)"/>
<path d="M0 0 C2.438 0.375 2.438 0.375 5 1 C5.33 1.66 5.66 2.32 6 3 C4.02 3 2.04 3 0 3 C0 2.01 0 1.02 0 0 Z M6 3 C8 4 8 4 8 4 Z " fill="#EAEAEA" transform="translate(225,282)"/>
<path d="M0 0 C0.99 0 1.98 0 3 0 C3.66 1.65 4.32 3.3 5 5 C3.68 4.67 2.36 4.34 1 4 C0.67 2.68 0.34 1.36 0 0 Z " fill="#E4E4E3" transform="translate(77,277)"/>
<path d="M0 0 C0 0.99 0 1.98 0 3 C-2.222 5.222 -4.085 5.926 -7 7 C-5.121 3.429 -3.829 1.453 0 0 Z " fill="#C6C6C5" transform="translate(345,256)"/>
<path d="M0 0 C0.99 0 1.98 0 3 0 C3 1.65 3 3.3 3 5 C2.01 5 1.02 5 0 5 C0 3.35 0 1.7 0 0 Z " fill="#0B0B0B" transform="translate(191,219)"/>
<path d="M0 0 C0.33 1.32 0.66 2.64 1 4 C1.66 4 2.32 4 3 4 C3 4.66 3 5.32 3 6 C1.68 6.33 0.36 6.66 -1 7 C-1.33 5.02 -1.66 3.04 -2 1 C-1.34 0.67 -0.68 0.34 0 0 Z " fill="#232323" transform="translate(155,217)"/>
<path d="M0 0 C0.66 0 1.32 0 2 0 C2 1.65 2 3.3 2 5 C0.02 5.99 0.02 5.99 -2 7 C-1.34 4.69 -0.68 2.38 0 0 Z " fill="#353535" transform="translate(203,216)"/>
<path d="M0 0 C0.99 0.33 1.98 0.66 3 1 C1.35 2.65 -0.3 4.3 -2 6 C-2 4.333 -2 2.667 -2 1 C-1.34 0.67 -0.68 0.34 0 0 Z " fill="#D8D8D7" transform="translate(233,120)"/>
<path d="M0 0 C1.938 0.375 1.938 0.375 4 1 C4.33 1.66 4.66 2.32 5 3 C3.02 3.33 1.04 3.66 -1 4 C-0.67 2.68 -0.34 1.36 0 0 Z " fill="#DCDCDB" transform="translate(191,242)"/>
<path d="M0 0 C0 1.98 0 3.96 0 6 C-0.99 6.495 -0.99 6.495 -2 7 C-2 5.68 -2 4.36 -2 3 C-2.66 2.67 -3.32 2.34 -4 2 C-1 0 -1 0 0 0 Z " fill="#FAFAF9" transform="translate(198,241)"/>
<path d="M0 0 C0.33 0.66 0.66 1.32 1 2 C1.99 2 2.98 2 4 2 C3.67 3.65 3.34 5.3 3 7 C2.34 7 1.68 7 1 7 C0.67 4.69 0.34 2.38 0 0 Z " fill="#3D3D3D" transform="translate(207,215)"/>
<path d="M0 0 C2.475 0.99 2.475 0.99 5 2 C5 2.66 5 3.32 5 4 C3.68 4 2.36 4 1 4 C1 3.34 1 2.68 1 2 C0.34 1.67 -0.32 1.34 -1 1 C-0.67 0.67 -0.34 0.34 0 0 Z " fill="#222222" transform="translate(95,205)"/>
<path d="M0 0 C2.97 0.495 2.97 0.495 6 1 C5.67 1.99 5.34 2.98 5 4 C4.01 4 3.02 4 2 4 C1.34 2.68 0.68 1.36 0 0 Z " fill="#DCDCDB" transform="translate(207,112)"/>
<path d="M0 0 C0.99 0.33 1.98 0.66 3 1 C-1.75 5 -1.75 5 -4 5 C-3 2 -3 2 0 0 Z " fill="#727271" transform="translate(334,371)"/>
<path d="M0 0 C0.66 0.33 1.32 0.66 2 1 C0.35 2.98 -1.3 4.96 -3 7 C-3 3.483 -2.176 2.629 0 0 Z " fill="#7A7A7A" transform="translate(375,333)"/>
<path d="M0 0 C0.99 0.33 1.98 0.66 3 1 C3 2.65 3 4.3 3 6 C2.34 6 1.68 6 1 6 C0.67 4.02 0.34 2.04 0 0 Z " fill="#272727" transform="translate(207,138)"/>
<path d="M0 0 C0.33 0.99 0.66 1.98 1 3 C-0.438 5.188 -0.438 5.188 -2 7 C-2.688 5.188 -2.688 5.188 -3 3 C-1.562 1.25 -1.562 1.25 0 0 Z " fill="#E8E8E7" transform="translate(85,127)"/>
<path d="M0 0 C0.99 0.495 0.99 0.495 2 1 C1.01 1.495 1.01 1.495 0 2 C0 1.34 0 0.68 0 0 Z M-4 3 C-3.01 3 -2.02 3 -1 3 C-1.33 3.99 -1.66 4.98 -2 6 C-2.99 5.67 -3.98 5.34 -5 5 C-4.67 4.34 -4.34 3.68 -4 3 Z " fill="#E5E5E5" transform="translate(323,277)"/>
<path d="M0 0 C0.99 0 1.98 0 3 0 C2.67 1.98 2.34 3.96 2 6 C0 3 0 3 0 0 Z " fill="#1C1C1C" transform="translate(168,212)"/>
<path d="M0 0 C1.98 0.495 1.98 0.495 4 1 C2.745 3.511 1.499 3.871 -1 5 C-0.67 3.35 -0.34 1.7 0 0 Z " fill="#515150" transform="translate(176,209)"/>
<path d="M0 0 C2.625 0.375 2.625 0.375 5 1 C4.67 1.99 4.34 2.98 4 4 C2.02 3.34 0.04 2.68 -2 2 C-1.34 1.34 -0.68 0.68 0 0 Z " fill="#3D3D3D" transform="translate(100,208)"/>
<path d="M0 0 C1.32 0 2.64 0 4 0 C3.67 1.32 3.34 2.64 3 4 C2.01 4 1.02 4 0 4 C0 2.68 0 1.36 0 0 Z " fill="#3E3E3E" transform="translate(163,192)"/>
<path d="M0 0 C0.33 0.66 0.66 1.32 1 2 C0.01 3.485 0.01 3.485 -1 5 C-1.66 5 -2.32 5 -3 5 C-3 4.01 -3 3.02 -3 2 C-2.01 1.34 -1.02 0.68 0 0 Z " fill="#0F0F0F" transform="translate(141,176)"/>
<path d="M0 0 C0.33 0.66 0.66 1.32 1 2 C0.062 4.125 0.062 4.125 -1 6 C-1.66 6 -2.32 6 -3 6 C-3 4.68 -3 3.36 -3 2 C-2.01 1.34 -1.02 0.68 0 0 Z " fill="#151515" transform="translate(158,147)"/>
<path d="M0 0 C0.33 0.66 0.66 1.32 1 2 C0.34 1.67 -0.32 1.34 -1 1 C-0.67 0.67 -0.34 0.34 0 0 Z M-2 2 C-2 2.99 -2 3.98 -2 5 C-2.99 5.33 -3.98 5.66 -5 6 C-4.67 5.01 -4.34 4.02 -4 3 C-3.34 2.67 -2.68 2.34 -2 2 Z " fill="#5D5D5D" transform="translate(342,365)"/>
<path d="M0 0 C0.33 1.32 0.66 2.64 1 4 C1.66 4 2.32 4 3 4 C2.67 4.99 2.34 5.98 2 7 C1.01 6.67 0.02 6.34 -1 6 C-0.67 4.02 -0.34 2.04 0 0 Z " fill="#ACACAC" transform="translate(339,166)"/>
<path d="M0 0 C1.062 1.875 1.062 1.875 2 4 C1.67 4.66 1.34 5.32 1 6 C0.34 6 -0.32 6 -1 6 C-0.67 4.02 -0.34 2.04 0 0 Z " fill="#232323" transform="translate(162,135)"/>
<path d="M0 0 C0.33 1.32 0.66 2.64 1 4 C0.01 4.33 -0.98 4.66 -2 5 C-2 3.68 -2 2.36 -2 1 C-1.34 0.67 -0.68 0.34 0 0 Z " fill="#E7E7E7" transform="translate(170,118)"/>
<path d="M0 0 C0.99 0.33 1.98 0.66 3 1 C3.33 2.65 3.66 4.3 4 6 C2.624 4.71 1.292 3.373 0 2 C0 1.34 0 0.68 0 0 Z " fill="#909090" transform="translate(36,320)"/>
<path d="M0 0 C0.33 0.99 0.66 1.98 1 3 C0.01 4.485 0.01 4.485 -1 6 C-1.66 4.68 -2.32 3.36 -3 2 C-2.01 1.34 -1.02 0.68 0 0 Z " fill="#C0C0C0" transform="translate(213,217)"/>
<path d="M0 0 C0.33 0 0.66 0 1 0 C1 1.65 1 3.3 1 5 C0.01 5 -0.98 5 -2 5 C-1.34 3.35 -0.68 1.7 0 0 Z " fill="#121212" transform="translate(147,209)"/>
<path d="M0 0 C2.475 0.99 2.475 0.99 5 2 C5 2.66 5 3.32 5 4 C1.125 2.25 1.125 2.25 0 0 Z " fill="#7D7D7D" transform="translate(76,364)"/>
<path d="M0 0 C-1.65 0.66 -3.3 1.32 -5 2 C-5.33 1.34 -5.66 0.68 -6 0 C-3.509 -1.245 -2.589 -0.777 0 0 Z " fill="#C2C2C1" transform="translate(227,282)"/>
<path d="M0 0 C0.99 0 1.98 0 3 0 C3 0.99 3 1.98 3 3 C2.01 3.33 1.02 3.66 0 4 C0 2.68 0 1.36 0 0 Z " fill="#D7D7D7" transform="translate(76,274)"/>
<path d="M0 0 C0.66 0 1.32 0 2 0 C2 0.99 2 1.98 2 3 C0.68 3.33 -0.64 3.66 -2 4 C-1.34 2.68 -0.68 1.36 0 0 Z " fill="#E2E2E1" transform="translate(92,225)"/>
<path d="M0 0 C0.66 0.33 1.32 0.66 2 1 C2 1.66 2 2.32 2 3 C0.68 2.67 -0.64 2.34 -2 2 C-1.34 1.34 -0.68 0.68 0 0 Z " fill="#DCDCDB" transform="translate(74,227)"/>
<path d="M0 0 C0.99 0.33 1.98 0.66 3 1 C2.67 1.66 2.34 2.32 2 3 C1.01 3 0.02 3 -1 3 C-0.67 2.01 -0.34 1.02 0 0 Z " fill="#333333" transform="translate(294,199)"/>
<path d="M0 0 C0.99 0.33 1.98 0.66 3 1 C2.67 1.99 2.34 2.98 2 4 C1.34 2.68 0.68 1.36 0 0 Z " fill="#EDEDED" transform="translate(200,262)"/>
</svg>