
<!-- Generator: visioncortex VTracer 0.6.4 -->
<svg version="1.1" xmlns="http://www.w3.org/2000/svg" viewBox="0 0 1280 411" preserveAspectRatio="xMidYMid meet">
<path d="M0 0 C1.7 -0.012 1.7 -0.012 3.434 -0.024 C5.84 -0.038 8.245 -0.049 10.651 -0.057 C13.065 -0.068 15.479 -0.089 17.893 -0.118 C38.799 -0.376 58.956 1.332 79.008 7.613 C80 7.914 80.993 8.215 82.016 8.526 C90.024 11.002 97.779 13.834 105.445 17.238 C106.11 17.528 106.776 17.817 107.461 18.116 C137.686 31.346 165.491 52.87 185.445 79.238 C185.892 79.825 186.339 80.412 186.799 81.016 C208.668 110.01 222.726 144.221 227.445 180.238 C227.54 180.887 227.634 181.535 227.731 182.203 C228.72 189.723 228.689 197.291 228.695 204.863 C228.696 205.592 228.697 206.32 228.697 207.071 C228.659 233.22 223.899 257.861 214.445 282.238 C213.995 283.405 213.546 284.571 213.082 285.773 C204.726 306.276 192.659 325.168 177.445 341.238 C176.273 342.587 175.106 343.941 173.945 345.301 C142.851 380.817 92.83 407.139 45.685 411.594 C37.808 412.055 29.937 412.101 22.051 412.021 C18.684 411.986 15.321 412.007 11.955 412.041 C-37.437 412.469 -85.454 393.738 -122.555 361.238 C-123.379 360.523 -123.379 360.523 -124.221 359.793 C-160.164 328.447 -181.239 286.524 -190.555 240.238 C-190.791 239.118 -191.026 237.998 -191.27 236.844 C-197.124 204.922 -193.525 169.627 -182.555 139.238 C-182.128 138.008 -182.128 138.008 -181.692 136.753 C-171.786 108.631 -155.768 83.143 -135.037 61.772 C-133.574 60.258 -132.134 58.724 -130.695 57.188 C-101.481 26.448 -58.879 7.8 -17.555 1.238 C-16.714 1.064 -15.872 0.89 -15.006 0.71 C-10.006 0.027 -5.041 0.035 0 0 Z " fill="#040404" transform="translate(515.5546875,-0.23828125)"/>
<path d="M0 0 C3.01 1.776 5.411 3.823 7 7 C7.123 8.935 7.176 10.874 7.188 12.812 C7.202 13.85 7.216 14.888 7.23 15.957 C6.996 19.056 6.209 21.166 5 24 C5.796 23.979 6.592 23.958 7.412 23.937 C11.066 23.853 14.72 23.801 18.375 23.75 C19.627 23.716 20.878 23.683 22.168 23.648 C29.835 23.568 36.258 24.105 43 28 C45.438 30.438 45.438 30.438 47 33 C47.781 34.071 47.781 34.071 48.578 35.164 C50.396 38.79 50.404 41.978 50.312 45.938 C50.316 46.628 50.319 47.318 50.322 48.029 C50.259 54.127 49.236 59.092 45.188 63.75 C44.707 64.322 44.226 64.895 43.73 65.484 C40.098 68.666 36.272 69.25 31.567 69.227 C29.976 69.227 29.976 69.227 28.353 69.227 C26.653 69.211 26.653 69.211 24.918 69.195 C23.749 69.192 22.579 69.19 21.375 69.187 C17.645 69.176 13.917 69.15 10.188 69.125 C7.657 69.115 5.126 69.106 2.596 69.098 C-3.603 69.076 -9.801 69.041 -16 69 C-16 74.61 -16 80.22 -16 86 C-14.759 85.984 -13.518 85.969 -12.24 85.952 C-7.622 85.898 -3.004 85.864 1.615 85.835 C3.611 85.82 5.607 85.8 7.603 85.774 C10.478 85.737 13.352 85.72 16.227 85.707 C17.558 85.684 17.558 85.684 18.917 85.66 C24.12 85.659 27.401 86.326 32 89 C34.751 89.253 34.751 89.253 37 89 C37.111 89.559 37.221 90.117 37.335 90.693 C37.848 93.275 38.361 95.856 38.875 98.438 C39.049 99.316 39.223 100.194 39.402 101.1 C40.403 106.123 41.46 111.124 42.637 116.11 C43 118 43 118 43 121 C43.66 121 44.32 121 45 121 C45.66 117.04 46.32 113.08 47 109 C48.32 108.67 49.64 108.34 51 108 C51.66 109.65 52.32 111.3 53 113 C57.29 112.67 61.58 112.34 66 112 C66 111.34 66 110.68 66 110 C64.35 109.67 62.7 109.34 61 109 C61 108.34 61 107.68 61 107 C60.402 106.751 59.804 106.502 59.188 106.246 C53.186 102.827 49.805 94.529 47.695 88.219 C45.397 77.577 46.074 66.775 51 57 C51.619 55.726 51.619 55.726 52.25 54.426 C59.353 41.249 72.084 33.617 86.117 29.357 C109.185 23.341 134.503 27.279 155 39 C159.047 41.698 161.805 44.63 164 49 C165.129 56.853 164.476 64.332 160 71 C157.355 74.123 154.693 77.153 151 79 C149.087 79.149 147.168 79.221 145.25 79.25 C143.711 79.289 143.711 79.289 142.141 79.328 C138.475 78.945 136.251 77.715 133 76 C121.823 71.793 110.921 69.936 99 71 C98.01 71.495 98.01 71.495 97 72 C97.031 74.416 97.031 74.416 98 77 C102.311 79.613 106.379 80.639 111.312 81.5 C117.089 82.576 122.506 83.921 128 86 C129.367 86.508 130.734 87.016 132.102 87.523 C136.073 89.002 140.038 90.498 144 92 C142.434 95.132 139.327 95.565 136.188 96.688 C135.48 96.945 134.773 97.203 134.045 97.468 C132.508 98.026 130.97 98.579 129.431 99.129 C126.967 100.012 124.509 100.91 122.051 101.809 C105.78 107.7 90.254 111.482 73 113 C73 113.99 73 114.98 73 116 C69.563 116.058 66.125 116.094 62.688 116.125 C61.711 116.142 60.735 116.159 59.729 116.176 C58.791 116.182 57.853 116.189 56.887 116.195 C56.023 116.206 55.159 116.216 54.268 116.227 C52 116 52 116 49 114 C48.951 114.568 48.902 115.137 48.852 115.723 C48.369 120.711 47.524 125.226 46 130 C44.68 130 43.36 130 42 130 C41.01 125.71 40.02 121.42 39 117 C38.154 118.567 37.309 120.135 36.438 121.75 C33.915 126.427 30.933 129.07 26 131 C22.623 131.513 19.319 131.468 15.91 131.391 C14.966 131.385 14.021 131.379 13.048 131.373 C10.052 131.351 7.058 131.301 4.062 131.25 C2.023 131.23 -0.017 131.212 -2.057 131.195 C-7.038 131.151 -12.019 131.082 -17 131 C-16.984 131.867 -16.969 132.734 -16.952 133.627 C-16.901 136.877 -16.863 140.127 -16.835 143.378 C-16.82 144.778 -16.8 146.179 -16.774 147.579 C-16.608 156.684 -16.812 163.804 -21.688 171.75 C-27.466 177.373 -34.366 179.148 -42.25 179.188 C-44.176 179.209 -44.176 179.209 -46.141 179.23 C-53.619 178.784 -60.395 176.666 -65.688 171.25 C-69.973 165.227 -71.459 160.443 -71.293 153.098 C-71.289 152.375 -71.284 151.653 -71.28 150.908 C-71.263 148.626 -71.226 146.344 -71.188 144.062 C-71.172 142.505 -71.159 140.947 -71.146 139.389 C-71.114 135.592 -71.062 131.796 -71 128 C-71.511 128.283 -72.022 128.566 -72.548 128.857 C-78.539 132.039 -83.206 133.014 -90 132 C-92.688 130.688 -92.688 130.688 -94 128 C-94.974 123.165 -95.145 118.796 -92.431 114.538 C-91.48 113.312 -91.48 113.312 -90.509 112.061 C-86.001 105.252 -86.043 99.033 -86.168 91.094 C-86.164 89.678 -86.156 88.263 -86.145 86.848 C-86.124 83.15 -86.143 79.453 -86.172 75.754 C-86.212 69.839 -86.189 63.923 -86.169 58.007 C-86.168 55.963 -86.182 53.919 -86.2 51.874 C-86.229 38.35 -85.067 28.358 -75.688 18.25 C-65.816 8.87 -53.938 8.71 -41 8.875 C-39.639 8.885 -38.279 8.894 -36.918 8.902 C-33.612 8.926 -30.306 8.959 -27 9 C-27 10.32 -27 11.64 -27 13 C-27.856 13.015 -28.713 13.029 -29.595 13.044 C-32.82 13.106 -36.044 13.18 -39.268 13.262 C-40.655 13.295 -42.041 13.324 -43.428 13.346 C-55.293 13.548 -66.166 14.264 -75 23 C-80.28 29.61 -82.252 36.563 -82.24 45.018 C-82.242 45.68 -82.244 46.343 -82.246 47.026 C-82.249 48.452 -82.248 49.878 -82.244 51.305 C-82.238 53.567 -82.247 55.829 -82.261 58.092 C-82.298 64.52 -82.317 70.948 -82.305 77.376 C-82.3 81.321 -82.318 85.264 -82.351 89.208 C-82.359 90.704 -82.358 92.2 -82.347 93.695 C-82.25 107.855 -82.25 107.855 -88 114 C-89.942 118.439 -90.284 122.17 -90 127 C-88.477 128.523 -87.121 128.206 -85 128.25 C-79.931 128.217 -75.676 126.857 -71 125 C-71 125.66 -71 126.32 -71 127 C-69.285 125.969 -67.579 124.924 -65.875 123.875 C-64.924 123.295 -63.972 122.715 -62.992 122.117 C-60.529 120.374 -59.218 119.117 -57.342 116.891 C-54.939 114.465 -53.438 113.577 -50.014 113.411 C-48.521 113.453 -47.029 113.529 -45.539 113.633 C-44.748 113.663 -43.958 113.694 -43.143 113.726 C-40.635 113.83 -38.131 113.977 -35.625 114.125 C-33.918 114.203 -32.211 114.279 -30.504 114.352 C-26.334 114.535 -22.167 114.757 -18 115 C-17.34 113.35 -16.68 111.7 -16 110 C-15.34 110 -14.68 110 -14 110 C-13.163 112.791 -12.331 115.582 -11.5 118.375 C-11.142 119.566 -11.142 119.566 -10.777 120.781 C-10.439 121.922 -10.439 121.922 -10.094 123.086 C-9.884 123.788 -9.675 124.489 -9.459 125.212 C-9 127 -9 127 -9 129 C-8.01 129 -7.02 129 -6 129 C-5.918 127.701 -5.835 126.401 -5.75 125.062 C-4.992 117.222 -2.902 109.625 -1 102 C-0.34 102 0.32 102 1 102 C1.171 102.752 1.343 103.504 1.519 104.279 C2.296 107.667 3.085 111.052 3.875 114.438 C4.144 115.622 4.414 116.806 4.691 118.025 C4.956 119.15 5.22 120.275 5.492 121.434 C5.733 122.476 5.974 123.518 6.222 124.592 C6.479 125.386 6.736 126.181 7 127 C7.66 127.33 8.32 127.66 9 128 C9.121 127.325 9.242 126.649 9.367 125.953 C9.535 125.061 9.702 124.169 9.875 123.25 C10.037 122.368 10.2 121.487 10.367 120.578 C10.968 118.131 11.78 116.194 13 114 C13.66 114.33 14.32 114.66 15 115 C18.005 115.136 20.991 115.043 24 115 C24.99 119.455 24.99 119.455 26 124 C26.99 124 27.98 124 29 124 C29.193 122.998 29.387 121.997 29.586 120.965 C29.849 119.622 30.112 118.28 30.375 116.938 C30.501 116.281 30.628 115.624 30.758 114.947 C31.624 110.552 32.716 106.292 34 102 C34.66 102 35.32 102 36 102 C35.67 99.69 35.34 97.38 35 95 C34.34 95 33.68 95 33 95 C32.918 96.011 32.835 97.021 32.75 98.062 C31.928 104.849 29.839 111.431 28 118 C26.254 115.381 25.613 113.962 25 111 C24.443 111.144 23.886 111.289 23.312 111.438 C20.886 112.028 18.451 112.523 16 113 C15.34 112.01 14.68 111.02 14 110 C13.34 110 12.68 110 12 110 C11.01 112.97 10.02 115.94 9 119 C8.34 119 7.68 119 7 119 C6.16 115.251 5.329 111.501 4.5 107.75 C4.142 106.155 4.142 106.155 3.777 104.527 C3.552 103.503 3.326 102.478 3.094 101.422 C2.884 100.479 2.675 99.537 2.459 98.565 C2 96 2 96 2 92 C1.01 92 0.02 92 -1 92 C-4.276 106.444 -4.276 106.444 -7 121 C-7.66 121 -8.32 121 -9 121 C-9.507 118.939 -10.005 116.876 -10.5 114.812 C-10.778 113.664 -11.057 112.515 -11.344 111.332 C-11.915 108.432 -12.133 105.939 -12 103 C-12.66 103 -13.32 103 -14 103 C-14 102.34 -14 101.68 -14 101 C-14.66 101 -15.32 101 -16 101 C-16.205 101.699 -16.41 102.397 -16.621 103.117 C-16.891 104.027 -17.16 104.937 -17.438 105.875 C-17.704 106.78 -17.971 107.685 -18.246 108.617 C-19 111 -19 111 -20 113 C-29.9 113 -39.8 113 -50 113 C-50 112.01 -50 111.02 -50 110 C-48.367 108.626 -46.694 107.299 -45 106 C-38.464 98.846 -32.874 90.856 -27.345 82.915 C-26.364 81.518 -25.368 80.13 -24.364 78.749 C-19.9 72.543 -16.151 66.12 -12.562 59.375 C-12.022 58.371 -11.481 57.367 -10.924 56.332 C-9.61 53.891 -8.302 51.447 -7 49 C-6.34 49 -5.68 49 -5 49 C-4.412 47.144 -4.412 47.144 -3.812 45.25 C-2.167 40.282 -0.158 35.502 1.914 30.699 C2.816 28.458 3.496 26.356 4 24 C3.34 24 2.68 24 2 24 C2.242 22.954 2.242 22.954 2.488 21.887 C3.033 18.813 3.168 15.933 3.188 12.812 C3.202 11.767 3.216 10.722 3.23 9.645 C3.272 6.843 3.272 6.843 1 5 C-4.212 4.373 -9.297 4.492 -14 7 C-14 7.66 -14 8.32 -14 9 C-14.99 9 -15.98 9 -17 9 C-16.622 6.505 -16.291 5.276 -14.434 3.516 C-9.341 0.286 -6.034 -0.973 0 0 Z " fill="#FBFBFB" transform="translate(487,100)"/>
<path d="M0 0 C13.697 -0.729 23.403 1.235 34.137 10 C36.065 12.069 36.636 13.235 37 16 C38.307 15.312 38.307 15.312 39.641 14.609 C63.675 2.138 92.429 -1.432 118.634 6.831 C127.868 10.054 137.469 13.603 145 20 C145.713 20.581 146.426 21.163 147.16 21.762 C153.925 27.814 156.702 34.291 157.41 43.285 C157.86 52.885 156.642 60.42 152 69 C151.332 70.332 150.664 71.665 150 73 C150.736 72.942 151.472 72.884 152.23 72.824 C160.137 72.459 160.137 72.459 164.188 75 C166.62 79.025 166.393 81.361 166 86 C164.02 86.99 164.02 86.99 162 88 C162.035 87.06 162.035 87.06 162.07 86.102 C162.088 85.284 162.106 84.467 162.125 83.625 C162.16 82.407 162.16 82.407 162.195 81.164 C162.214 78.787 162.214 78.787 160 77 C157.419 76.855 154.951 76.813 152.375 76.875 C151.669 76.884 150.962 76.893 150.234 76.902 C148.489 76.926 146.745 76.962 145 77 C145.436 77.485 145.871 77.969 146.32 78.469 C148.237 80.626 150.122 82.808 152 85 C152.804 85.918 152.804 85.918 153.625 86.855 C163.73 99.197 166.049 115.559 165 131 C162.371 147.06 152.677 160.185 140 170 C117.649 185.81 86.505 187.209 60.25 182.875 C42.682 179.581 24.854 172.874 14 158 C13.474 157.303 12.948 156.605 12.406 155.887 C8.223 149.53 8.484 143.415 9 136 C8.112 136.327 7.224 136.655 6.309 136.992 C0.67 138.603 -5.126 138.211 -10.938 138.125 C-12.098 138.116 -13.259 138.107 -14.455 138.098 C-17.304 138.074 -20.152 138.041 -23 138 C-22.969 138.875 -22.938 139.749 -22.906 140.65 C-22.516 153.623 -24.867 165.196 -33.828 175 C-44.156 184.145 -58.289 186.008 -71.57 185.418 C-83.593 184.504 -93.543 179.336 -101.375 170.25 C-109.412 159.395 -108.368 147.95 -108 135 C-107.01 135 -106.02 135 -105 135 C-104.963 136.111 -104.925 137.222 -104.887 138.367 C-104.547 146.621 -104.098 154.24 -101 162 C-100.629 163.031 -100.257 164.062 -99.875 165.125 C-94.798 172.91 -87.763 177.321 -79 180 C-78.412 180.193 -77.824 180.387 -77.219 180.586 C-64.322 182.993 -50.028 181.236 -39 174 C-32.462 168.051 -28.525 161.385 -27.795 152.505 C-27.758 151.651 -27.721 150.797 -27.684 149.918 C-27.642 148.987 -27.6 148.055 -27.557 147.096 C-27.517 146.136 -27.478 145.176 -27.438 144.188 C-27.373 142.719 -27.373 142.719 -27.307 141.221 C-27.201 138.814 -27.099 136.407 -27 134 C-26.138 133.98 -25.277 133.96 -24.389 133.94 C-21.151 133.861 -17.914 133.775 -14.677 133.683 C-13.284 133.645 -11.89 133.61 -10.496 133.578 C-2.787 133.401 4.524 133.037 12 131 C12.026 131.978 12.052 132.957 12.078 133.965 C12.607 146.18 14.939 154.415 24 163 C40.12 177.52 64.101 180.176 84.812 180.188 C86.007 180.2 87.201 180.212 88.432 180.225 C108.998 180.258 129.988 175.297 145.332 160.836 C157.876 147.028 160.973 131.535 160.191 113.5 C159.251 101.191 152.662 89.475 143.684 81.117 C141.919 79.737 141.919 79.737 139 79.875 C137.515 80.432 137.515 80.432 136 81 C135.375 81.228 134.75 81.456 134.105 81.691 C130.356 83.009 130.356 83.009 128 86 C128.722 86.237 129.444 86.474 130.188 86.719 C138.071 90.31 143.599 98.009 147.16 105.676 C148.963 110.666 149.194 115.482 149.188 120.75 C149.186 121.814 149.186 121.814 149.185 122.9 C149.101 130.093 147.979 136.403 145 143 C144.34 143 143.68 143 143 143 C142.794 143.681 142.587 144.361 142.375 145.062 C137.808 154.82 128.505 160.304 118.805 164.324 C115.881 165.33 112.993 166.225 110 167 C109.095 167.264 109.095 167.264 108.173 167.533 C101.447 169.306 94.77 169.338 87.845 169.316 C85.833 169.313 83.823 169.336 81.811 169.361 C69.764 169.367 58.507 167.282 47.188 163.188 C46.472 162.93 45.756 162.672 45.019 162.406 C36.21 159.106 29.924 155.155 25 147 C22.815 140.444 23.271 133.046 26.016 126.715 C27.594 123.965 29.604 122.046 32 120 C32.615 119.474 33.23 118.948 33.863 118.406 C38.025 115.667 42.236 116.107 47 117 C49.68 118.074 52.206 119.389 54.75 120.75 C68.281 127.979 80.829 130.003 96 129 C96.66 128.67 97.32 128.34 98 128 C98 126.35 98 124.7 98 123 C90.828 118.163 83.024 117.015 74.656 115.324 C67.247 113.745 60.759 111.427 54 108 C54 107.34 54 106.68 54 106 C54.602 105.905 55.205 105.81 55.826 105.712 C76.25 102.446 95.676 97.991 114.477 89.156 C116.67 88.151 118.868 87.285 121.125 86.438 C122.074 85.963 123.023 85.489 124 85 C124.067 84.367 124.134 83.734 124.203 83.082 C124.466 82.395 124.729 81.708 125 81 C127.561 79.914 129.979 79.058 132.625 78.25 C141.633 75.186 145.946 71.127 150.375 62.688 C152.719 57.662 153.212 53.256 153.25 47.75 C153.271 47.011 153.291 46.273 153.312 45.512 C153.367 37.839 150.602 32.114 146 26 C137.89 18.252 128.664 14.053 118 11 C116.593 10.596 116.593 10.596 115.157 10.184 C106.483 7.929 98.092 7.521 89.188 7.625 C88.132 7.631 88.132 7.631 87.056 7.638 C69.084 7.768 52.742 9.784 38 21 C37.34 21 36.68 21 36 21 C35.505 19.969 35.01 18.938 34.5 17.875 C30.635 11.186 24.024 7.417 16.941 4.746 C11.074 3.258 5.028 3.161 -1 3 C-0.67 2.01 -0.34 1.02 0 0 Z " fill="#FBFBFB" transform="translate(509,109)"/>
<path d="M0 0 C4.297 4.297 5.868 7.583 5.875 13.688 C5.651 21.975 3.584 27.485 -2.188 33.438 C-5.941 36.978 -8.123 37.61 -13.312 37.688 C-14.339 37.713 -15.365 37.739 -16.422 37.766 C-20.088 37.383 -22.312 36.152 -25.562 34.438 C-36.74 30.23 -47.642 28.373 -59.562 29.438 C-60.553 29.933 -60.553 29.933 -61.562 30.438 C-61.532 32.853 -61.532 32.853 -60.562 35.438 C-56.251 38.05 -52.184 39.077 -47.25 39.938 C-41.473 41.013 -36.057 42.358 -30.562 44.438 C-29.195 44.946 -27.828 45.453 -26.461 45.961 C-22.49 47.44 -18.525 48.935 -14.562 50.438 C-16.129 53.57 -19.235 54.002 -22.375 55.125 C-23.082 55.383 -23.789 55.64 -24.518 55.906 C-26.054 56.463 -27.592 57.017 -29.131 57.567 C-31.595 58.449 -34.054 59.347 -36.512 60.246 C-50.822 65.428 -64.66 69.527 -79.889 70.755 C-81.787 70.919 -83.677 71.17 -85.562 71.438 C-85.893 72.097 -86.222 72.757 -86.562 73.438 C-92.503 73.438 -98.442 73.438 -104.562 73.438 C-104.562 73.108 -104.562 72.778 -104.562 72.438 C-99.942 72.438 -95.322 72.438 -90.562 72.438 C-90.562 71.778 -90.562 71.118 -90.562 70.438 C-91.222 70.438 -91.883 70.438 -92.562 70.438 C-92.562 69.778 -92.562 69.118 -92.562 68.438 C-94.212 68.108 -95.862 67.778 -97.562 67.438 C-97.562 66.778 -97.562 66.118 -97.562 65.438 C-98.161 65.189 -98.759 64.94 -99.375 64.684 C-105.377 61.265 -108.758 52.967 -110.867 46.656 C-113.166 36.015 -112.488 25.212 -107.562 15.438 C-107.15 14.588 -106.737 13.739 -106.312 12.863 C-99.21 -0.313 -86.478 -7.946 -72.446 -12.205 C-49.342 -18.231 -19.159 -15.043 0 0 Z " fill="#FBFBFB" transform="translate(645.5625,141.5625)"/>
<path d="M0 0 C1.141 0 2.282 0 3.457 0 C4.678 0.011 5.899 0.021 7.157 0.032 C8.415 0.035 9.673 0.037 10.969 0.04 C14.302 0.05 17.634 0.068 20.966 0.09 C24.372 0.11 27.777 0.119 31.182 0.129 C37.855 0.151 44.527 0.185 51.2 0.227 C50.577 4.257 49.802 7.558 48.048 11.247 C47.606 12.178 47.165 13.109 46.71 14.068 C46.232 15.049 45.755 16.029 45.262 17.04 C44.519 18.574 44.519 18.574 43.76 20.14 C33.927 40.17 21.863 59.364 7.2 76.227 C6.345 77.273 5.49 78.32 4.637 79.368 C3.764 80.405 2.889 81.442 2.012 82.477 C1.235 83.41 0.458 84.344 -0.343 85.305 C-2.8 87.227 -2.8 87.227 -5.878 87.11 C-9.34 86.064 -12.53 84.773 -15.8 83.227 C-17.124 82.622 -17.124 82.622 -18.474 82.004 C-20.8 80.227 -20.8 80.227 -21.435 77.504 C-21.439 76.404 -21.443 75.304 -21.447 74.17 C-21.463 72.921 -21.479 71.673 -21.495 70.386 C-21.486 69.019 -21.476 67.652 -21.464 66.286 C-21.467 64.879 -21.472 63.472 -21.479 62.066 C-21.486 59.112 -21.475 56.16 -21.452 53.206 C-21.424 49.446 -21.44 45.687 -21.47 41.927 C-21.488 39.017 -21.482 36.108 -21.469 33.199 C-21.466 31.814 -21.47 30.43 -21.482 29.045 C-21.539 20.355 -20.817 13.512 -15.8 6.227 C-11.149 1.576 -6.508 -0.029 0 0 Z " fill="#FBFBFA" transform="translate(436.800048828125,123.77294921875)"/>
<path d="M0 0 C3.01 1.776 5.411 3.823 7 7 C7.123 8.935 7.176 10.874 7.188 12.812 C7.202 13.85 7.216 14.888 7.23 15.957 C6.996 19.056 6.209 21.166 5 24 C5.796 23.979 6.592 23.958 7.412 23.937 C11.066 23.853 14.72 23.801 18.375 23.75 C19.627 23.716 20.878 23.683 22.168 23.648 C29.835 23.568 36.258 24.105 43 28 C45.438 30.438 45.438 30.438 47 33 C47.781 34.071 47.781 34.071 48.578 35.164 C50.396 38.79 50.404 41.978 50.312 45.938 C50.316 46.628 50.319 47.318 50.322 48.029 C50.259 54.127 49.236 59.092 45.188 63.75 C44.707 64.322 44.226 64.895 43.73 65.484 C40.098 68.666 36.272 69.25 31.567 69.227 C29.976 69.227 29.976 69.227 28.353 69.227 C26.653 69.211 26.653 69.211 24.918 69.195 C23.749 69.192 22.579 69.19 21.375 69.187 C17.645 69.176 13.917 69.15 10.188 69.125 C7.657 69.115 5.126 69.106 2.596 69.098 C-3.603 69.076 -9.801 69.041 -16 69 C-16 74.61 -16 80.22 -16 86 C-2.14 86 11.72 86 26 86 C26 86.33 26 86.66 26 87 C11.81 87 -2.38 87 -17 87 C-17.33 82.38 -17.66 77.76 -18 73 C-18.99 73.495 -18.99 73.495 -20 74 C-18.213 68.966 -15.553 64.448 -12.938 59.812 C-12.03 58.194 -11.122 56.576 -10.215 54.957 C-9.814 54.245 -9.413 53.533 -9 52.8 C-8.305 51.549 -7.64 50.28 -7 49 C-6.34 49 -5.68 49 -5 49 C-4.608 47.762 -4.216 46.525 -3.812 45.25 C-2.167 40.282 -0.158 35.502 1.914 30.699 C2.816 28.458 3.496 26.356 4 24 C3.34 24 2.68 24 2 24 C2.242 22.954 2.242 22.954 2.488 21.887 C3.033 18.813 3.168 15.933 3.188 12.812 C3.202 11.767 3.216 10.722 3.23 9.645 C3.272 6.843 3.272 6.843 1 5 C-4.212 4.373 -9.297 4.492 -14 7 C-14 7.66 -14 8.32 -14 9 C-14.99 9 -15.98 9 -17 9 C-16.622 6.505 -16.291 5.276 -14.434 3.516 C-9.341 0.286 -6.034 -0.973 0 0 Z " fill="#F8F8F8" transform="translate(487,100)"/>
<path d="M0 0 C13.697 -0.729 23.403 1.235 34.137 10 C36.065 12.069 36.636 13.235 37 16 C38.307 15.312 38.307 15.312 39.641 14.609 C63.675 2.138 92.429 -1.432 118.634 6.831 C127.868 10.054 137.469 13.603 145 20 C145.713 20.581 146.426 21.163 147.16 21.762 C153.925 27.814 156.702 34.291 157.41 43.285 C157.86 52.885 156.642 60.42 152 69 C151.332 70.332 150.664 71.665 150 73 C150.736 72.942 151.472 72.884 152.23 72.824 C160.137 72.459 160.137 72.459 164.188 75 C166.62 79.025 166.393 81.361 166 86 C164.02 86.99 164.02 86.99 162 88 C162.035 87.06 162.035 87.06 162.07 86.102 C162.088 85.284 162.106 84.467 162.125 83.625 C162.16 82.407 162.16 82.407 162.195 81.164 C162.214 78.787 162.214 78.787 160 77 C157.419 76.855 154.951 76.813 152.375 76.875 C151.669 76.884 150.962 76.893 150.234 76.902 C148.489 76.926 146.745 76.962 145 77 C145.436 77.485 145.871 77.969 146.32 78.469 C148.237 80.626 150.122 82.808 152 85 C152.804 85.918 152.804 85.918 153.625 86.855 C163.73 99.197 166.049 115.559 165 131 C162.371 147.06 152.677 160.185 140 170 C117.649 185.81 86.505 187.209 60.25 182.875 C42.682 179.581 24.854 172.874 14 158 C13.474 157.303 12.948 156.605 12.406 155.887 C8.223 149.53 8.484 143.415 9 136 C8.112 136.327 7.224 136.655 6.309 136.992 C0.67 138.603 -5.126 138.211 -10.938 138.125 C-12.098 138.116 -13.259 138.107 -14.455 138.098 C-17.304 138.074 -20.152 138.041 -23 138 C-22.969 138.875 -22.938 139.749 -22.906 140.65 C-22.516 153.623 -24.867 165.196 -33.828 175 C-44.156 184.145 -58.289 186.008 -71.57 185.418 C-83.593 184.504 -93.543 179.336 -101.375 170.25 C-109.412 159.395 -108.368 147.95 -108 135 C-107.01 135 -106.02 135 -105 135 C-104.963 136.111 -104.925 137.222 -104.887 138.367 C-104.547 146.621 -104.098 154.24 -101 162 C-100.629 163.031 -100.257 164.062 -99.875 165.125 C-94.798 172.91 -87.763 177.321 -79 180 C-78.412 180.193 -77.824 180.387 -77.219 180.586 C-64.322 182.993 -50.028 181.236 -39 174 C-32.462 168.051 -28.525 161.385 -27.795 152.505 C-27.758 151.651 -27.721 150.797 -27.684 149.918 C-27.642 148.987 -27.6 148.055 -27.557 147.096 C-27.517 146.136 -27.478 145.176 -27.438 144.188 C-27.373 142.719 -27.373 142.719 -27.307 141.221 C-27.201 138.814 -27.099 136.407 -27 134 C-26.138 133.98 -25.277 133.96 -24.389 133.94 C-21.151 133.861 -17.914 133.775 -14.677 133.683 C-13.284 133.645 -11.89 133.61 -10.496 133.578 C-2.787 133.401 4.524 133.037 12 131 C12.026 131.978 12.052 132.957 12.078 133.965 C12.607 146.18 14.939 154.415 24 163 C40.12 177.52 64.101 180.176 84.812 180.188 C86.007 180.2 87.201 180.212 88.432 180.225 C108.998 180.258 129.988 175.297 145.332 160.836 C157.876 147.028 160.973 131.535 160.191 113.5 C159.252 101.206 152.671 89.453 143.68 81.121 C141.928 79.749 141.928 79.749 139.062 79.812 C135.83 81.066 132.84 82.537 129.832 84.258 C128 85 128 85 125 84 C125 83.01 125 82.02 125 81 C126.074 80.66 127.148 80.319 128.254 79.969 C138.937 76.402 145.007 72.916 150.375 62.688 C152.719 57.662 153.212 53.256 153.25 47.75 C153.271 47.011 153.291 46.273 153.312 45.512 C153.367 37.839 150.602 32.114 146 26 C137.89 18.252 128.664 14.053 118 11 C116.593 10.596 116.593 10.596 115.157 10.184 C106.483 7.929 98.092 7.521 89.188 7.625 C88.132 7.631 88.132 7.631 87.056 7.638 C69.084 7.768 52.742 9.784 38 21 C37.34 21 36.68 21 36 21 C35.505 19.969 35.01 18.938 34.5 17.875 C30.635 11.186 24.024 7.417 16.941 4.746 C11.074 3.258 5.028 3.161 -1 3 C-0.67 2.01 -0.34 1.02 0 0 Z " fill="#E0E0E0" transform="translate(509,109)"/>
<path d="M0 0 C0 4.95 0 9.9 0 15 C1.332 14.99 2.664 14.979 4.036 14.968 C8.989 14.932 13.943 14.909 18.896 14.89 C21.038 14.88 23.18 14.866 25.321 14.849 C28.404 14.825 31.487 14.813 34.57 14.805 C35.524 14.794 36.477 14.784 37.459 14.773 C42.427 14.773 46.311 15.173 51 17 C51.99 17 52.98 17 54 17 C54 19.64 54 22.28 54 25 C53.34 25 52.68 25 52 25 C52 24.34 52 23.68 52 23 C51.34 23 50.68 23 50 23 C49.918 24.011 49.835 25.021 49.75 26.062 C48.928 32.849 46.839 39.431 45 46 C43.254 43.381 42.613 41.962 42 39 C41.443 39.144 40.886 39.289 40.312 39.438 C37.886 40.028 35.451 40.523 33 41 C32.34 40.01 31.68 39.02 31 38 C30.34 38 29.68 38 29 38 C28.01 40.97 27.02 43.94 26 47 C25.34 47 24.68 47 24 47 C23.16 43.251 22.329 39.501 21.5 35.75 C21.262 34.687 21.023 33.623 20.777 32.527 C20.439 30.99 20.439 30.99 20.094 29.422 C19.884 28.479 19.675 27.537 19.459 26.565 C19 24 19 24 19 20 C18.01 20 17.02 20 16 20 C12.724 34.444 12.724 34.444 10 49 C9.34 49 8.68 49 8 49 C7.493 46.939 6.995 44.876 6.5 42.812 C6.222 41.664 5.943 40.515 5.656 39.332 C5.085 36.432 4.867 33.939 5 31 C4.34 31 3.68 31 3 31 C3 30.34 3 29.68 3 29 C2.34 29 1.68 29 1 29 C0.795 29.699 0.59 30.397 0.379 31.117 C0.109 32.027 -0.16 32.937 -0.438 33.875 C-0.704 34.78 -0.971 35.685 -1.246 36.617 C-2 39 -2 39 -3 41 C-12.9 41 -22.8 41 -33 41 C-33 40.01 -33 39.02 -33 38 C-31.367 36.626 -29.694 35.299 -28 34 C-21.855 27.274 -16.593 19.8 -11.359 12.359 C-10.782 11.54 -10.782 11.54 -10.193 10.705 C-9.354 9.506 -8.523 8.301 -7.697 7.092 C-2.791 0 -2.791 0 0 0 Z " fill="#F7F7F7" transform="translate(470,172)"/>
<path d="M0 0 C0.33 0 0.66 0 1 0 C1 3.63 1 7.26 1 11 C1.99 11.495 1.99 11.495 3 12 C2.546 12.846 2.092 13.691 1.625 14.562 C-1.31 20.772 -2.39 26.468 -2.375 33.25 C-2.373 33.993 -2.372 34.736 -2.37 35.501 C-2.143 45.781 1.434 54.434 8.75 61.75 C9.493 62.493 10.235 63.235 11 64 C11 64.66 11 65.32 11 66 C12.65 66.33 14.3 66.66 16 67 C16 67.66 16 68.32 16 69 C16.66 69.33 17.32 69.66 18 70 C13.05 70 8.1 70 3 70 C2.34 68.68 1.68 67.36 1 66 C0.01 66 -0.98 66 -2 66 C-2.99 69.96 -3.98 73.92 -5 78 C-5.66 78 -6.32 78 -7 78 C-8.893 71.033 -10.432 64.044 -11.688 56.938 C-11.819 56.2 -11.95 55.462 -12.085 54.701 C-12.592 51.761 -13 48.99 -13 46 C-14.052 46.34 -14.052 46.34 -15.125 46.688 C-18 47 -18 47 -20.569 45.552 C-25.072 43.515 -28.888 43.523 -33.773 43.488 C-35.159 43.461 -35.159 43.461 -36.573 43.434 C-39.507 43.38 -42.441 43.346 -45.375 43.312 C-47.371 43.279 -49.367 43.245 -51.363 43.209 C-56.242 43.124 -61.121 43.057 -66 43 C-66 37.39 -66 31.78 -66 26 C-63.639 25.978 -63.639 25.978 -61.23 25.956 C-55.382 25.898 -49.534 25.821 -43.686 25.738 C-41.156 25.704 -38.626 25.676 -36.097 25.654 C-32.457 25.62 -28.819 25.568 -25.18 25.512 C-24.051 25.505 -22.923 25.499 -21.76 25.492 C-14.373 25.354 -9.723 24.597 -4.207 19.336 C-1.543 15.309 -1.042 12.345 -0.688 7.625 C-0.578 6.521 -0.578 6.521 -0.467 5.395 C-0.292 3.598 -0.143 1.799 0 0 Z " fill="#070707" transform="translate(537,143)"/>
<path d="M0 0 C0 0.99 0 1.98 0 3 C-0.99 3 -1.98 3 -3 3 C-2.01 2.01 -1.02 1.02 0 0 Z M32 3 C32.99 3 33.98 3 35 3 C35.842 6.56 36.672 10.124 37.5 13.688 C37.858 15.199 37.858 15.199 38.223 16.74 C38.448 17.717 38.674 18.693 38.906 19.699 C39.116 20.595 39.325 21.49 39.541 22.413 C40 25 40.083 27.379 40 30 C40.66 30 41.32 30 42 30 C42.99 25.545 42.99 25.545 44 21 C45.32 21 46.64 21 48 21 C48.495 21.99 48.495 21.99 49 23 C52.024 22.412 55.018 21.773 58 21 C58.99 23.475 58.99 23.475 60 26 C60.33 26 60.66 26 61 26 C61.416 24.337 61.416 24.337 61.84 22.641 C63.92 14.32 63.92 14.32 66 6 C66.66 6 67.32 6 68 6 C69.858 9.135 70.201 11.375 70 15 C69.505 14.01 69.505 14.01 69 13 C68.34 13 67.68 13 67 13 C66.89 13.75 66.781 14.5 66.668 15.273 C65.617 22.057 64.162 28.485 62 35 C61.01 35 60.02 35 59 35 C57.502 31.629 57 29.796 57 26 C56.374 26.084 55.747 26.168 55.102 26.254 C54.284 26.356 53.467 26.458 52.625 26.562 C51.813 26.667 51.001 26.771 50.164 26.879 C48 27 48 27 46 26 C44.68 30.29 43.36 34.58 42 39 C40.515 38.505 40.515 38.505 39 38 C38.121 35.848 38.121 35.848 37.438 33.062 C37.193 32.072 36.948 31.083 36.695 30.062 C34 18.191 34 18.191 34 13 C33.34 13 32.68 13 32 13 C31.878 14.288 31.755 15.576 31.629 16.902 C31.076 21.881 30.073 26.688 28.938 31.562 C28.751 32.38 28.565 33.198 28.373 34.041 C27.92 36.028 27.461 38.014 27 40 C26.01 40 25.02 40 24 40 C23.161 37.397 22.329 34.793 21.5 32.188 C21.262 31.45 21.023 30.712 20.777 29.951 C19.801 26.867 19 24.255 19 21 C17.292 22.634 16.065 23.869 15 26 C13.957 25.958 12.913 25.916 11.838 25.873 C7.931 25.727 4.023 25.636 0.114 25.561 C-1.571 25.521 -3.256 25.466 -4.94 25.396 C-16.54 24.641 -16.54 24.641 -26.445 29.875 C-27.649 31.234 -28.836 32.607 -30 34 C-35.037 38 -35.037 38 -38 38 C-38 37.34 -38 36.68 -38 36 C-38.66 35.67 -39.32 35.34 -40 35 C-39.67 29.39 -39.34 23.78 -39 18 C-37.68 17.34 -36.36 16.68 -35 16 C-32.625 17.25 -32.625 17.25 -30 19 C-25.848 20.73 -23.29 21.468 -19 20 C-16.977 18.103 -15.222 16.284 -13.438 14.188 C-12.499 13.118 -11.561 12.049 -10.621 10.98 C-9.756 9.997 -8.891 9.013 -8 8 C-6.68 6.654 -5.352 5.314 -4 4 C-3.505 5.485 -3.505 5.485 -3 7 C-3.956 8.626 -3.956 8.626 -5.457 10.355 C-5.993 10.977 -6.528 11.599 -7.08 12.24 C-7.652 12.883 -8.223 13.525 -8.812 14.188 C-9.653 15.169 -9.653 15.169 -10.51 16.17 C-13.603 19.714 -13.603 19.714 -15 21 C-15.66 21 -16.32 21 -17 21 C-17 21.99 -17 22.98 -17 24 C-7.1 24 2.8 24 13 24 C13.99 20.7 14.98 17.4 16 14 C16.33 13.34 16.66 12.68 17 12 C17.66 12 18.32 12 19 12 C19 12.66 19 13.32 19 14 C19.66 14 20.32 14 21 14 C21.505 16.249 22.004 18.499 22.5 20.75 C22.778 22.003 23.057 23.256 23.344 24.547 C24 28 24 28 24 32 C24.66 32 25.32 32 26 32 C26.026 31.392 26.052 30.783 26.078 30.156 C26.644 21.411 28.03 10.94 32 3 Z " fill="#242424" transform="translate(454,189)"/>
<path d="M0 0 C0.33 0 0.66 0 1 0 C1.193 1.123 1.387 2.246 1.586 3.402 C3.212 12.923 3.212 12.923 5.188 22.375 C6 26 6 26 6 29 C6.66 29 7.32 29 8 29 C8.66 25.04 9.32 21.08 10 17 C11.32 16.67 12.64 16.34 14 16 C14.99 18.475 14.99 18.475 16 21 C17.036 20.988 18.073 20.977 19.141 20.965 C20.51 20.955 21.88 20.946 23.25 20.938 C23.932 20.929 24.614 20.921 25.316 20.912 C32.151 20.879 32.151 20.879 35 22 C35.495 22.99 35.495 22.99 36 24 C32.563 24.058 29.125 24.094 25.688 24.125 C24.711 24.142 23.735 24.159 22.729 24.176 C21.791 24.182 20.853 24.189 19.887 24.195 C19.023 24.206 18.159 24.216 17.268 24.227 C15 24 15 24 12 22 C11.927 22.853 11.927 22.853 11.852 23.723 C11.369 28.711 10.524 33.226 9 38 C7.68 38 6.36 38 5 38 C4.01 33.71 3.02 29.42 2 25 C0.732 27.351 0.732 27.351 -0.562 29.75 C-3.085 34.427 -6.067 37.07 -11 39 C-14.377 39.513 -17.681 39.468 -21.09 39.391 C-22.034 39.385 -22.979 39.379 -23.952 39.373 C-26.948 39.351 -29.942 39.301 -32.938 39.25 C-34.977 39.23 -37.017 39.212 -39.057 39.195 C-44.038 39.151 -49.019 39.082 -54 39 C-54 38.67 -54 38.34 -54 38 C-48.555 37.505 -48.555 37.505 -43 37 C-42.918 35.701 -42.835 34.401 -42.75 33.062 C-41.992 25.222 -39.902 17.625 -38 10 C-37.34 10 -36.68 10 -36 10 C-35.743 11.128 -35.743 11.128 -35.481 12.279 C-34.704 15.667 -33.915 19.052 -33.125 22.438 C-32.856 23.622 -32.586 24.806 -32.309 26.025 C-32.044 27.15 -31.78 28.275 -31.508 29.434 C-31.146 30.997 -31.146 30.997 -30.778 32.592 C-30.521 33.386 -30.264 34.181 -30 35 C-29.34 35.33 -28.68 35.66 -28 36 C-27.879 35.325 -27.758 34.649 -27.633 33.953 C-27.465 33.061 -27.298 32.169 -27.125 31.25 C-26.963 30.368 -26.8 29.487 -26.633 28.578 C-26.032 26.131 -25.22 24.194 -24 22 C-23.34 22.33 -22.68 22.66 -22 23 C-18.995 23.136 -16.009 23.043 -13 23 C-12.34 25.97 -11.68 28.94 -11 32 C-10.01 32 -9.02 32 -8 32 C-7.807 30.998 -7.613 29.997 -7.414 28.965 C-7.151 27.622 -6.888 26.28 -6.625 24.938 C-6.499 24.281 -6.372 23.624 -6.242 22.947 C-5.376 18.552 -4.284 14.292 -3 10 C-2.34 10 -1.68 10 -1 10 C-0.67 6.7 -0.34 3.4 0 0 Z " fill="#EEEEEE" transform="translate(524,192)"/>
<path d="M0 0 C1.361 0.01 2.721 0.019 4.082 0.027 C7.388 0.051 10.694 0.084 14 0.125 C14 1.445 14 2.765 14 4.125 C13.144 4.14 12.287 4.154 11.405 4.169 C8.18 4.231 4.956 4.305 1.732 4.387 C0.345 4.42 -1.041 4.449 -2.428 4.471 C-14.293 4.673 -25.166 5.389 -34 14.125 C-39.28 20.735 -41.252 27.688 -41.24 36.143 C-41.242 36.805 -41.244 37.468 -41.246 38.151 C-41.249 39.577 -41.248 41.003 -41.244 42.43 C-41.238 44.692 -41.247 46.954 -41.261 49.217 C-41.298 55.645 -41.317 62.073 -41.305 68.501 C-41.3 72.446 -41.318 76.389 -41.351 80.333 C-41.359 81.829 -41.358 83.325 -41.347 84.82 C-41.25 98.98 -41.25 98.98 -47 105.125 C-48.942 109.564 -49.284 113.295 -49 118.125 C-47.477 119.648 -46.121 119.331 -44 119.375 C-38.931 119.342 -34.676 117.982 -30 116.125 C-28.467 119.191 -28.879 122.396 -28.902 125.758 C-28.904 126.51 -28.905 127.261 -28.907 128.036 C-28.912 130.441 -28.925 132.845 -28.938 135.25 C-28.943 136.879 -28.947 138.508 -28.951 140.137 C-28.962 144.133 -28.979 148.129 -29 152.125 C-29.33 152.125 -29.66 152.125 -30 152.125 C-30 141.235 -30 130.345 -30 119.125 C-32.64 120.445 -35.28 121.765 -38 123.125 C-42.795 123.961 -47.274 123.968 -51.688 121.812 C-53.93 117.22 -53.923 113.107 -53 108.125 C-51.431 105.663 -51.431 105.663 -49.509 103.186 C-45.001 96.377 -45.043 90.158 -45.168 82.219 C-45.164 80.803 -45.156 79.388 -45.145 77.973 C-45.124 74.275 -45.143 70.578 -45.172 66.879 C-45.212 60.964 -45.189 55.048 -45.169 49.132 C-45.168 47.088 -45.182 45.044 -45.2 42.999 C-45.229 29.475 -44.067 19.483 -34.688 9.375 C-24.816 -0.005 -12.938 -0.165 0 0 Z " fill="#D8D8D8" transform="translate(446,108.875)"/>
<path d="M0 0 C9.9 0 19.8 0 30 0 C27 3 27 3 24.456 3.341 C23.467 3.325 22.477 3.309 21.457 3.293 C19.847 3.278 19.847 3.278 18.205 3.264 C17.086 3.239 15.966 3.213 14.812 3.188 C13.681 3.174 12.55 3.16 11.385 3.146 C8.589 3.111 5.795 3.062 3 3 C3.058 4.305 3.116 5.609 3.176 6.953 C3.556 19.149 2.958 28.931 -4.812 38.938 C-13.394 47.843 -25.071 51.04 -37.156 51.475 C-49.438 51.6 -60.479 49.247 -70 41 C-79.353 31.516 -81.215 23.303 -81.188 10.375 C-81.15 7.249 -81.089 4.125 -81 1 C-80.01 1 -79.02 1 -78 1 C-77.963 2.111 -77.925 3.222 -77.887 4.367 C-77.547 12.621 -77.098 20.24 -74 28 C-73.629 29.031 -73.257 30.062 -72.875 31.125 C-67.798 38.91 -60.763 43.321 -52 46 C-51.412 46.193 -50.824 46.387 -50.219 46.586 C-37.322 48.993 -23.028 47.236 -12 40 C-5.462 34.051 -1.525 27.385 -0.795 18.505 C-0.758 17.651 -0.721 16.797 -0.684 15.918 C-0.645 15.078 -0.607 14.238 -0.568 13.372 C-0.525 12.321 -0.482 11.27 -0.438 10.188 C-0.293 6.826 -0.149 3.464 0 0 Z " fill="#DCDCDB" transform="translate(482,243)"/>
<path d="M0 0 C13.697 -0.729 23.403 1.235 34.137 10 C36.065 12.069 36.636 13.235 37 16 C37.871 15.541 38.743 15.082 39.641 14.609 C63.67 2.141 92.151 -1.304 118.387 6.731 C123.004 8.302 127.514 10.088 132 12 C132 13.32 132 14.64 132 16 C131.176 15.723 130.353 15.446 129.504 15.16 C125.658 13.887 121.802 12.653 117.938 11.438 C117.243 11.216 116.549 10.995 115.834 10.768 C107.028 7.999 98.836 7.758 89.688 7.75 C88.964 7.749 88.241 7.749 87.495 7.748 C69.328 7.775 52.924 9.645 38 21 C37.34 21 36.68 21 36 21 C35.505 19.969 35.01 18.938 34.5 17.875 C30.635 11.186 24.024 7.417 16.941 4.746 C11.074 3.258 5.028 3.161 -1 3 C-0.67 2.01 -0.34 1.02 0 0 Z " fill="#DBDBDA" transform="translate(509,109)"/>
<path d="M0 0 C0 0.99 0 1.98 0 3 C-0.99 3 -1.98 3 -3 3 C-2.01 2.01 -1.02 1.02 0 0 Z M-4 4 C-3.505 5.485 -3.505 5.485 -3 7 C-3.956 8.626 -3.956 8.626 -5.457 10.355 C-5.993 10.977 -6.528 11.599 -7.08 12.24 C-7.652 12.883 -8.223 13.525 -8.812 14.188 C-9.653 15.169 -9.653 15.169 -10.51 16.17 C-13.603 19.714 -13.603 19.714 -15 21 C-15.66 21 -16.32 21 -17 21 C-17 21.99 -17 22.98 -17 24 C-7.1 24 2.8 24 13 24 C13.99 20.7 14.98 17.4 16 14 C16.33 13.34 16.66 12.68 17 12 C17.66 12 18.32 12 19 12 C19.495 15.465 19.495 15.465 20 19 C19.01 19 18.02 19 17 19 C16.856 19.784 16.711 20.567 16.562 21.375 C16 24 16 24 15 26 C13.957 25.958 12.913 25.916 11.838 25.873 C7.931 25.727 4.023 25.636 0.114 25.561 C-1.571 25.521 -3.256 25.466 -4.94 25.396 C-16.54 24.641 -16.54 24.641 -26.445 29.875 C-27.649 31.234 -28.836 32.607 -30 34 C-35.037 38 -35.037 38 -38 38 C-38 37.34 -38 36.68 -38 36 C-38.66 35.67 -39.32 35.34 -40 35 C-39.67 29.39 -39.34 23.78 -39 18 C-37.68 17.34 -36.36 16.68 -35 16 C-32.625 17.25 -32.625 17.25 -30 19 C-25.848 20.73 -23.29 21.468 -19 20 C-16.977 18.103 -15.222 16.284 -13.438 14.188 C-12.499 13.118 -11.561 12.049 -10.621 10.98 C-9.756 9.997 -8.891 9.013 -8 8 C-6.68 6.654 -5.352 5.314 -4 4 Z " fill="#242524" transform="translate(454,189)"/>
<path d="M0 0 C0.026 0.978 0.052 1.957 0.078 2.965 C0.607 15.18 2.939 23.415 12 32 C23.087 41.987 40.356 47.224 55.062 48.625 C57.012 48.811 57.012 48.811 59 49 C56.805 50.968 55.551 51.959 52.568 52.182 C45.973 51.433 39.902 50.093 33.625 47.938 C32.716 47.627 31.807 47.317 30.87 46.998 C19.18 42.839 9.437 37.191 2 27 C1.474 26.303 0.948 25.605 0.406 24.887 C-3.777 18.53 -3.516 12.415 -3 5 C-3.888 5.327 -4.776 5.655 -5.691 5.992 C-11.33 7.603 -17.126 7.211 -22.938 7.125 C-24.098 7.116 -25.259 7.107 -26.455 7.098 C-29.303 7.074 -32.152 7.038 -35 7 C-35 11.29 -35 15.58 -35 20 C-35.33 20 -35.66 20 -36 20 C-36 15.38 -36 10.76 -36 6 C-34.302 5.963 -32.605 5.925 -30.855 5.887 C-28.633 5.821 -26.41 5.755 -24.188 5.688 C-23.068 5.665 -21.948 5.642 -20.795 5.619 C-19.722 5.584 -18.649 5.548 -17.543 5.512 C-16.553 5.486 -15.563 5.459 -14.544 5.432 C-11.592 4.931 -10.94 4.174 -9 2 C-3 0 -3 0 0 0 Z " fill="#D7D7D7" transform="translate(521,240)"/>
<path d="M0 0 C0.99 0.66 1.98 1.32 3 2 C3.394 4.623 3.394 4.623 3.42 7.991 C3.436 9.25 3.452 10.508 3.468 11.805 C3.469 13.186 3.47 14.568 3.469 15.949 C3.476 17.364 3.484 18.78 3.492 20.195 C3.505 23.167 3.507 26.138 3.501 29.11 C3.495 32.906 3.526 36.7 3.566 40.495 C3.592 43.421 3.595 46.348 3.591 49.274 C3.593 50.672 3.602 52.07 3.62 53.468 C3.714 61.668 3.646 66.845 -2 73 C-3.942 77.439 -4.284 81.17 -4 86 C-2.477 87.523 -1.121 87.206 1 87.25 C6.069 87.217 10.324 85.857 15 84 C16.533 87.066 16.121 90.271 16.098 93.633 C16.096 94.385 16.095 95.136 16.093 95.911 C16.088 98.316 16.075 100.72 16.062 103.125 C16.057 104.754 16.053 106.383 16.049 108.012 C16.038 112.008 16.021 116.004 16 120 C15.67 120 15.34 120 15 120 C15 109.11 15 98.22 15 87 C12.36 88.32 9.72 89.64 7 91 C2.205 91.836 -2.274 91.843 -6.688 89.688 C-8.93 85.095 -8.923 80.982 -8 76 C-6.433 73.552 -6.433 73.552 -4.513 71.085 C0.056 64.184 -0.009 57.755 -0.098 49.707 C-0.088 48.265 -0.076 46.824 -0.06 45.382 C-0.028 41.625 -0.038 37.87 -0.056 34.113 C-0.067 30.265 -0.039 26.417 -0.014 22.568 C0.029 15.045 0.029 7.523 0 0 Z " fill="#D8D8D8" transform="translate(401,141)"/>
<path d="M0 0 C0.495 0.99 0.495 0.99 1 2 C-10.82 18.419 -26.927 28.615 -47 32 C-54.943 33.107 -62.8 33.183 -70.812 33.188 C-72.122 33.2 -73.431 33.212 -74.779 33.225 C-76.662 33.228 -76.662 33.228 -78.582 33.23 C-79.719 33.235 -80.855 33.239 -82.027 33.243 C-84.912 33.007 -86.562 32.503 -89 31 C-89 30.67 -89 30.34 -89 30 C-88.063 29.98 -87.126 29.96 -86.161 29.94 C-82.627 29.861 -79.094 29.774 -75.56 29.683 C-74.042 29.645 -72.523 29.61 -71.004 29.578 C-47.995 29.092 -24.684 25.32 -8 8 C-6.648 6.348 -5.31 4.685 -4 3 C-1.75 1.188 -1.75 1.188 0 0 Z " fill="#DEDEDE" transform="translate(664,260)"/>
<path d="M0 0 C0.495 0.99 0.495 0.99 1 2 C1.66 2 2.32 2 3 2 C2.071 10.827 -2.369 19.005 -6 27 C-6.66 27 -7.32 27 -8 27 C-8.209 27.772 -8.418 28.544 -8.633 29.34 C-10.522 34.397 -13.175 38.898 -15.875 43.562 C-16.405 44.495 -16.935 45.428 -17.48 46.389 C-20.06 50.879 -22.653 55.03 -26 59 C-27.516 61.316 -28.981 63.657 -30.438 66.012 C-32.161 68.205 -33.466 68.916 -36 70 C-37.485 70.99 -37.485 70.99 -39 72 C-37.274 68.041 -34.656 64.79 -32.062 61.375 C-18.384 42.998 -8.478 23.196 0 2 C-7.59 2 -15.18 2 -23 2 C-23 1.67 -23 1.34 -23 1 C-15.41 0.67 -7.82 0.34 0 0 Z M-37 71 C-36.01 71.495 -36.01 71.495 -35 72 C-35.99 72.495 -35.99 72.495 -37 73 C-37 72.34 -37 71.68 -37 71 Z " fill="#232423" transform="translate(488,122)"/>
<path d="M0 0 C2.31 0.33 4.62 0.66 7 1 C7.495 2.485 7.495 2.485 8 4 C4.183 6.477 0.425 8.032 -3.875 9.5 C-8.684 11.149 -13.33 12.993 -18 15 C-32.078 20.265 -46.611 24.237 -61.691 24.727 C-62.453 24.817 -63.215 24.907 -64 25 C-64.33 25.66 -64.66 26.32 -65 27 C-65.99 26.01 -66.98 25.02 -68 24 C-67.67 23.34 -67.34 22.68 -67 22 C-64.447 21.666 -61.94 21.439 -59.375 21.25 C-39.619 19.355 -21.529 12.679 -3.384 4.936 C-1.262 4.103 0.777 3.489 3 3 C2.01 2.01 1.02 1.02 0 0 Z " fill="#1B1B1B" transform="translate(627,190)"/>
<path d="M0 0 C0.99 0 1.98 0 3 0 C3.037 1.111 3.075 2.222 3.113 3.367 C3.453 11.621 3.902 19.24 7 27 C7.371 28.031 7.743 29.062 8.125 30.125 C13.591 38.507 21.431 43.385 31.103 45.449 C36.05 46.42 41.017 47.237 46 48 C46 48.33 46 48.66 46 49 C32.87 49.656 22.211 49.377 11.562 40.625 C3.824 33.159 0.062 25.801 -0.18 14.91 C-0.216 9.938 -0.141 4.97 0 0 Z " fill="#E3E3E3" transform="translate(401,244)"/>
<path d="M0 0 C0 1.32 0 2.64 0 4 C-0.824 3.723 -1.647 3.446 -2.496 3.16 C-6.342 1.887 -10.198 0.653 -14.062 -0.562 C-14.757 -0.784 -15.451 -1.005 -16.166 -1.232 C-22.752 -3.303 -28.465 -4.144 -35.363 -4.098 C-36.551 -4.096 -36.551 -4.096 -37.763 -4.093 C-40.28 -4.088 -42.796 -4.075 -45.312 -4.062 C-47.024 -4.057 -48.736 -4.053 -50.447 -4.049 C-54.632 -4.038 -58.816 -4.021 -63 -4 C-63.33 -4.66 -63.66 -5.32 -64 -6 C-63.67 -6.66 -63.34 -7.32 -63 -8 C-42.368 -12.766 -19.045 -8.117 0 0 Z " fill="#CECECE" transform="translate(641,121)"/>
<path d="M0 0 C0.66 0 1.32 0 2 0 C2.171 0.747 2.343 1.494 2.519 2.263 C3.297 5.636 4.086 9.005 4.875 12.375 C5.144 13.551 5.414 14.726 5.691 15.938 C5.956 17.059 6.22 18.18 6.492 19.336 C6.733 20.373 6.974 21.41 7.222 22.478 C7.828 25.139 7.828 25.139 10 27 C9 28 9 28 5.621 28.098 C4.227 28.092 2.832 28.079 1.438 28.062 C-1.017 28.042 -3.471 28.021 -6 28 C-4.02 18.76 -2.04 9.52 0 0 Z " fill="#F0F0EF" transform="translate(486,202)"/>
<path d="M0 0 C0.99 0.33 1.98 0.66 3 1 C7.114 16.611 5.257 30.59 -1.523 45.004 C-3.375 47.507 -5.07 48.093 -8 49 C-6.743 44.809 -5.11 41.129 -3 37.32 C0.452 29.31 0.243 21.594 0.125 13 C0.111 11.122 0.111 11.122 0.098 9.207 C0.074 6.138 0.041 3.069 0 0 Z " fill="#D0D0D0" transform="translate(669,214)"/>
<path d="M0 0 C8.845 1.348 16.626 8.073 22 15 C25.845 21.444 26.377 28.101 26.5 35.438 C26.528 36.61 26.528 36.61 26.557 37.806 C26.515 41.541 26.339 43.577 23.969 46.535 C23.319 47.019 22.669 47.502 22 48 C22.016 47.37 22.031 46.74 22.048 46.092 C22.11 43.207 22.149 40.323 22.188 37.438 C22.213 36.447 22.238 35.456 22.264 34.436 C22.351 25.653 20.43 20.086 15 13 C12.116 10.468 12.116 10.468 8.938 8.25 C7.895 7.492 6.852 6.734 5.777 5.953 C3.869 4.611 1.942 3.294 0 2 C0 1.34 0 0.68 0 0 Z " fill="#E0E0E0" transform="translate(640,122)"/>
<path d="M0 0 C3.01 1.776 5.411 3.823 7 7 C7.123 8.935 7.176 10.874 7.188 12.812 C7.202 13.85 7.216 14.888 7.23 15.957 C7 19 7 19 5 24 C14.24 24 23.48 24 33 24 C33 24.33 33 24.66 33 25 C23.43 25.33 13.86 25.66 4 26 C4 25.34 4 24.68 4 24 C3.34 24 2.68 24 2 24 C2.242 22.954 2.242 22.954 2.488 21.887 C3.033 18.813 3.168 15.933 3.188 12.812 C3.202 11.767 3.216 10.722 3.23 9.645 C3.272 6.843 3.272 6.843 1 5 C-4.212 4.373 -9.297 4.492 -14 7 C-14 7.66 -14 8.32 -14 9 C-14.99 9 -15.98 9 -17 9 C-16.622 6.505 -16.291 5.276 -14.434 3.516 C-9.341 0.286 -6.034 -0.973 0 0 Z " fill="#C8C8C7" transform="translate(487,100)"/>
<path d="M0 0 C2.062 0.438 2.062 0.438 4 1 C4.33 2.32 4.66 3.64 5 5 C6.036 4.988 7.073 4.977 8.141 4.965 C9.51 4.955 10.88 4.946 12.25 4.938 C12.932 4.929 13.614 4.921 14.316 4.912 C21.151 4.879 21.151 4.879 24 6 C24.495 6.99 24.495 6.99 25 8 C21.563 8.058 18.125 8.094 14.688 8.125 C13.711 8.142 12.735 8.159 11.729 8.176 C10.791 8.182 9.853 8.189 8.887 8.195 C8.023 8.206 7.159 8.216 6.268 8.227 C4 8 4 8 1 6 C0.951 6.568 0.902 7.137 0.852 7.723 C0.369 12.711 -0.476 17.226 -2 22 C-3.32 22 -4.64 22 -6 22 C-6.205 21.085 -6.41 20.17 -6.621 19.227 C-6.891 18.038 -7.16 16.85 -7.438 15.625 C-7.838 13.85 -7.838 13.85 -8.246 12.039 C-8.856 9.105 -8.856 9.105 -10 7 C-9.01 7 -8.02 7 -7 7 C-6.67 5.68 -6.34 4.36 -6 3 C-5.67 6.3 -5.34 9.6 -5 13 C-4.34 13 -3.68 13 -3 13 C-2.867 12.145 -2.734 11.291 -2.598 10.41 C-2.421 9.305 -2.244 8.201 -2.062 7.062 C-1.888 5.96 -1.714 4.858 -1.535 3.723 C-1 1 -1 1 0 0 Z " fill="#C8C8C8" transform="translate(535,208)"/>
<path d="M0 0 C0.33 0 0.66 0 1 0 C2.24 8.128 1.607 14.76 -0.438 22.688 C-0.68 23.687 -0.923 24.687 -1.174 25.717 C-1.767 28.149 -2.376 30.576 -3 33 C-3.99 33 -4.98 33 -6 33 C-6.839 30.397 -7.671 27.793 -8.5 25.188 C-8.738 24.45 -8.977 23.712 -9.223 22.951 C-10.199 19.867 -11 17.255 -11 14 C-11.66 14 -12.32 14 -13 14 C-13 13.34 -13 12.68 -13 12 C-11.35 12 -9.7 12 -8 12 C-7.661 13.415 -7.329 14.832 -7 16.25 C-6.722 17.433 -6.722 17.433 -6.438 18.641 C-6 21 -6 21 -6 25 C-5.34 25 -4.68 25 -4 25 C-3.963 24.368 -3.925 23.737 -3.887 23.086 C-3.308 15.211 -1.783 7.684 0 0 Z M-10 7 C-9.67 7 -9.34 7 -9 7 C-9 8.65 -9 10.3 -9 12 C-9.33 12 -9.66 12 -10 12 C-10 10.35 -10 8.7 -10 7 Z " fill="#343434" transform="translate(484,196)"/>
<path d="M0 0 C1.296 0.003 2.591 0.006 3.926 0.01 C5.289 0.018 6.652 0.027 8.016 0.035 C9.395 0.04 10.773 0.045 12.152 0.049 C15.523 0.061 18.895 0.077 22.266 0.098 C22.266 1.418 22.266 2.738 22.266 4.098 C11.046 4.098 -0.174 4.098 -11.734 4.098 C-11.404 3.108 -11.074 2.118 -10.734 1.098 C-7.319 -0.32 -3.644 -0.016 0 0 Z " fill="#C0C0C0" transform="translate(437.734375,108.90234375)"/>
<path d="M0 0 C6.93 2.97 6.93 2.97 14 6 C11.136 9.58 9.37 11.741 5.875 14.312 C5.192 14.824 4.509 15.336 3.805 15.863 C2 17 2 17 0 17 C0 11.39 0 5.78 0 0 Z " fill="#EAEAEA" transform="translate(416,207)"/>
<path d="M0 0 C0 0.99 0 1.98 0 3 C-0.92 3.208 -1.841 3.415 -2.789 3.629 C-12.342 5.954 -20.355 9.314 -29 14 C-30.33 14.673 -31.662 15.342 -33 16 C-33.625 13.625 -33.625 13.625 -34 11 C-33.34 10.34 -32.68 9.68 -32 9 C-32 9.66 -32 10.32 -32 11 C-31.129 10.541 -30.257 10.082 -29.359 9.609 C-10.11 -0.372 -10.11 -0.372 0 0 Z " fill="#DADAD9" transform="translate(578,114)"/>
<path d="M0 0 C0.66 0 1.32 0 2 0 C2.495 3.465 2.495 3.465 3 7 C2.01 7 1.02 7 0 7 C-0.144 7.784 -0.289 8.567 -0.438 9.375 C-1 12 -1 12 -2 14 C-6.502 14.074 -11.004 14.129 -15.507 14.165 C-17.039 14.18 -18.57 14.2 -20.102 14.226 C-22.304 14.263 -24.505 14.28 -26.707 14.293 C-27.392 14.308 -28.076 14.324 -28.781 14.34 C-33.56 14.342 -33.56 14.342 -35.956 12.482 C-36.3 11.993 -36.645 11.504 -37 11 C-36.01 10.34 -35.02 9.68 -34 9 C-34 9.99 -34 10.98 -34 12 C-24.1 12 -14.2 12 -4 12 C-3.01 8.7 -2.02 5.4 -1 2 C-0.67 1.34 -0.34 0.68 0 0 Z " fill="#0F0F0F" transform="translate(471,201)"/>
<path d="M0 0 C2.31 0.33 4.62 0.66 7 1 C7.495 2.485 7.495 2.485 8 4 C4.183 6.477 0.425 8.032 -3.875 9.5 C-9.47 11.432 -9.47 11.432 -14.938 13.688 C-18.264 15.113 -21.506 16.073 -25 17 C-25.33 16.01 -25.66 15.02 -26 14 C-21.918 12.35 -17.834 10.706 -13.75 9.062 C-12.012 8.36 -12.012 8.36 -10.238 7.643 C-9.123 7.195 -8.008 6.747 -6.859 6.285 C-5.833 5.871 -4.807 5.458 -3.749 5.031 C-1.498 4.187 0.656 3.512 3 3 C2.01 2.01 1.02 1.02 0 0 Z " fill="#3F403F" transform="translate(627,190)"/>
<path d="M0 0 C12.87 0 25.74 0 39 0 C39 0.66 39 1.32 39 2 C32.125 3.307 25.352 3.184 18.375 3.188 C17.039 3.2 15.703 3.212 14.367 3.225 C13.099 3.227 11.83 3.228 10.523 3.23 C8.79 3.237 8.79 3.237 7.021 3.243 C4.108 3.009 2.456 2.521 0 1 C0 0.67 0 0.34 0 0 Z " fill="#E3E3E2" transform="translate(575,290)"/>
<path d="M0 0 C0.99 0 1.98 0 3 0 C3.037 1.111 3.075 2.222 3.113 3.367 C3.458 11.697 4.134 19.103 7 27 C7.349 28.329 7.687 29.662 8 31 C7.01 31.66 6.02 32.32 5 33 C2.852 28.117 2.852 28.117 2 26 C1.639 25.144 1.278 24.288 0.906 23.406 C-0.328 18.767 -0.214 14.4 -0.125 9.625 C-0.116 8.698 -0.107 7.771 -0.098 6.816 C-0.074 4.544 -0.041 2.272 0 0 Z " fill="#E2E2E1" transform="translate(401,244)"/>
<path d="M0 0 C0 4.29 0 8.58 0 13 C-0.99 13 -1.98 13 -3 13 C-3 10.36 -3 7.72 -3 5 C-3.888 5.327 -4.776 5.655 -5.691 5.992 C-11.33 7.603 -17.126 7.211 -22.938 7.125 C-24.098 7.116 -25.259 7.107 -26.455 7.098 C-29.303 7.074 -32.152 7.038 -35 7 C-35 11.29 -35 15.58 -35 20 C-35.33 20 -35.66 20 -36 20 C-36 15.38 -36 10.76 -36 6 C-34.302 5.963 -32.605 5.925 -30.855 5.887 C-28.633 5.821 -26.41 5.755 -24.188 5.688 C-23.068 5.665 -21.948 5.642 -20.795 5.619 C-19.722 5.584 -18.649 5.548 -17.543 5.512 C-16.553 5.486 -15.563 5.459 -14.544 5.432 C-11.592 4.931 -10.94 4.174 -9 2 C-3 0 -3 0 0 0 Z " fill="#B6B6B6" transform="translate(521,240)"/>
<path d="M0 0 C7.423 0.847 12.381 6.833 16.945 12.352 C20.173 16.889 21.763 20.425 22 26 C21.01 26 20.02 26 19 26 C18.792 25.371 18.585 24.742 18.371 24.094 C15.037 14.83 10.272 8.714 1.504 4.105 C1.008 3.741 0.511 3.376 0 3 C0 2.01 0 1.02 0 0 Z " fill="#DFDFDE" transform="translate(650,119)"/>
<path d="M0 0 C0.99 0 1.98 0 3 0 C3.871 3.559 4.719 7.122 5.562 10.688 C5.809 11.695 6.056 12.702 6.311 13.74 C6.539 14.717 6.768 15.693 7.004 16.699 C7.219 17.595 7.433 18.49 7.655 19.413 C8.028 22.211 7.705 24.282 7 27 C6.34 27 5.68 27 5 27 C4.495 24.918 3.996 22.834 3.5 20.75 C3.222 19.59 2.943 18.43 2.656 17.234 C2 14 2 14 2 10 C1.01 10 0.02 10 -1 10 C-1.125 2.25 -1.125 2.25 0 0 Z " fill="#262626" transform="translate(486,192)"/>
<path d="M0 0 C0.66 0.33 1.32 0.66 2 1 C-2.13 7.001 -6.816 8.303 -13.791 9.688 C-20.789 10.676 -27.959 10.27 -35 10 C-35 9.67 -35 9.34 -35 9 C-33.02 8.67 -31.04 8.34 -29 8 C-29 7.67 -29 7.34 -29 7 C-27.208 6.853 -27.208 6.853 -25.379 6.703 C-13.199 5.649 -13.199 5.649 -2 1 C-1.34 0.67 -0.68 0.34 0 0 Z " fill="#D6D6D5" transform="translate(468,284)"/>
<path d="M0 0 C0.33 0.66 0.66 1.32 1 2 C-0.38 4.071 -1.762 6.14 -3.148 8.207 C-4.464 10.192 -5.759 12.191 -7.039 14.199 C-7.727 15.268 -8.416 16.336 -9.125 17.438 C-9.767 18.447 -10.409 19.456 -11.07 20.496 C-13.01 23.013 -14.117 23.848 -17 25 C-18.485 25.99 -18.485 25.99 -20 27 C-18.725 24.309 -17.332 21.95 -15.539 19.574 C-14.831 18.626 -14.831 18.626 -14.109 17.658 C-13.128 16.356 -12.146 15.054 -11.164 13.752 C-8.824 10.614 -6.689 7.535 -4.836 4.082 C-3 1 -3 1 0 0 Z M-18 26 C-17.01 26.495 -17.01 26.495 -16 27 C-16.99 27.495 -16.99 27.495 -18 28 C-18 27.34 -18 26.68 -18 26 Z " fill="#2D2D2D" transform="translate(469,167)"/>
<path d="M0 0 C0.66 0 1.32 0 2 0 C3.858 3.135 4.201 5.375 4 9 C3.67 8.34 3.34 7.68 3 7 C2.34 7 1.68 7 1 7 C0.879 7.773 0.758 8.547 0.633 9.344 C-0.329 15.319 -1.427 21.156 -3 27 C-4.32 26.01 -5.64 25.02 -7 24 C-6.67 22.68 -6.34 21.36 -6 20 C-5.67 20 -5.34 20 -5 20 C-4.584 18.337 -4.584 18.337 -4.16 16.641 C-2.773 11.094 -1.387 5.547 0 0 Z " fill="#2F2F2F" transform="translate(520,195)"/>
<path d="M0 0 C0.617 0.193 1.235 0.387 1.871 0.586 C10.566 3.259 18.94 5.137 28 6 C25.904 7.846 24.581 8.935 21.766 9.25 C13.12 8.391 5.185 5.783 -3 3 C-2.01 2.67 -1.02 2.34 0 2 C0 1.34 0 0.68 0 0 Z " fill="#DEDEDE" transform="translate(552,283)"/>
<path d="M0 0 C9.391 0.045 17.44 3.527 26 7 C26 8.32 26 9.64 26 11 C25.176 10.723 24.353 10.446 23.504 10.16 C19.658 8.887 15.802 7.653 11.938 6.438 C11.243 6.216 10.549 5.995 9.834 5.768 C6.246 4.64 2.708 3.643 -1 3 C-0.67 2.01 -0.34 1.02 0 0 Z " fill="#DDDDDC" transform="translate(615,114)"/>
<path d="M0 0 C0.99 0.33 1.98 0.66 3 1 C3.887 3.188 3.887 3.188 4.688 6 C6.548 11.596 9.273 15.067 13.391 19.223 C15 21 15 21 15 23 C10.85 22.498 9.09 20.35 6.375 17.312 C5.599 16.463 4.823 15.614 4.023 14.738 C0.534 10.016 -0.276 5.792 0 0 Z " fill="#DEDEDD" transform="translate(396,267)"/>
<path d="M0 0 C0.784 2.352 1.041 3.799 0.54 6.253 C-0.06 9.306 -0.161 12.148 -0.205 15.259 C-0.225 16.5 -0.245 17.741 -0.266 19.019 C-0.283 20.363 -0.3 21.707 -0.316 23.051 C-0.337 24.434 -0.358 25.817 -0.379 27.2 C-0.434 30.828 -0.484 34.456 -0.532 38.084 C-0.583 41.791 -0.638 45.498 -0.693 49.205 C-0.801 56.47 -0.902 63.735 -1 71 C-1.33 71 -1.66 71 -2 71 C-2.046 62.038 -2.082 53.076 -2.104 44.114 C-2.114 39.953 -2.128 35.792 -2.151 31.631 C-2.173 27.617 -2.185 23.604 -2.19 19.59 C-2.193 18.057 -2.201 16.523 -2.211 14.99 C-2.226 12.847 -2.228 10.704 -2.227 8.561 C-2.231 7.34 -2.236 6.118 -2.241 4.86 C-2 2 -2 2 0 0 Z " fill="#FEFEFE" transform="translate(404,134)"/>
<path d="M0 0 C1.533 3.066 1.121 6.271 1.098 9.633 C1.096 10.385 1.095 11.136 1.093 11.911 C1.088 14.316 1.075 16.72 1.062 19.125 C1.057 20.754 1.053 22.383 1.049 24.012 C1.038 28.008 1.021 32.004 1 36 C0.67 36 0.34 36 0 36 C0 25.11 0 14.22 0 3 C-3.96 4.98 -3.96 4.98 -8 7 C-11.875 7.375 -11.875 7.375 -15 7 C-15.66 6.34 -16.32 5.68 -17 5 C-15.824 4.732 -14.649 4.464 -13.438 4.188 C-10.531 3.47 -7.86 2.59 -5.125 1.375 C-2 0 -2 0 0 0 Z " fill="#C8C8C8" transform="translate(416,225)"/>
<path d="M0 0 C1 3 1 3 0.18 5.27 C-4.02 13.455 -7.668 18.753 -16 23 C-14.481 19.584 -12.456 16.986 -10.062 14.125 C-7.148 10.553 -4.944 7.196 -3 3 C-1.312 1.125 -1.312 1.125 0 0 Z " fill="#E3E3E2" transform="translate(483,266)"/>
<path d="M0 0 C0.33 0.66 0.66 1.32 1 2 C-4.367 9.455 -10.429 17.15 -19 21 C-17.725 17.872 -15.988 15.872 -13.559 13.559 C-10.874 10.874 -8.442 7.961 -5.965 5.086 C-4.102 3.109 -2.221 1.553 0 0 Z " fill="#E8E8E8" transform="translate(664,260)"/>
<path d="M0 0 C5.558 -0.579 8.658 0.404 13.266 3.574 C15.594 5.488 16.88 7.199 18 10 C18.188 12.812 18.188 12.812 18 15 C17.01 15 16.02 15 15 15 C14.814 13.928 14.629 12.855 14.438 11.75 C13.543 8.615 12.552 7.295 9.75 5.625 C6.573 4.067 3.535 3.345 0 3 C0 2.01 0 1.02 0 0 Z " fill="#2C2D2C" transform="translate(514,129)"/>
<path d="M0 0 C2.229 -0.054 4.458 -0.093 6.688 -0.125 C8.55 -0.16 8.55 -0.16 10.449 -0.195 C13.837 -0.009 16.022 0.42 19 2 C19.33 2.66 19.66 3.32 20 4 C13.07 3.67 6.14 3.34 -1 3 C-0.67 2.01 -0.34 1.02 0 0 Z " fill="#DFDFDE" transform="translate(509,109)"/>
<path d="M0 0 C0.33 0 0.66 0 1 0 C2.328 8.126 1.948 15.235 -1 23 C-1.66 23.33 -2.32 23.66 -3 24 C-3.519 15.655 -1.958 8.09 0 0 Z " fill="#2E2E2E" transform="translate(484,196)"/>
<path d="M0 0 C5.23 2.344 5.23 2.344 7 5 C7.253 7.718 7.135 10.259 7 13 C5.02 13.99 5.02 13.99 3 15 C3.023 14.374 3.046 13.747 3.07 13.102 C3.088 12.284 3.106 11.467 3.125 10.625 C3.16 9.407 3.16 9.407 3.195 8.164 C3.214 5.787 3.214 5.787 1 4 C-1.203 3.54 -1.203 3.54 -3.625 3.375 C-4.851 3.263 -4.851 3.263 -6.102 3.148 C-6.728 3.099 -7.355 3.05 -8 3 C-8 2.67 -8 2.34 -8 2 C-5.36 2 -2.72 2 0 2 C0 1.34 0 0.68 0 0 Z " fill="#CBCBCB" transform="translate(668,182)"/>
<path d="M0 0 C-2.738 3.776 -6.898 4.225 -11.188 5.188 C-11.937 5.365 -12.687 5.542 -13.459 5.725 C-15.304 6.159 -17.152 6.581 -19 7 C-19.66 6.01 -20.32 5.02 -21 4 C-18.439 3.326 -15.877 2.661 -13.312 2 C-12.591 1.809 -11.87 1.618 -11.127 1.422 C-7.331 0.451 -3.954 -0.25 0 0 Z " fill="#373737" transform="translate(603,205)"/>
<path d="M0 0 C0.33 0.66 0.66 1.32 1 2 C1.66 2 2.32 2 3 2 C2.504 6.468 2.31 7.69 -1 11 C-0.67 8.03 -0.34 5.06 0 2 C-7.59 2 -15.18 2 -23 2 C-23 1.67 -23 1.34 -23 1 C-15.41 0.67 -7.82 0.34 0 0 Z " fill="#212121" transform="translate(488,122)"/>
<path d="M0 0 C-0.617 1.922 -0.617 1.922 -2 4 C-4.82 4.828 -4.82 4.828 -8.125 5.25 C-9.769 5.474 -9.769 5.474 -11.445 5.703 C-12.71 5.85 -12.71 5.85 -14 6 C-14 5.34 -14 4.68 -14 4 C-15.98 4 -17.96 4 -20 4 C-20 3.67 -20 3.34 -20 3 C-18.753 2.801 -18.753 2.801 -17.48 2.598 C-16.394 2.421 -15.307 2.244 -14.188 2.062 C-13.109 1.888 -12.03 1.714 -10.918 1.535 C-2.22 -0.06 -2.22 -0.06 0 0 Z " fill="#D2D2D1" transform="translate(628,286)"/>
<path d="M0 0 C2.274 6.821 -1.031 12.909 -4 19 C-4.33 18.34 -4.66 17.68 -5 17 C-5.66 17 -6.32 17 -7 17 C-5.24 11.08 -2.603 5.584 0 0 Z M2 2 C2 5 2 5 2 5 Z " fill="#424242" transform="translate(486,130)"/>
<path d="M0 0 C0.66 0 1.32 0 2 0 C2.108 2.418 2.187 4.831 2.25 7.25 C2.284 7.932 2.317 8.614 2.352 9.316 C2.422 12.922 2.292 14.641 -0.016 17.484 C-0.67 17.985 -1.325 18.485 -2 19 C-1.856 17.721 -1.711 16.442 -1.562 15.125 C-1.002 10.087 -0.495 5.045 0 0 Z " fill="#E8E8E7" transform="translate(664,151)"/>
<path d="M0 0 C0 0.33 0 0.66 0 1 C-1.392 1.155 -1.392 1.155 -2.812 1.312 C-6.223 2.048 -6.757 2.562 -9 5 C-11.688 6.188 -11.688 6.188 -14 7 C-14 7.66 -14 8.32 -14 9 C-14.99 9 -15.98 9 -17 9 C-16.622 6.505 -16.291 5.276 -14.434 3.516 C-9.326 0.277 -6.035 -0.539 0 0 Z " fill="#BBBBBA" transform="translate(487,100)"/>
<path d="M0 0 C0.557 0.248 1.114 0.495 1.688 0.75 C1.688 3.39 1.688 6.03 1.688 8.75 C1.028 8.75 0.368 8.75 -0.312 8.75 C-0.312 7.43 -0.312 6.11 -0.312 4.75 C-2.623 4.42 -4.933 4.09 -7.312 3.75 C-2.882 -0.312 -2.882 -0.312 0 0 Z M-1.312 0.75 C-1.642 1.41 -1.973 2.07 -2.312 2.75 C-1.652 2.75 -0.993 2.75 -0.312 2.75 C-0.642 2.09 -0.973 1.43 -1.312 0.75 Z M1.688 8.75 C2.678 8.75 3.668 8.75 4.688 8.75 C4.688 10.4 4.688 12.05 4.688 13.75 C3.697 13.75 2.707 13.75 1.688 13.75 C1.688 12.1 1.688 10.45 1.688 8.75 Z " fill="#333433" transform="translate(511.3125,210.25)"/>
<path d="M0 0 C4.472 1.418 8.711 3.113 13 5 C12.67 5.99 12.34 6.98 12 8 C6.821 6.757 3.298 5.145 -1 2 C-0.67 1.34 -0.34 0.68 0 0 Z M-2 2 C-1 6 -1 6 -1 6 Z " fill="#2A2B2B" transform="translate(417,205)"/>
<path d="M0 0 C0.33 0 0.66 0 1 0 C1 3.63 1 7.26 1 11 C1.66 11.33 2.32 11.66 3 12 C2.288 13.33 2.288 13.33 1.562 14.688 C0.203 17.57 -0.541 19.876 -1 23 C-2.32 22.01 -3.64 21.02 -5 20 C-4.529 19.51 -4.059 19.02 -3.574 18.516 C-1.432 15.092 -1.191 11.683 -0.812 7.75 C-0.731 7.005 -0.649 6.26 -0.564 5.492 C-0.365 3.663 -0.181 1.831 0 0 Z " fill="#383939" transform="translate(537,143)"/>
<path d="M0 0 C0.99 0 1.98 0 3 0 C3.33 2.97 3.66 5.94 4 9 C2.35 9.33 0.7 9.66 -1 10 C-1.125 2.25 -1.125 2.25 0 0 Z " fill="#181818" transform="translate(486,192)"/>
<path d="M0 0 C2.31 0.33 4.62 0.66 7 1 C7.33 1.99 7.66 2.98 8 4 C3.663 7.117 0.196 7.56 -5 8 C-2.472 5.201 -0.796 3.542 3 3 C2.01 2.01 1.02 1.02 0 0 Z M-7 8 C-5 9 -5 9 -5 9 Z " fill="#2F2F2F" transform="translate(627,190)"/>
<path d="M0 0 C4.162 -0.326 6.363 -0.407 9.938 1.875 C12 4 12 4 12 6 C8.125 5.125 8.125 5.125 7 4 C5.653 3.769 4.296 3.588 2.938 3.438 C1.638 3.293 0.339 3.149 -1 3 C-0.67 2.01 -0.34 1.02 0 0 Z " fill="#D9D9D9" transform="translate(481,101)"/>
<path d="M0 0 C0.99 0.33 1.98 0.66 3 1 C3.949 3.285 3.949 3.285 4.688 6.062 C4.939 6.982 5.19 7.901 5.449 8.848 C5.631 9.558 5.813 10.268 6 11 C5.01 10.67 4.02 10.34 3 10 C2.67 10.66 2.34 11.32 2 12 C0.409 7.823 -0.213 4.468 0 0 Z " fill="#CFCFCE" transform="translate(396,267)"/>
<path d="M0 0 C0.66 0.33 1.32 0.66 2 1 C-1.066 5.66 -3.587 6.855 -9 8 C-9 7.34 -9 6.68 -9 6 C-9.66 5.67 -10.32 5.34 -11 5 C-10.374 4.723 -9.747 4.446 -9.102 4.16 C-8.284 3.798 -7.467 3.436 -6.625 3.062 C-5.813 2.703 -5.001 2.343 -4.164 1.973 C-2.763 1.343 -1.374 0.687 0 0 Z " fill="#D9D9D9" transform="translate(468,284)"/>
<path d="M0 0 C0.33 0 0.66 0 1 0 C1.144 1.134 1.289 2.269 1.438 3.438 C1.612 6.808 1.612 6.808 3 8 C5.328 8.368 7.662 8.702 10 9 C8.312 10.562 8.312 10.562 6 12 C3.218 11.864 1.492 11.27 -0.938 9.938 C-2.303 7.447 -1.858 6.523 -1.188 3.812 C-0.796 2.554 -0.404 1.296 0 0 Z " fill="#BDBDBD" transform="translate(395,220)"/>
<path d="M0 0 C1.382 5.528 1.342 10.465 0 16 C-1.32 15.01 -2.64 14.02 -4 13 C-3.67 11.68 -3.34 10.36 -3 9 C-2.67 9 -2.34 9 -2 9 C-1.34 6.03 -0.68 3.06 0 0 Z " fill="#3B3B3B" transform="translate(517,206)"/>
<path d="M0 0 C0 0.99 0 1.98 0 3 C-4.455 4.485 -4.455 4.485 -9 6 C-9.33 4.68 -9.66 3.36 -10 2 C-8.712 1.47 -7.42 0.951 -6.125 0.438 C-5.406 0.147 -4.686 -0.143 -3.945 -0.441 C-2 -1 -2 -1 0 0 Z " fill="#CDCDCD" transform="translate(644,188)"/>
<path d="M0 0 C0.33 0.99 0.66 1.98 1 3 C1.99 3 2.98 3 4 3 C3.67 5.31 3.34 7.62 3 10 C2.01 9.67 1.02 9.34 0 9 C-0.879 2.848 -0.879 2.848 -1 1 C-0.67 0.67 -0.34 0.34 0 0 Z " fill="#1A1A1A" transform="translate(493,218)"/>
<path d="M0 0 C3.3 0.33 6.6 0.66 10 1 C10.33 1.99 10.66 2.98 11 4 C6.839 4.082 3.053 3.982 -1 3 C-0.67 2.01 -0.34 1.02 0 0 Z " fill="#DBDBDB" transform="translate(615,114)"/>
<path d="M0 0 C0.33 0 0.66 0 1 0 C0.67 2.97 0.34 5.94 0 9 C-1.32 9 -2.64 9 -4 9 C-4 7.02 -4 5.04 -4 3 C-3.01 3 -2.02 3 -1 3 C-0.67 2.01 -0.34 1.02 0 0 Z " fill="#EAEAE9" transform="translate(533,221)"/>
<path d="M0 0 C0.33 0 0.66 0 1 0 C1.073 1.282 1.073 1.282 1.148 2.59 C1.223 3.695 1.298 4.799 1.375 5.938 C1.445 7.04 1.514 8.142 1.586 9.277 C1.723 10.176 1.859 11.074 2 12 C2.66 12.33 3.32 12.66 4 13 C2.68 13.33 1.36 13.66 0 14 C-0.99 10.7 -1.98 7.4 -3 4 C-2.01 4 -1.02 4 0 4 C0 2.68 0 1.36 0 0 Z " fill="#E7E7E7" transform="translate(528,211)"/>
<path d="M0 0 C6.483 -0.367 6.483 -0.367 8.938 1.375 C10 3 10 3 10 5 C6.7 4.34 3.4 3.68 0 3 C0 2.01 0 1.02 0 0 Z " fill="#3D3E3D" transform="translate(514,129)"/>
<path d="M0 0 C0.66 0 1.32 0 2 0 C2.33 2.31 2.66 4.62 3 7 C1.68 7.33 0.36 7.66 -1 8 C-1.125 2.25 -1.125 2.25 0 0 Z " fill="#0A0A0A" transform="translate(471,201)"/>
<path d="M0 0 C2.97 0.99 5.94 1.98 9 3 C9 3.66 9 4.32 9 5 C6.36 4.67 3.72 4.34 1 4 C0.67 2.68 0.34 1.36 0 0 Z " fill="#D6D6D5" transform="translate(543,280)"/>
<path d="M0 0 C2.125 3.188 2.502 5.265 3 9 C3.66 9 4.32 9 5 9 C5 9.66 5 10.32 5 11 C3.68 11.33 2.36 11.66 1 12 C-0.327 8.019 -0.069 4.15 0 0 Z " fill="#171717" transform="translate(475,212)"/>
<path d="M0 0 C0.33 0 0.66 0 1 0 C0.75 3.375 0.75 3.375 0 7 C-1.875 8.312 -1.875 8.312 -4 9 C-5.485 9.99 -5.485 9.99 -7 11 C-5.239 6.997 -2.739 3.397 0 0 Z M-5 10 C-4.01 10.495 -4.01 10.495 -3 11 C-3.99 11.495 -3.99 11.495 -5 12 C-5 11.34 -5 10.68 -5 10 Z " fill="#353636" transform="translate(456,183)"/>
<path d="M0 0 C-2.367 2.192 -3.517 2.987 -6.797 3.074 C-7.771 2.947 -8.746 2.819 -9.75 2.688 C-10.735 2.568 -11.72 2.448 -12.734 2.324 C-13.482 2.217 -14.23 2.11 -15 2 C-15 1.67 -15 1.34 -15 1 C-10.039 -0.323 -5.089 -0.089 0 0 Z " fill="#C2C2C2" transform="translate(580,289)"/>
<path d="M0 0 C0.33 0 0.66 0 1 0 C1 4.29 1 8.58 1 13 C2.32 12.67 3.64 12.34 5 12 C4.34 13.32 3.68 14.64 3 16 C2.34 16 1.68 16 1 16 C1 15.34 1 14.68 1 14 C0.34 13.67 -0.32 13.34 -1 13 C-0.67 8.71 -0.34 4.42 0 0 Z " fill="#1B1B1B" transform="translate(415,211)"/>
<path d="M0 0 C0.33 0 0.66 0 1 0 C1.365 1.581 1.717 3.165 2.062 4.75 C2.26 5.632 2.457 6.513 2.66 7.422 C2.998 9.987 2.812 11.571 2 14 C1.01 13.34 0.02 12.68 -1 12 C-1.315 7.828 -0.984 4.058 0 0 Z " fill="#D1D1D1" transform="translate(524,192)"/>
<path d="M0 0 C1.65 0 3.3 0 5 0 C5.33 2.64 5.66 5.28 6 8 C5.01 8 4.02 8 3 8 C2.876 6.866 2.752 5.731 2.625 4.562 C2.419 3.387 2.212 2.211 2 1 C1.34 0.67 0.68 0.34 0 0 Z " fill="#353535" transform="translate(486,201)"/>
<path d="M0 0 C0.928 0.082 1.856 0.165 2.812 0.25 C2.812 1.24 2.812 2.23 2.812 3.25 C-1.643 3.745 -1.643 3.745 -6.188 4.25 C-4.364 1.009 -3.825 0.3 0 0 Z " fill="#E0E0DF" transform="translate(575.1875,113.75)"/>
<path d="M0 0 C2.31 0.66 4.62 1.32 7 2 C7 3.32 7 4.64 7 6 C4.03 5.01 1.06 4.02 -2 3 C-1.34 2.01 -0.68 1.02 0 0 Z " fill="#CBCBCA" transform="translate(528,111)"/>
<path d="M0 0 C-1.812 2 -1.812 2 -4 4 C-4.99 4 -5.98 4 -7 4 C-7 3.34 -7 2.68 -7 2 C-8.98 2 -10.96 2 -13 2 C-13 1.67 -13 1.34 -13 1 C-8.624 0.407 -4.425 -0.138 0 0 Z " fill="#C6C6C5" transform="translate(621,288)"/>
<path d="M0 0 C0 0.99 0 1.98 0 3 C-0.99 3 -1.98 3 -3 3 C-2.01 2.01 -1.02 1.02 0 0 Z M-4 4 C-3.67 4.99 -3.34 5.98 -3 7 C-3.99 7.33 -4.98 7.66 -6 8 C-6 7.01 -6 6.02 -6 5 C-5.34 4.67 -4.68 4.34 -4 4 Z M-9 9 C-8.34 9.33 -7.68 9.66 -7 10 C-8.98 10.99 -8.98 10.99 -11 12 C-10.34 11.01 -9.68 10.02 -9 9 Z " fill="#1B1B1B" transform="translate(454,189)"/>
<path d="M0 0 C0.99 1.32 1.98 2.64 3 4 C2.34 5.32 1.68 6.64 1 8 C-0.562 6.75 -0.562 6.75 -2 5 C-1.749 2.863 -1.541 1.541 0 0 Z " fill="#C8C8C7" transform="translate(406,269)"/>
<path d="M0 0 C2.875 -0.188 2.875 -0.188 6 0 C6.66 0.99 7.32 1.98 8 3 C6.35 3 4.7 3 3 3 C2.67 3.66 2.34 4.32 2 5 C1.01 4.01 0.02 3.02 -1 2 C-0.67 1.34 -0.34 0.68 0 0 Z " fill="#434443" transform="translate(560,212)"/>
<path d="M0 0 C2.31 0.66 4.62 1.32 7 2 C7 3.32 7 4.64 7 6 C1.25 4.25 1.25 4.25 -1 2 C-0.67 1.34 -0.34 0.68 0 0 Z " fill="#CFCFCE" transform="translate(634,119)"/>
<path d="M0 0 C2.31 0 4.62 0 7 0 C5.515 1.98 5.515 1.98 4 4 C2.35 3.67 0.7 3.34 -1 3 C-0.67 2.01 -0.34 1.02 0 0 Z " fill="#CFCFCF" transform="translate(578,113)"/>
<path d="M0 0 C3.3 0 6.6 0 10 0 C9.67 0.99 9.34 1.98 9 3 C2.848 2.414 2.848 2.414 1 2 C0.67 1.34 0.34 0.68 0 0 Z " fill="#E5E5E4" transform="translate(575,290)"/>
<path d="M0 0 C0.66 0.33 1.32 0.66 2 1 C0.547 4.829 -1.429 6.121 -5 8 C-4.65 4.758 -4.438 3.385 -1.938 1.188 C-0.978 0.6 -0.978 0.6 0 0 Z " fill="#2D2E2D" transform="translate(424,218)"/>
<path d="M0 0 C1 3 1 3 0.062 5.188 C-0.463 6.085 -0.463 6.085 -1 7 C-2.32 7 -3.64 7 -5 7 C-5 6.34 -5 5.68 -5 5 C-4.34 5 -3.68 5 -3 5 C-3 4.01 -3 3.02 -3 2 C-2.01 1.34 -1.02 0.68 0 0 Z " fill="#C3C3C2" transform="translate(535,216)"/>
<path d="M0 0 C1.467 3.815 0.433 6.29 -1 10 C-1.33 10 -1.66 10 -2 10 C-2.195 3.945 -2.195 3.945 -2 2 C-1.34 1.34 -0.68 0.68 0 0 Z " fill="#F9F9F9" transform="translate(404,134)"/>
<path d="M0 0 C4.431 1.208 6.981 2.517 10 6 C3.477 4.523 3.477 4.523 1.062 1.875 C0.712 1.256 0.361 0.637 0 0 Z " fill="#B3B3B3" transform="translate(639,27)"/>
<path d="M0 0 C0.66 0.33 1.32 0.66 2 1 C-1.446 5.8 -1.446 5.8 -4.25 6.812 C-5.116 6.905 -5.116 6.905 -6 7 C-5.812 5.188 -5.812 5.188 -5 3 C-2.562 1.188 -2.562 1.188 0 0 Z " fill="#D9D9D9" transform="translate(646,276)"/>
<path d="M0 0 C0.99 0 1.98 0 3 0 C3.33 1.65 3.66 3.3 4 5 C3.01 5.33 2.02 5.66 1 6 C0 5 0 5 -0.062 2.438 C-0.042 1.633 -0.021 0.829 0 0 Z " fill="#CACACA" transform="translate(518,253)"/>
<path d="M0 0 C0.66 0.33 1.32 0.66 2 1 C2.407 3.322 2.744 5.657 3 8 C2.67 7.01 2.34 6.02 2 5 C0.02 5.99 0.02 5.99 -2 7 C-1.34 4.69 -0.68 2.38 0 0 Z " fill="#3A3A3A" transform="translate(525,216)"/>
<path d="M0 0 C-1.125 1.5 -1.125 1.5 -3 3 C-6.188 3.188 -6.188 3.188 -9 3 C-9 2.34 -9 1.68 -9 1 C-5.927 0.089 -3.199 -0.089 0 0 Z " fill="#1A1B1B" transform="translate(603,205)"/>
<path d="M0 0 C0.99 0 1.98 0 3 0 C1.523 4.677 1.523 4.677 -1.125 6.312 C-2.053 6.653 -2.053 6.653 -3 7 C-1.125 1.125 -1.125 1.125 0 0 Z " fill="#282828" transform="translate(470,162)"/>
<path d="M0 0 C0.66 0.33 1.32 0.66 2 1 C0.02 3.31 -1.96 5.62 -4 8 C-4.33 7.34 -4.66 6.68 -5 6 C-3.35 4.02 -1.7 2.04 0 0 Z " fill="#787878" transform="translate(698,332)"/>
<path d="M0 0 C1.938 0.812 1.938 0.812 4 2 C4.33 2.99 4.66 3.98 5 5 C4.01 5.33 3.02 5.66 2 6 C0 3 0 3 0 0 Z " fill="#DFDFDF" transform="translate(399,277)"/>
<path d="M0 0 C0.99 0.33 1.98 0.66 3 1 C-2.75 6 -2.75 6 -5 6 C-3.865 2.596 -3.032 1.783 0 0 Z " fill="#767776" transform="translate(664,365)"/>
<path d="M0 0 C0.99 0 1.98 0 3 0 C3.33 1.65 3.66 3.3 4 5 C3.01 5.33 2.02 5.66 1 6 C0.67 4.02 0.34 2.04 0 0 Z " fill="#DADADA" transform="translate(520,258)"/>
<path d="M0 0 C0.99 0 1.98 0 3 0 C3 1.65 3 3.3 3 5 C2.01 5 1.02 5 0 5 C0 3.35 0 1.7 0 0 Z " fill="#0B0C0B" transform="translate(513,219)"/>
<path d="M0 0 C0.99 0 1.98 0 3 0 C3.33 1.65 3.66 3.3 4 5 C3.01 5.33 2.02 5.66 1 6 C0.67 4.02 0.34 2.04 0 0 Z " fill="#DADAD9" transform="translate(667,209)"/>
<path d="M0 0 C0.66 0.99 1.32 1.98 2 3 C1.125 5.688 1.125 5.688 0 8 C-0.66 8 -1.32 8 -2 8 C-1.477 5.237 -0.891 2.674 0 0 Z " fill="#222222" transform="translate(469,206)"/>
<path d="M0 0 C0.33 0 0.66 0 1 0 C1.188 2.875 1.188 2.875 1 6 C-0.485 6.99 -0.485 6.99 -2 8 C-1.125 1.125 -1.125 1.125 0 0 Z " fill="#F4F4F3" transform="translate(664,162)"/>
<path d="M0 0 C0.66 0 1.32 0 2 0 C1.67 2.31 1.34 4.62 1 7 C-0.32 6.01 -1.64 5.02 -3 4 C-1.625 2 -1.625 2 0 0 Z " fill="#4E4E4E" transform="translate(535,159)"/>
<path d="M0 0 C0.99 0 1.98 0 3 0 C2.34 1.98 1.68 3.96 1 6 C0.34 6 -0.32 6 -1 6 C-0.67 4.02 -0.34 2.04 0 0 Z " fill="#202020" transform="translate(478,147)"/>
<path d="M0 0 C0.99 0.33 1.98 0.66 3 1 C3 2.65 3 4.3 3 6 C2.01 6 1.02 6 0 6 C0 4.02 0 2.04 0 0 Z " fill="#323232" transform="translate(529,138)"/>
<path d="M0 0 C0.33 0 0.66 0 1 0 C1.125 3.375 1.125 3.375 1 7 C0.34 7.66 -0.32 8.32 -1 9 C-1.66 7.35 -2.32 5.7 -3 4 C-2.01 4 -1.02 4 0 4 C0 2.68 0 1.36 0 0 Z " fill="#C2C2C2" transform="translate(528,211)"/>
<path d="M0 0 C0.33 0.66 0.66 1.32 1 2 C0.34 1.67 -0.32 1.34 -1 1 C-0.67 0.67 -0.34 0.34 0 0 Z M-2 2 C-1.67 2.99 -1.34 3.98 -1 5 C-1.99 5.99 -2.98 6.98 -4 8 C-4 6.35 -4 4.7 -4 3 C-3.34 2.67 -2.68 2.34 -2 2 Z " fill="#151515" transform="translate(461,179)"/>
<path d="M0 0 C0.99 0.33 1.98 0.66 3 1 C-1.75 5 -1.75 5 -4 5 C-3 2 -3 2 0 0 Z " fill="#70706F" transform="translate(656,371)"/>
<path d="M0 0 C1.32 0.66 2.64 1.32 4 2 C3.67 2.66 3.34 3.32 3 4 C0.03 3.505 0.03 3.505 -3 3 C-2.01 2.67 -1.02 2.34 0 2 C0 1.34 0 0.68 0 0 Z " fill="#CBCBCA" transform="translate(552,283)"/>
<path d="M0 0 C1.32 0.66 2.64 1.32 4 2 C3.01 3.485 3.01 3.485 2 5 C1.67 4.67 1.34 4.34 1 4 C0.34 4.66 -0.32 5.32 -1 6 C-0.67 4.02 -0.34 2.04 0 0 Z " fill="#A7A7A7" transform="translate(394,215)"/>
<path d="M0 0 C0.33 0 0.66 0 1 0 C1 1.65 1 3.3 1 5 C0.01 5.33 -0.98 5.66 -2 6 C-1.125 1.125 -1.125 1.125 0 0 Z " fill="#DFDFDF" transform="translate(673,191)"/>
<path d="M0 0 C1.32 0.33 2.64 0.66 4 1 C2.515 2.485 2.515 2.485 1 4 C0.01 3.67 -0.98 3.34 -2 3 C-1.34 2.01 -0.68 1.02 0 0 Z " fill="#DFDFDE" transform="translate(644,186)"/>
<path d="M0 0 C0.66 0.33 1.32 0.66 2 1 C0 4 0 4 -2.625 4.688 C-3.801 4.842 -3.801 4.842 -5 5 C-3.35 3.35 -1.7 1.7 0 0 Z " fill="#ACACAC" transform="translate(410,36)"/>
<path d="M0 0 C1.65 0 3.3 0 5 0 C4.67 0.99 4.34 1.98 4 3 C2.68 3 1.36 3 0 3 C0 2.01 0 1.02 0 0 Z " fill="#D8D8D7" transform="translate(429,290)"/>
<path d="M0 0 C2.475 0.495 2.475 0.495 5 1 C5 1.66 5 2.32 5 3 C3.35 3 1.7 3 0 3 C0 2.01 0 1.02 0 0 Z " fill="#E7E7E6" transform="translate(547,282)"/>
<path d="M0 0 C0.99 0.33 1.98 0.66 3 1 C3 1.99 3 2.98 3 4 C2.34 4 1.68 4 1 4 C0.67 4.66 0.34 5.32 0 6 C0 4.02 0 2.04 0 0 Z " fill="#DEDEDD" transform="translate(669,214)"/>
<path d="M0 0 C0.66 1.32 1.32 2.64 2 4 C1.34 4.66 0.68 5.32 0 6 C-0.66 5.67 -1.32 5.34 -2 5 C-1.34 3.35 -0.68 1.7 0 0 Z " fill="#373737" transform="translate(476,151)"/>
<path d="M0 0 C0.66 0.99 1.32 1.98 2 3 C1.67 3.99 1.34 4.98 1 6 C0.01 5.67 -0.98 5.34 -2 5 C-2 4.34 -2 3.68 -2 3 C-1.34 3 -0.68 3 0 3 C0 2.01 0 1.02 0 0 Z " fill="#434343" transform="translate(496,216)"/>
<path d="M0 0 C0.33 0.66 0.66 1.32 1 2 C1.66 2 2.32 2 3 2 C2.34 3.32 1.68 4.64 1 6 C1 5.34 1 4.68 1 4 C0.34 4 -0.32 4 -1 4 C-0.67 2.68 -0.34 1.36 0 0 Z " fill="#575757" transform="translate(480,143)"/>
<path d="M0 0 C0.99 0 1.98 0 3 0 C3 1.32 3 2.64 3 4 C2.01 4 1.02 4 0 4 C0 2.68 0 1.36 0 0 Z " fill="#343434" transform="translate(481,141)"/>
<path d="M0 0 C2.475 0.495 2.475 0.495 5 1 C4.01 2.485 4.01 2.485 3 4 C2.01 3.34 1.02 2.68 0 2 C0 1.34 0 0.68 0 0 Z " fill="#ECECEC" transform="translate(640,122)"/>
<path d="M0 0 C1.938 0.312 1.938 0.312 4 1 C4.33 1.99 4.66 2.98 5 4 C1.125 2.25 1.125 2.25 0 0 Z " fill="#7C7C7C" transform="translate(403,368)"/>
<path d="M0 0 C1.32 0.66 2.64 1.32 4 2 C3.67 2.66 3.34 3.32 3 4 C1.68 3.34 0.36 2.68 -1 2 C-0.67 1.34 -0.34 0.68 0 0 Z " fill="#434343" transform="translate(426,209)"/>
<path d="M0 0 C2.475 0.99 2.475 0.99 5 2 C5 2.33 5 2.66 5 3 C3.35 3 1.7 3 0 3 C0 2.01 0 1.02 0 0 Z " fill="#222322" transform="translate(422,208)"/>
<path d="M0 0 C0.99 0.33 1.98 0.66 3 1 C1 3 1 3 -1.625 3.125 C-2.409 3.084 -3.192 3.042 -4 3 C-2.188 1.438 -2.188 1.438 0 0 Z " fill="#151515" transform="translate(608,202)"/>
<path d="M0 0 C2.475 0.99 2.475 0.99 5 2 C5 2.66 5 3.32 5 4 C1.125 2.25 1.125 2.25 0 0 Z " fill="#7E7E7E" transform="translate(398,364)"/>
<path d="M0 0 C1.32 0.33 2.64 0.66 4 1 C3.67 1.66 3.34 2.32 3 3 C2.01 3 1.02 3 0 3 C0 2.01 0 1.02 0 0 Z " fill="#DBDBDB" transform="translate(555,285)"/>
<path d="M0 0 C1.32 0.33 2.64 0.66 4 1 C3.67 1.66 3.34 2.32 3 3 C2.01 2.67 1.02 2.34 0 2 C0 1.34 0 0.68 0 0 Z " fill="#E2E2E2" transform="translate(426,289)"/>
<path d="M0 0 C1.32 0.33 2.64 0.66 4 1 C3.67 1.66 3.34 2.32 3 3 C2.01 2.67 1.02 2.34 0 2 C0 1.34 0 0.68 0 0 Z " fill="#BFBFBF" transform="translate(563,215)"/>
<path d="M0 0 C0.66 0 1.32 0 2 0 C1.67 0.99 1.34 1.98 1 3 C0.34 3 -0.32 3 -1 3 C-0.67 2.01 -0.34 1.02 0 0 Z " fill="#6E6E6E" transform="translate(660,368)"/>
</svg>