<?xml version="1.0" encoding="utf-8" ?><svg xmlns="http://www.w3.org/2000/svg" xmlns:xlink="http://www.w3.org/1999/xlink" width="512" height="268" viewBox="0 0 512 268"><defs><linearGradient id="gradient_0" gradientUnits="userSpaceOnUse" x1="360.11899" y1="294.10712" x2="890.92548" y2="383.79739"><stop offset="0" stop-color="#121D1C"/><stop offset="1" stop-color="#7A2625"/></linearGradient></defs><path fill="url(#gradient_0)" transform="scale(0.4 0.400598)" d="M665.588 304.178C680.711 271.245 696.734 252.361 731.781 238.049C743.653 233.201 762.949 230.815 775.758 231.516C781.714 231.851 787.639 232.605 793.49 233.771C814.152 237.906 835.299 244.763 855.96 249.403C859.298 250.51 864.505 251.215 867.643 252.357C878.638 256.294 904.437 257.942 909.15 269.846C916.454 288.295 890.405 293.35 886.25 310.505C883.153 323.286 884.33 331.836 884.164 344.816C884.118 358.486 881.421 372.017 876.222 384.659C874.974 387.675 870.359 397.118 868.451 399.349C866.11 403.827 855.77 418.418 851.641 420.852C847.114 426.149 839.68 431.911 833.698 435.892C782.08 470.247 708.854 455.054 676.213 401.904C663.5 381.203 660.959 366.175 659.168 342.344C647.608 331.572 627.67 329.644 614.632 339.134C608.669 343.967 609.735 352.616 609.092 359.208C607.543 375.075 596.473 403.558 584.223 413.962C568.728 434.024 539.264 448.82 514.305 451.805C496.761 453.903 471.683 451.692 456.094 443.088C448.607 441.345 431.089 428.409 425.132 422.95C405.426 404.834 393.258 379.961 391.049 353.278C390.145 343.262 390.47 330.757 390 320.23C388.648 313.218 387.971 310.638 384.637 304.359C379.945 297.887 377.603 295.271 371.397 290.364C368.257 287.908 367.421 287.095 364.883 284.021C361.935 277.413 361.81 271.714 366.046 265.732C367.764 263.626 369.365 262.628 371.57 261.039C374.75 259.437 378.727 258.267 382.216 257.646C387.11 256.005 395.578 254.331 400.836 253.129C405.26 251.586 417.595 248.707 422.398 247.661C428.455 245.785 435.633 244.33 441.888 242.912C448.27 241.227 454.69 239.684 461.141 238.283C494.183 228.699 522.424 229.676 553.604 246.153C562.492 250.85 578.74 262.945 584.281 271.265C592.052 277.882 600.097 295.94 604.032 305.207C626.08 292.628 642.779 293.677 665.588 304.178ZM480.31 259.407C471.243 262.083 466.505 263.853 458.038 267.997C457.687 268.222 456.519 269.005 456.217 269.122L446.761 275.912L441.425 280.705C438.736 283.415 435.972 286.128 433.425 288.967C421.282 307.092 417.133 317.663 415.445 339.057C415.688 352.485 416.572 360.214 420.85 372.862C426.529 386.153 432.96 397.369 444.205 406.86C447.374 409.426 450.37 411.856 453.67 414.261C466.932 421.585 475.672 425.567 490.725 427.334C523.269 430.291 545.45 417.985 566.669 394.652C590.405 361.02 591.138 326.806 568.608 292.477C547.612 266.052 525.82 257.126 492.714 257.578C490.43 257.938 482.287 259.354 480.31 259.407Z"/><path fill="#151515" transform="scale(0.4 0.400598)" d="M456.094 443.088C459.308 442.593 463.495 444.048 466.711 444.718C472.311 445.885 478.634 444.751 484.455 444.625C497.593 444.34 511.052 443.628 524.153 444.473C526.18 444.327 531.56 445.862 533.301 445.386C540.437 443.433 546.471 443.373 547.217 435.257C550.589 432.23 553.733 436.167 559.29 433.847C565.642 431.195 579.248 415.125 584.223 413.962C568.728 434.024 539.264 448.82 514.305 451.805C496.761 453.903 471.683 451.692 456.094 443.088Z"/><path fill="#151515" transform="scale(0.4 0.400598)" d="M461.141 238.283C494.183 228.699 522.424 229.676 553.604 246.153C562.492 250.85 578.74 262.945 584.281 271.265C581.193 269.496 574.073 263.569 571.585 260.662C564.815 252.752 527.574 233.236 518.799 236.474C518.455 237.65 518.432 237.692 517.819 238.757C515.589 239.432 489.621 239.466 486.553 238.834C477.609 236.994 469.44 238.946 461.141 238.283Z"/><path fill="#151515" transform="scale(0.4 0.400598)" d="M422.398 247.661C428.455 245.785 435.633 244.33 441.888 242.912C443.945 248.012 449.451 245.577 453.625 246.505C448.303 250.867 430.514 248.015 422.398 247.661Z"/><path fill="#151515" transform="scale(0.4 0.400598)" d="M382.216 257.646C387.11 256.005 395.578 254.331 400.836 253.129L399.009 255.04C401.474 258.366 409.574 255.215 413.196 256.804L413.318 257.828C409.054 260.761 388.187 257.891 382.216 257.646Z"/><path fill="#151515" transform="scale(0.4 0.400598)" d="M384.637 304.359C386.578 303.208 387.004 302.772 388.259 300.893C390.399 299.963 389.586 299.988 391.537 300.384C394.966 304.224 390.131 314.865 390 320.23C388.648 313.218 387.971 310.638 384.637 304.359Z"/><path fill="#541C1B" transform="scale(0.4 0.400598)" d="M851.641 420.852C851.507 417.483 856.764 416.195 857.569 411.501C858.166 408.019 856.448 405.824 858.79 403.082C860.818 402.807 861.26 403.521 863.405 404.621C865.29 402.049 865.843 401.107 868.451 399.349C866.11 403.827 855.77 418.418 851.641 420.852Z"/><path fill="#151515" transform="scale(0.4 0.400598)" d="M364.883 284.021C369.166 282.778 368.206 278.385 371.399 279.275C372.182 282.253 371.186 286.969 371.397 290.364C368.257 287.908 367.421 287.095 364.883 284.021Z"/><path fill="#151515" transform="scale(0.4 0.400598)" d="M366.046 265.732C367.764 263.626 369.365 262.628 371.57 261.039C371.549 264.507 371.48 268.083 371.548 271.542L370.277 272.374L371.21 273.355L371.498 272.801L370.831 273.218C369.453 270.961 367.173 267.686 366.046 265.732Z"/><path fill="#F45553" transform="scale(0.4 0.400598)" d="M766.82 256.954C814.159 254.17 854.812 290.258 857.68 337.61C860.547 384.962 824.546 425.695 777.217 428.648C729.768 431.609 688.924 395.483 686.049 348.011C683.175 300.539 719.36 259.745 766.82 256.954Z"/><path fill="#541C1B" transform="scale(0.4 0.400598)" d="M768.302 294.483C768.592 294.47 768.881 294.459 769.171 294.452C772.003 294.382 772.134 294.29 773.717 295.81C774.895 298.652 774.26 304.401 774.261 308.055C792.866 310.688 804.771 321.89 807.151 340.875C810.98 340.753 821.048 339.651 822.948 343.784C820.607 347.234 810.662 346.463 807.064 346.382C805.035 365.872 792.676 375.887 774.214 379.117C774.273 383.527 774.116 387.987 774.008 392.399C771.742 392.616 770.474 392.854 768.767 391.391C767.524 388.274 768.144 382.98 768.158 379.186C749.405 376.839 738.243 364.662 735.135 346.405C729.863 346.326 724.513 347.307 720.058 344.276L719.958 342.899C724.174 340.054 729.89 340.818 734.918 340.971C738.401 321.139 748.332 311.58 768.214 308.054L768.302 294.483Z"/><path fill="#F45553" transform="scale(0.4 0.400598)" d="M774.283 314.17C790.63 317.548 797.334 325.125 801.269 341.058C797.151 340.939 791.29 339.96 788.234 343.231L788.315 344.156C791.888 347.302 796.171 346.47 801.004 346.358C797.83 361.349 790.914 368.508 776.409 372.814L775.382 372.756C772.207 370.047 776.124 362.44 773.424 359.115C771.337 358.612 771.087 358.628 769.049 359.308C767.65 361.18 768.176 370.148 768.161 373.286C751.596 368.989 745.665 363.053 741.375 346.515C745.37 346.488 751.566 347.337 754.266 343.894L754.032 343.01C750.594 340.067 746.017 340.803 741.46 340.865C744.591 326.213 751.516 317.972 766.415 314.57C767.469 314.588 766.951 314.522 767.989 315.154C768.84 318.517 767.556 326.427 769.354 328.044C771.331 328.497 771.616 328.584 773.497 327.876C774.849 325.927 774.286 317.299 774.283 314.17Z"/><path fill="#541C1B" transform="scale(0.4 0.400598)" d="M768.46 337.353C770.715 336.414 773.303 336.799 775.188 338.353C777.072 339.907 777.944 342.376 777.453 344.769C776.962 347.162 775.189 349.088 772.845 349.774C769.484 350.758 765.941 348.942 764.775 345.64C763.61 342.337 765.227 338.698 768.46 337.353Z"/><path fill="#151515" transform="scale(0.4 0.400598)" d="M492.714 257.578C501.393 253.688 517.837 257.397 526.543 258.983C529.348 259.494 533.163 257.654 536.869 258.635L537.961 259.652C537.746 261.924 537.657 261.858 535.881 263.839L536.504 263.991C540.458 264.992 541.063 266.082 544.178 267.723C547.069 269.246 554.726 268.634 558.365 268.544L558.431 278.542C562.46 282.505 567.502 286.699 568.608 292.477C547.612 266.052 525.82 257.126 492.714 257.578Z"/><path fill="#151515" transform="scale(0.4 0.400598)" d="M566.669 394.652C565.805 399.381 558.752 405.164 555.02 408.88C556.587 410.186 558.218 411.161 558.625 412.961C556.118 416.271 553.05 414.513 549.55 413.34C547.284 414.626 538.155 419.361 537.202 421.15L537.59 423.599C535.509 426.34 531.882 423.659 529.065 424.501C519.601 427.328 500.677 430.997 490.995 428.334L490.725 427.334C523.269 430.291 545.45 417.985 566.669 394.652Z"/><path fill="#151515" transform="scale(0.4 0.400598)" d="M420.85 372.862C417.638 370.387 417.817 368.561 416.794 364.845C415.025 365.879 416.858 370.026 415.027 373.422L414.132 373.452L413.134 372.255C412.996 368.98 412.466 361.901 413.4 359.042L414.119 359.12L415.322 360.921C416.14 357.018 413.486 342.298 415.445 339.057C415.688 352.485 416.572 360.214 420.85 372.862Z"/><path fill="#151515" transform="scale(0.4 0.400598)" d="M484.882 432.088C487.419 431.69 506.438 431.342 508.787 432.108L507.44 433.042L507.884 434.426L508.026 435.092C506.222 436.141 489.793 435.897 487.15 434.662C485.303 433.798 485.732 433.86 484.882 432.088Z"/><path fill="#151515" transform="scale(0.4 0.400598)" d="M458.038 267.997C459.367 265.918 462.872 263.571 465.254 262.975C464.155 261.769 463.871 260.674 464.412 259.238C466.932 258.541 477.142 259.283 480.31 259.407C471.243 262.083 466.505 263.853 458.038 267.997Z"/><path fill="#151515" transform="scale(0.4 0.400598)" d="M446.761 275.912C445.76 273.215 443.906 273.078 444.701 269.467C445.609 268.98 453.205 269.443 456.217 269.122L446.761 275.912Z"/><path fill="#151515" transform="scale(0.4 0.400598)" d="M444.205 406.86C447.374 409.426 450.37 411.856 453.67 414.261C450.576 413.698 447.011 414.676 444.844 413.432C443.721 411.704 444.122 409.063 444.205 406.86Z"/><path fill="#151515" transform="scale(0.4 0.400598)" d="M433.425 288.967C434.486 285.315 433.4 283.216 434.523 280.927C436.232 279.866 439.079 280.546 441.425 280.705C438.736 283.415 435.972 286.128 433.425 288.967Z"/><path fill="#151515" transform="scale(0.4 0.400598)" d="M376.761 290.176C378.553 290.002 379.758 289.721 381.418 290.475C382.004 292.599 381.457 292.833 380.642 295.342C378.465 294.335 377.074 292.557 376.761 290.176Z"/><path fill="#151515" transform="scale(0.4 0.400598)" d="M413.501 309.626C414.327 310.054 414.75 310.427 415.488 310.98C416.09 312.904 415.126 314.679 414.408 316.708C414.115 316.685 413.618 316.399 413.311 316.254C412.791 313.46 413.057 312.456 413.501 309.626Z"/><path fill="#151515" transform="scale(0.4 0.400598)" d="M423.733 388.603L426.272 390.175C427.201 392.213 427.023 391.317 426.461 393.967L424.005 393.465C422.858 391.787 423.433 391.137 423.733 388.603Z"/></svg>