
<!-- Generator: visioncortex VTracer 0.6.4 -->
<svg version="1.1" xmlns="http://www.w3.org/2000/svg" viewBox="0 0 1280 411" preserveAspectRatio="xMidYMid meet">
<path d="M0 0 C2.098 0.003 4.194 -0.02 6.292 -0.046 C14.641 -0.085 22.222 0.799 30.233 3.316 C31.344 3.655 32.455 3.994 33.6 4.343 C38.616 6.163 43.066 7.937 47.233 11.316 C47.233 11.976 47.233 12.636 47.233 13.316 C47.893 13.316 48.553 13.316 49.233 13.316 C52.606 20.063 53.18 25.612 51.108 32.878 C49.445 37.447 46.898 41.109 43.233 44.316 C35.335 46.948 28.432 44.945 20.842 42.246 C12.241 39.202 2.408 36.811 -6.767 38.316 C-7.427 39.306 -8.087 40.296 -8.767 41.316 C-4.415 44.33 -0.143 45.415 4.92 46.628 C24.871 51.672 43.13 56.463 55.233 74.316 C59.61 82.227 59.473 93.666 57.002 102.269 C55.005 107.583 52.378 112.598 49.233 117.316 C48.573 117.316 47.913 117.316 47.233 117.316 C47.233 117.976 47.233 118.636 47.233 119.316 C34.796 131.468 16.562 133.893 -0.017 133.753 C-1.278 133.746 -2.54 133.739 -3.839 133.732 C-13.95 133.56 -23.139 132.368 -32.767 129.316 C-33.89 128.965 -35.013 128.614 -36.169 128.253 C-43.555 125.571 -50.001 121.671 -54.767 115.316 C-57.399 108.418 -57.219 102.181 -54.767 95.316 C-53.642 92.816 -53.642 92.816 -52.767 91.316 C-52.107 91.316 -51.447 91.316 -50.767 91.316 C-50.437 90.326 -50.107 89.336 -49.767 88.316 C-44.96 85.097 -39.285 85.58 -33.767 86.316 C-30.065 87.595 -26.59 89.123 -23.044 90.784 C-16.502 93.841 -9.505 96.463 -2.22 96.413 C-1.376 96.41 -0.532 96.407 0.338 96.404 C1.211 96.395 2.084 96.387 2.983 96.378 C3.871 96.374 4.759 96.369 5.674 96.365 C7.861 96.353 10.047 96.336 12.233 96.316 C12.367 93.886 12.367 93.886 11.233 91.316 C5.705 88.572 -0.277 87.396 -6.26 85.97 C-22.963 81.959 -40.226 77.558 -50.123 62.214 C-51.158 60.278 -51.995 58.369 -52.767 56.316 C-53.18 55.264 -53.592 54.212 -54.017 53.128 C-56.234 41.86 -55.227 30.225 -48.896 20.417 C-43.805 13.854 -38.502 9.464 -31.08 5.691 C-29.941 5.1 -28.803 4.51 -27.63 3.902 C-18.811 -0.018 -9.5 -0.03 0 0 Z M-27.767 12.316 C-28.097 12.976 -28.427 13.636 -28.767 14.316 C-27.447 13.656 -26.127 12.996 -24.767 12.316 C-25.757 12.316 -26.747 12.316 -27.767 12.316 Z M-36.767 18.316 C-37.097 18.976 -37.427 19.636 -37.767 20.316 C-37.107 20.316 -36.447 20.316 -35.767 20.316 C-36.097 19.656 -36.427 18.996 -36.767 18.316 Z M-39.767 21.316 C-39.767 24.316 -39.767 24.316 -39.767 24.316 Z M-44.767 30.316 C-45.097 31.966 -45.427 33.616 -45.767 35.316 C-45.107 34.656 -44.447 33.996 -43.767 33.316 C-44.097 32.326 -44.427 31.336 -44.767 30.316 Z " fill="#FEFEFE" transform="translate(652.76708984375,132.684326171875)"/>
<path d="M0 0 C3.776 3.219 4.944 7.259 6 12 C5.688 15 5.688 15 5 17 C5 17.33 5 17.66 5 18 C5.99 18.33 6.98 18.66 8 19 C8.205 20.132 8.41 21.264 8.621 22.43 C8.893 23.911 9.165 25.393 9.438 26.875 C9.572 27.621 9.707 28.368 9.846 29.137 C10.545 33.185 10.545 33.185 12 37 C12.161 36.325 12.322 35.651 12.487 34.956 C13.234 31.843 13.992 28.734 14.75 25.625 C15.129 24.034 15.129 24.034 15.516 22.41 C19.7 5.359 19.7 5.359 24.438 0.5 C29.206 -2.291 32.886 -3.276 38.438 -3.25 C40.075 -3.258 40.075 -3.258 41.746 -3.266 C47.171 -2.823 51.538 -1.386 55.674 2.3 C58.445 5.853 59.181 10.251 60.188 14.562 C60.435 15.542 60.682 16.522 60.936 17.532 C61.643 20.35 62.323 23.174 63 26 C63.345 27.372 63.692 28.743 64.043 30.113 C64.713 32.738 65.366 35.366 66 38 C66.254 36.779 66.508 35.559 66.77 34.301 C68.353 26.714 69.941 19.128 71.625 11.562 C71.844 10.574 72.063 9.585 72.289 8.566 C73.7 3.473 75.616 1.027 80 -2 C86.413 -4.245 96.713 -4.292 103.125 -1.875 C108.031 1.324 110.556 4.057 111.879 9.844 C112.475 16.542 110.109 22.581 108.062 28.875 C107.647 30.195 107.233 31.516 106.822 32.837 C105.974 35.552 105.12 38.264 104.261 40.975 C102.31 47.164 100.506 53.396 98.688 59.625 C90.354 88.153 90.354 88.153 83.562 92.312 C74.191 96.752 63.355 95.961 53.73 92.656 C53.159 92.44 52.588 92.223 52 92 C52 91.34 52 90.68 52 90 C51.392 89.807 50.783 89.613 50.156 89.414 C46.964 87.321 46.623 84.979 45.5 81.375 C45.189 80.392 45.189 80.392 44.872 79.39 C43.1 73.661 41.624 67.854 40.256 62.017 C39.692 58.732 39.692 58.732 38 56 C37.713 57.119 37.713 57.119 37.421 58.26 C36.54 61.676 35.645 65.088 34.75 68.5 C34.45 69.673 34.149 70.846 33.84 72.055 C29.399 88.875 29.399 88.875 23.562 92.438 C15.01 96.189 3.76 96.489 -5.188 93.75 C-10.48 91.58 -12.75 88.896 -15 83.688 C-17.038 78.263 -18.481 72.713 -19.922 67.105 C-21.08 62.625 -22.375 58.187 -23.688 53.75 C-23.902 53.023 -24.117 52.296 -24.338 51.547 C-25.187 48.683 -26.055 45.834 -27 43 C-26.67 42.01 -26.34 41.02 -26 40 C-26.66 40 -27.32 40 -28 40 C-28.177 39.344 -28.353 38.688 -28.535 38.012 C-29.334 35.049 -30.135 32.087 -30.938 29.125 C-31.215 28.092 -31.493 27.06 -31.779 25.996 C-32.047 25.01 -32.314 24.024 -32.59 23.008 C-32.836 22.097 -33.082 21.185 -33.336 20.247 C-33.931 17.992 -33.931 17.992 -35 16 C-35.509 9.889 -35.089 6.862 -31 2 C-23.252 -5.167 -8.921 -5.474 0 0 Z M2 20 C-0.04 21.363 -0.04 21.363 -2 23 C-2 23.66 -2 24.32 -2 25 C-0.68 24.34 0.64 23.68 2 23 C2 22.01 2 21.02 2 20 Z M-7 28 C-7.99 29.485 -7.99 29.485 -9 31 C-7.68 30.34 -6.36 29.68 -5 29 C-5.66 28.67 -6.32 28.34 -7 28 Z M-17 35 C-17.33 35.66 -17.66 36.32 -18 37 C-17.01 36.67 -16.02 36.34 -15 36 C-15.66 35.67 -16.32 35.34 -17 35 Z M-20 37 C-20.33 37.66 -20.66 38.32 -21 39 C-20.01 38.67 -19.02 38.34 -18 38 C-18.66 37.67 -19.32 37.34 -20 37 Z M82 80 C82.33 80.66 82.66 81.32 83 82 C83.33 81.34 83.66 80.68 84 80 C83.34 80 82.68 80 82 80 Z " fill="#FEFEFE" transform="translate(485,170)"/>
<path d="M0 0 C1.281 0 2.562 0 3.882 0 C5.27 0.011 6.658 0.021 8.046 0.032 C9.473 0.035 10.901 0.038 12.329 0.04 C16.076 0.048 19.822 0.068 23.569 0.09 C27.396 0.11 31.224 0.119 35.052 0.129 C42.554 0.151 50.055 0.185 57.557 0.227 C58.052 1.217 58.052 1.217 58.557 2.227 C59.217 1.567 59.877 0.907 60.557 0.227 C68.096 -0.784 75.166 -0.081 81.557 4.227 C85.592 9.043 86.83 14.985 86.432 21.165 C85.806 25.945 84.571 30.389 81.557 34.227 C73.235 40.462 59.363 38.312 49.37 38.352 C48.366 38.357 47.362 38.362 46.327 38.366 C45.378 38.364 44.43 38.362 43.452 38.36 C42.605 38.359 41.758 38.358 40.885 38.356 C38.557 38.227 38.557 38.227 36.314 37.656 C35.734 37.515 35.155 37.373 34.557 37.227 C34.227 37.557 33.897 37.887 33.557 38.227 C31.224 38.268 28.89 38.269 26.557 38.227 C26.604 38.952 26.65 39.676 26.698 40.422 C26.935 46.766 26.759 50.369 22.557 55.227 C24.958 52.103 26.127 51.286 30.097 50.741 C31.506 50.728 32.915 50.738 34.323 50.766 C35.451 50.767 35.451 50.767 36.602 50.769 C38.193 50.775 39.783 50.791 41.373 50.815 C43.785 50.852 46.196 50.856 48.608 50.856 C50.159 50.866 51.71 50.877 53.26 50.891 C53.972 50.893 54.684 50.896 55.417 50.898 C67.023 51.113 67.023 51.113 71.091 54.506 C76.005 60.123 76.934 65.277 76.827 72.489 C76.455 76.264 75.334 78.896 73.557 82.227 C72.897 82.227 72.237 82.227 71.557 82.227 C71.557 82.887 71.557 83.547 71.557 84.227 C61.658 89.071 51.304 88.359 40.495 88.29 C39.139 88.285 37.783 88.28 36.427 88.276 C33.137 88.264 29.847 88.248 26.557 88.227 C26.589 89.543 26.589 89.543 26.621 90.886 C26.689 94.162 26.739 97.438 26.777 100.715 C26.797 102.129 26.824 103.543 26.859 104.957 C26.908 106.998 26.93 109.037 26.948 111.079 C26.979 112.917 26.979 112.917 27.011 114.792 C26.467 118.91 25.188 121.046 22.557 124.227 C21.567 124.557 20.577 124.887 19.557 125.227 C19.557 125.887 19.557 126.547 19.557 127.227 C8.618 130.912 0.496 132.768 -10.443 128.227 C-14.073 125.991 -17.103 123.368 -18.443 119.227 C-19.221 114.578 -19.562 110.129 -19.54 105.418 C-19.537 104.178 -19.534 102.937 -19.531 101.659 C-19.522 100.382 -19.514 99.105 -19.505 97.79 C-19.501 96.486 -19.496 95.182 -19.491 93.838 C-19.48 90.635 -19.463 87.431 -19.443 84.227 C-21.285 84.299 -21.285 84.299 -23.165 84.372 C-26.706 84.369 -28.896 83.95 -31.88 81.915 C-32.539 81.485 -33.198 81.056 -33.876 80.614 C-35.443 79.227 -35.443 79.227 -36.443 76.227 C-37.103 76.227 -37.763 76.227 -38.443 76.227 C-41.198 70.027 -41.66 62.429 -39.767 55.895 C-38.943 53.977 -38.943 53.977 -37.443 51.227 C-36.123 51.227 -34.803 51.227 -33.443 51.227 C-33.608 52.114 -33.773 53.001 -33.943 53.915 C-34.441 57.555 -34.643 61.18 -34.755 64.852 C-34.793 65.937 -34.83 67.023 -34.868 68.141 C-34.347 71.922 -33.056 73.507 -30.443 76.227 C-27.063 78.558 -23.446 78.688 -19.443 79.227 C-19.449 78.428 -19.456 77.629 -19.463 76.807 C-19.523 69.259 -19.569 61.712 -19.598 54.165 C-19.614 50.285 -19.635 46.406 -19.669 42.526 C-19.702 38.778 -19.72 35.031 -19.727 31.283 C-19.733 29.857 -19.744 28.431 -19.76 27.005 C-19.931 11.358 -19.931 11.358 -14.068 4.415 C-9.548 0.648 -5.811 -0.023 0 0 Z M54.557 5.227 C55.557 7.227 55.557 7.227 55.557 7.227 Z M52.557 8.227 C52.557 11.227 52.557 11.227 52.557 11.227 Z M50.557 11.227 C48.577 14.197 48.577 14.197 46.557 17.227 C46.887 17.887 47.217 18.547 47.557 19.227 C48.877 17.247 50.197 15.267 51.557 13.227 C51.227 12.567 50.897 11.907 50.557 11.227 Z M45.557 19.227 C44.897 20.877 44.237 22.527 43.557 24.227 C44.547 23.567 45.537 22.907 46.557 22.227 C46.227 21.237 45.897 20.247 45.557 19.227 Z M42.557 24.227 C40.577 27.197 40.577 27.197 38.557 30.227 C38.887 30.887 39.217 31.547 39.557 32.227 C41.685 29.921 41.685 29.921 43.557 27.227 C43.227 26.237 42.897 25.247 42.557 24.227 Z M37.557 32.227 C38.557 34.227 38.557 34.227 38.557 34.227 Z M19.557 56.227 C19.887 56.887 20.217 57.547 20.557 58.227 C20.887 57.567 21.217 56.907 21.557 56.227 C20.897 56.227 20.237 56.227 19.557 56.227 Z M18.557 58.227 C16.247 60.537 13.937 62.847 11.557 65.227 C14.803 65.568 14.803 65.568 17.245 62.727 C18.008 61.902 18.771 61.077 19.557 60.227 C19.227 59.567 18.897 58.907 18.557 58.227 Z M-5.904 76.969 C-6.865 77.343 -7.827 77.717 -8.818 78.102 C-12.009 79.332 -15.101 80.483 -18.443 81.227 C-18.443 81.887 -18.443 82.547 -18.443 83.227 C-12.137 82.118 -7.067 80.295 -1.443 77.227 C-3.469 75.928 -3.469 75.928 -5.904 76.969 Z " fill="#FEFEFE" transform="translate(208.442626953125,134.77294921875)"/>
<path d="M0 0 C9.49 8.238 15.645 16.24 17.043 28.887 C17.45 35.331 16.888 40.401 13.23 45.887 C12.57 45.887 11.91 45.887 11.23 45.887 C11.23 46.547 11.23 47.207 11.23 47.887 C5.237 50.547 -0.747 50.14 -7.168 50.082 C-8.358 50.079 -9.548 50.076 -10.774 50.073 C-14.564 50.062 -18.354 50.037 -22.145 50.012 C-24.719 50.002 -27.293 49.993 -29.867 49.984 C-36.168 49.962 -42.469 49.929 -48.77 49.887 C-46.039 54.698 -44.465 55.896 -39.23 57.387 C-30.507 59.159 -22.381 57.207 -14.145 54.262 C-9.268 52.588 -5.108 52.234 -0.082 53.637 C3.425 55.533 5.545 57.653 7.48 61.137 C8.834 66.101 8.802 70.204 7.168 75.012 C1.13 83.972 -7.996 87.289 -18.227 89.472 C-36.844 92.507 -55.257 89.884 -70.77 78.887 C-71.677 78.247 -72.585 77.608 -73.52 76.949 C-84.301 67.066 -88.954 55.257 -89.734 40.773 C-89.828 30.385 -87.462 20.481 -81.707 11.762 C-79.77 9.887 -79.77 9.887 -76.77 9.887 C-76.695 9.144 -76.62 8.402 -76.543 7.637 C-74.865 1.671 -68.162 -1.765 -63.012 -4.668 C-43.701 -13.966 -17.287 -13.191 0 0 Z M-76.77 9.887 C-76.44 10.547 -76.11 11.207 -75.77 11.887 C-75.11 11.557 -74.45 11.227 -73.77 10.887 C-74.76 10.557 -75.75 10.227 -76.77 9.887 Z M-73.77 11.887 C-73.44 12.547 -73.11 13.207 -72.77 13.887 C-72.11 13.557 -71.45 13.227 -70.77 12.887 C-71.76 12.557 -72.75 12.227 -73.77 11.887 Z M-68.77 15.887 C-68.77 16.547 -68.77 17.207 -68.77 17.887 C-67.78 18.217 -66.79 18.547 -65.77 18.887 C-66.1 17.897 -66.43 16.907 -66.77 15.887 C-67.43 15.887 -68.09 15.887 -68.77 15.887 Z M-65.77 18.887 C-65.11 20.537 -64.45 22.187 -63.77 23.887 C-63.11 23.887 -62.45 23.887 -61.77 23.887 C-63.078 20.765 -63.078 20.765 -65.77 18.887 Z M-47.707 23.324 C-49.144 25.123 -49.144 25.123 -48.77 28.887 C-40.19 28.887 -31.61 28.887 -22.77 28.887 C-23.26 23.937 -23.26 23.937 -26.145 21.637 C-33.291 16.873 -41.003 18.351 -47.707 23.324 Z " fill="#FEFEFE" transform="translate(1053.76953125,176.11328125)"/>
<path d="M0 0 C9.851 8.454 14.438 17.092 15.613 30.138 C15.724 33.372 15.748 36.592 15.73 39.828 C15.733 40.998 15.736 42.168 15.739 43.373 C15.741 45.822 15.736 48.272 15.723 50.721 C15.707 54.472 15.723 58.221 15.742 61.971 C15.74 64.361 15.736 66.751 15.73 69.141 C15.737 70.258 15.743 71.376 15.749 72.528 C15.735 74.091 15.735 74.091 15.72 75.685 C15.718 76.597 15.715 77.509 15.713 78.449 C15.098 82.6 13.084 85.246 10.207 88.207 C4.696 91.681 -1.295 92.61 -7.691 91.488 C-14.683 89.83 -18.442 87.962 -22.668 82.02 C-23.468 82.725 -23.468 82.725 -24.285 83.445 C-32.724 90.497 -40.367 92.639 -51.336 92.379 C-56.705 91.8 -61.819 90.416 -66.668 88.02 C-67.328 87.03 -67.988 86.04 -68.668 85.02 C-69.608 84.801 -69.608 84.801 -70.566 84.578 C-75.005 83.398 -77.415 78.767 -79.668 75.02 C-82.538 67.616 -82.551 58.443 -79.949 50.949 C-75.735 42.847 -69.112 37.942 -60.668 35.02 C-60.02 34.794 -59.371 34.568 -58.703 34.336 C-53.073 32.666 -47.493 32.843 -41.668 33.02 C-41.008 33.02 -40.348 33.02 -39.668 33.02 C-39.338 32.69 -39.008 32.36 -38.668 32.02 C-36.485 31.785 -34.296 31.606 -32.105 31.457 C-30.908 31.373 -29.71 31.289 -28.477 31.203 C-27.55 31.143 -26.623 31.082 -25.668 31.02 C-26.977 27.898 -26.977 27.898 -29.668 26.02 C-32.225 25.865 -34.734 25.781 -37.293 25.77 C-38.422 25.763 -38.422 25.763 -39.573 25.755 C-46.35 25.819 -52.605 26.987 -59.18 28.559 C-63.076 29.073 -65.131 28.676 -68.668 27.02 C-72.146 23.98 -74.531 20.564 -74.941 15.938 C-75.215 5.901 -75.215 5.901 -72.73 1.895 C-53.296 -10.004 -19.367 -14.376 0 0 Z M-41.668 36.02 C-41.998 38 -42.328 39.98 -42.668 42.02 C-42.008 41.36 -41.348 40.7 -40.668 40.02 C-40.986 37.911 -40.986 37.911 -41.668 36.02 Z M-43.668 43.02 C-43.998 44.67 -44.328 46.32 -44.668 48.02 C-44.008 47.36 -43.348 46.7 -42.668 46.02 C-42.998 45.03 -43.328 44.04 -43.668 43.02 Z M-45.668 48.02 C-44.668 51.02 -44.668 51.02 -44.668 51.02 Z M-46.668 51.02 C-46.998 52.34 -47.328 53.66 -47.668 55.02 C-47.008 54.69 -46.348 54.36 -45.668 54.02 C-45.998 53.03 -46.328 52.04 -46.668 51.02 Z M-42.668 57.02 C-43.028 59.827 -43.17 61.361 -41.422 63.652 C-38.665 65.802 -36.283 65.499 -32.898 65.355 C-29.338 64.819 -27.84 63.892 -25.668 61.02 C-25.269 57.973 -25.374 55.072 -25.668 52.02 C-31.933 51.628 -38.055 52.406 -42.668 57.02 Z M-48.668 55.02 C-48.998 56.34 -49.328 57.66 -49.668 59.02 C-49.008 58.69 -48.348 58.36 -47.668 58.02 C-47.998 57.03 -48.328 56.04 -48.668 55.02 Z M-50.668 59.02 C-49.668 61.02 -49.668 61.02 -49.668 61.02 Z M-51.668 61.02 C-51.998 62.34 -52.328 63.66 -52.668 65.02 C-52.008 64.69 -51.348 64.36 -50.668 64.02 C-50.998 63.03 -51.328 62.04 -51.668 61.02 Z M-53.668 65.02 C-53.668 68.02 -53.668 68.02 -53.668 68.02 Z M-55.668 68.02 C-54.668 70.02 -54.668 70.02 -54.668 70.02 Z M-57.668 71.02 C-56.668 73.02 -56.668 73.02 -56.668 73.02 Z M-60.668 75.02 C-59.668 77.02 -59.668 77.02 -59.668 77.02 Z M-64.668 80.02 C-66.153 82 -66.153 82 -67.668 84.02 C-66.348 83.36 -65.028 82.7 -63.668 82.02 C-63.998 81.36 -64.328 80.7 -64.668 80.02 Z " fill="#FEFEFE" transform="translate(867.66796875,173.98046875)"/>
<path d="M0 0 C4.477 3.504 6.011 6.428 7 12 C7.144 15.674 7.12 19.326 7 23 C7.869 22.965 8.738 22.93 9.633 22.895 C21.41 22.618 21.41 22.618 26 26 C30.26 30.554 30.294 35.546 30.215 41.531 C29.797 46.338 27.977 49.096 24.5 52.312 C18.438 56.404 15.618 55 7 55 C7.33 64.24 7.66 73.48 8 83 C11.589 84.794 12.673 85.189 16.375 85.312 C21.419 85.778 23.525 87.356 27 91 C30.43 96.294 29.768 102.981 29 109 C26.887 113.707 23.575 116 18.875 117.875 C17.593 118.282 16.301 118.658 15 119 C14.404 119.183 13.809 119.366 13.195 119.555 C1.973 121.831 -11.037 120.278 -20.875 114.375 C-27.191 109.767 -30.968 103.478 -33 96 C-33.262 92.812 -33.233 89.642 -33.195 86.445 C-33.192 85.544 -33.19 84.642 -33.187 83.713 C-33.176 80.85 -33.151 77.988 -33.125 75.125 C-33.115 73.177 -33.106 71.229 -33.098 69.281 C-33.076 64.521 -33.041 59.76 -33 55 C-34.893 55.039 -34.893 55.039 -36.824 55.078 C-40.727 55.158 -42.88 54.496 -46 52 C-50.189 47.362 -50.3 42.564 -50.211 36.535 C-49.779 31.342 -48.285 28.11 -44.25 24.625 C-40.748 22.874 -37.884 22.311 -34 22 C-33.951 21.047 -33.902 20.095 -33.852 19.113 C-33.777 17.859 -33.702 16.605 -33.625 15.312 C-33.555 14.071 -33.486 12.83 -33.414 11.551 C-33.036 8.307 -32.38 5.934 -31 3 C-30.34 3 -29.68 3 -29 3 C-29 2.34 -29 1.68 -29 1 C-20.901 -4.785 -8.614 -4.874 0 0 Z M-22 101 C-20.691 104.122 -20.691 104.122 -18 106 C-19.309 102.878 -19.309 102.878 -22 101 Z M-15 108 C-14.67 108.66 -14.34 109.32 -14 110 C-11.473 110.656 -11.473 110.656 -9 111 C-9 110.34 -9 109.68 -9 109 C-11.97 108.505 -11.97 108.505 -15 108 Z " fill="#FEFEFE" transform="translate(756,146)"/>
<path d="M0 0 C3.442 2.631 5.028 4.863 6.312 8.93 C6.594 11.193 6.8 13.466 6.938 15.742 C7.012 16.904 7.087 18.065 7.164 19.262 C7.213 20.142 7.262 21.023 7.312 21.93 C8.265 21.979 9.218 22.028 10.199 22.078 C11.453 22.153 12.708 22.228 14 22.305 C15.241 22.374 16.483 22.444 17.762 22.516 C21.041 22.898 23.391 23.432 26.312 24.93 C28.957 28.304 29.677 30.671 29.312 34.93 C27.332 35.26 25.352 35.59 23.312 35.93 C24.282 35.909 25.251 35.888 26.25 35.867 C29.312 35.93 29.312 35.93 30.312 36.93 C30.442 41.829 30.176 46.484 27.062 50.43 C22.581 54.504 18.977 55.186 13 55.055 C11.931 55.037 10.863 55.019 9.762 55 C8.549 54.965 8.549 54.965 7.312 54.93 C7.393 59.368 7.506 63.805 7.625 68.242 C7.659 70.136 7.659 70.136 7.693 72.068 C7.729 73.277 7.764 74.485 7.801 75.73 C7.827 76.846 7.853 77.961 7.88 79.111 C8.09 81.926 8.09 81.926 9.673 83.787 C12.079 85.464 14.291 85.434 17.188 85.68 C22.762 86.475 22.762 86.475 25.176 88.469 C29.038 93.824 29.987 99.371 29.312 105.93 C27.672 111.111 26.039 114.172 21.312 116.93 C9.911 121.611 -3.622 121.629 -15.066 117.188 C-23.185 113.292 -28.46 108.075 -31.551 99.548 C-33.669 92.332 -34.054 85.732 -33.875 78.242 C-33.855 76.6 -33.855 76.6 -33.834 74.924 C-33.799 72.259 -33.75 69.594 -33.688 66.93 C-33.028 66.93 -32.367 66.93 -31.688 66.93 C-31.688 66.27 -31.688 65.61 -31.688 64.93 C-32.347 64.93 -33.008 64.93 -33.688 64.93 C-33.688 61.63 -33.688 58.33 -33.688 54.93 C-35.513 55.023 -35.513 55.023 -37.375 55.117 C-41.306 55.103 -43.584 54.501 -46.688 51.93 C-50.903 45.907 -51.56 40.124 -50.688 32.93 C-49.083 28.788 -47.084 25.812 -43.312 23.43 C-40.074 22.813 -36.978 22.899 -33.688 22.93 C-33.734 21.916 -33.78 20.903 -33.828 19.859 C-33.866 18.508 -33.902 17.156 -33.938 15.805 C-33.988 14.807 -33.988 14.807 -34.039 13.789 C-34.14 8.642 -32.919 5.876 -29.688 1.93 C-21.545 -4.347 -9.017 -5.719 0 0 Z M7.312 39.93 C11.791 39.483 11.791 39.483 15.312 36.93 C11.044 36.93 10.374 37.306 7.312 39.93 Z M4.312 39.93 C3.653 40.59 2.992 41.25 2.312 41.93 C3.633 41.6 4.952 41.27 6.312 40.93 C5.653 40.6 4.992 40.27 4.312 39.93 Z M0.312 41.93 C-0.018 42.59 -0.347 43.25 -0.688 43.93 C0.303 43.6 1.293 43.27 2.312 42.93 C1.653 42.6 0.992 42.27 0.312 41.93 Z M-6.688 45.93 C-7.678 46.425 -7.678 46.425 -8.688 46.93 C-8.688 47.59 -8.688 48.25 -8.688 48.93 C-7.367 48.27 -6.048 47.61 -4.688 46.93 C-5.347 46.6 -6.008 46.27 -6.688 45.93 Z M-15.688 51.93 C-16.018 52.59 -16.347 53.25 -16.688 53.93 C-15.697 53.6 -14.707 53.27 -13.688 52.93 C-14.347 52.6 -15.008 52.27 -15.688 51.93 Z M-21.688 55.93 C-22.678 57.415 -22.678 57.415 -23.688 58.93 C-22.367 58.27 -21.048 57.61 -19.688 56.93 C-20.347 56.6 -21.008 56.27 -21.688 55.93 Z M-25.688 58.93 C-27.324 60.89 -27.324 60.89 -28.688 62.93 C-25.566 61.621 -25.566 61.621 -23.688 58.93 C-24.347 58.93 -25.008 58.93 -25.688 58.93 Z " fill="#FEFEFE" transform="translate(933.6875,146.0703125)"/>
<path d="M0 0 C5.354 4.898 6.794 10.16 7.171 17.187 C7.231 21.052 7.225 24.915 7.195 28.781 C7.192 30.205 7.189 31.628 7.187 33.052 C7.179 36.774 7.16 40.495 7.137 44.217 C7.117 48.025 7.108 51.833 7.098 55.641 C7.076 63.094 7.042 70.547 7 78 C6.34 78 5.68 78 5 78 C5.99 79.485 5.99 79.485 7 81 C7.259 83.752 7.259 83.752 7.266 87.066 C7.269 88.879 7.269 88.879 7.273 90.729 C7.266 91.994 7.258 93.259 7.25 94.562 C7.262 96.42 7.262 96.42 7.273 98.314 C7.235 116.452 7.235 116.452 2.875 122.438 C-2.634 127.348 -9.657 129.189 -17 129 C-23.648 127.976 -28.797 126.559 -33 121 C-35.009 117.707 -35.268 115.148 -35.319 111.313 C-35.339 110.173 -35.359 109.032 -35.379 107.856 C-35.391 106.63 -35.402 105.404 -35.414 104.141 C-35.433 102.881 -35.453 101.622 -35.473 100.324 C-35.522 96.983 -35.564 93.643 -35.601 90.302 C-35.641 86.89 -35.692 83.478 -35.742 80.066 C-35.838 73.378 -35.923 66.689 -36 60 C-35.01 59.505 -35.01 59.505 -34 59 C-34.33 58.67 -34.66 58.34 -35 58 C-35.119 56.508 -35.17 55.011 -35.193 53.515 C-35.209 52.56 -35.225 51.605 -35.242 50.621 C-35.286 46.224 -35.327 41.826 -35.35 37.429 C-35.367 35.114 -35.394 32.799 -35.432 30.484 C-35.487 27.144 -35.509 23.805 -35.523 20.465 C-35.546 19.437 -35.569 18.41 -35.592 17.352 C-35.573 10.664 -34.414 6.138 -30 1 C-22.021 -5.184 -8.666 -4.621 0 0 Z M-29 63 C-28.67 63.66 -28.34 64.32 -28 65 C-27.34 64.67 -26.68 64.34 -26 64 C-26.99 63.67 -27.98 63.34 -29 63 Z M-20 69 C-19.01 69.99 -18.02 70.98 -17 72 C-16.34 71.67 -15.68 71.34 -15 71 C-17.475 70.01 -17.475 70.01 -20 69 Z M-10 74 C-9.67 74.66 -9.34 75.32 -9 76 C-5.971 76.658 -5.971 76.658 -3 77 C-5.36 74.64 -6.779 74.509 -10 74 Z M-3 77 C-0.285 79.307 -0.285 79.307 2.188 78.625 C2.786 78.419 3.384 78.213 4 78 C1.69 77.67 -0.62 77.34 -3 77 Z " fill="#FEFEFE" transform="translate(333,137)"/>
<path d="M0 0 C0.99 0 1.98 0 3 0 C3.241 1.093 3.241 1.093 3.487 2.209 C8.094 23.139 8.094 23.139 13 44 C13.398 45.702 13.398 45.702 13.805 47.438 C14.055 48.448 14.305 49.459 14.562 50.5 C14.77 51.356 14.978 52.212 15.191 53.094 C15.458 53.723 15.725 54.352 16 55 C17.485 55.495 17.485 55.495 19 56 C21.844 48.064 23.529 40.094 25.105 31.824 C25.308 30.83 25.51 29.836 25.719 28.812 C25.981 27.461 25.981 27.461 26.248 26.082 C26.496 25.395 26.744 24.708 27 24 C27.99 23.67 28.98 23.34 30 23 C30.17 23.638 30.34 24.276 30.516 24.934 C30.758 25.76 31 26.586 31.25 27.438 C31.482 28.261 31.714 29.085 31.953 29.934 C32.808 32.2 32.808 32.2 35.109 32.785 C35.733 32.856 36.357 32.927 37 33 C37.33 31.68 37.66 30.36 38 29 C47.41 26.704 47.41 26.704 52 27 C51.199 38.819 48.175 50.08 40 59 C39.34 59 38.68 59 38 59 C37.749 59.594 37.497 60.189 37.238 60.801 C34.689 65.328 29.916 68.441 25 69.875 C24.34 69.916 23.68 69.957 23 70 C23 70.66 23 71.32 23 72 C8.933 77.296 -7.697 78.726 -22.012 73.453 C-36.19 66.559 -45.894 56.599 -52 42 C-52.951 39.016 -53.108 36.376 -53.062 33.25 C-53.053 32.451 -53.044 31.652 -53.035 30.828 C-53.024 30.225 -53.012 29.622 -53 29 C-52.004 29.052 -52.004 29.052 -50.988 29.105 C-45.68 29.268 -42.431 29.222 -38 26 C-37.01 26 -36.02 26 -35 26 C-34.758 26.566 -34.515 27.132 -34.266 27.715 C-33.763 28.815 -33.763 28.815 -33.25 29.938 C-32.925 30.668 -32.6 31.399 -32.266 32.152 C-31.138 34.188 -31.138 34.188 -28.859 34.754 C-28.246 34.835 -27.632 34.916 -27 35 C-26.795 34.157 -26.59 33.314 -26.379 32.445 C-26.109 31.35 -25.84 30.254 -25.562 29.125 C-25.296 28.034 -25.029 26.944 -24.754 25.82 C-24 23 -24 23 -23 21 C-22.01 21.33 -21.02 21.66 -20 22 C-19.156 23.842 -19.156 23.842 -18.5 26.219 C-18.252 27.068 -18.005 27.918 -17.75 28.793 C-17.25 30.598 -16.75 32.402 -16.25 34.207 C-16.002 35.057 -15.755 35.906 -15.5 36.781 C-15.283 37.566 -15.067 38.35 -14.844 39.158 C-14.565 39.766 -14.287 40.374 -14 41 C-13.01 41.33 -12.02 41.66 -11 42 C-7.938 31.33 -5.126 20.633 -2.613 9.82 C-2.317 8.55 -2.317 8.55 -2.016 7.254 C-1.843 6.504 -1.671 5.755 -1.493 4.983 C-1.075 3.3 -0.548 1.645 0 0 Z " fill="#FEFEFE" transform="translate(400,190)"/>
<path d="M0 0 C1.176 0.897 1.176 0.897 2.375 1.812 C2.375 2.472 2.375 3.132 2.375 3.812 C2.964 4.054 3.553 4.295 4.16 4.543 C12.182 9.141 15.792 20.492 18.375 28.812 C18.903 31.198 19.205 33.372 19.375 35.812 C15.451 37.711 11.841 38.203 7.559 38.566 C5.423 38.807 3.445 39.245 1.375 39.812 C0.704 38.022 0.039 36.23 -0.625 34.438 C-0.996 33.44 -1.368 32.442 -1.75 31.414 C-2.625 28.812 -2.625 28.812 -2.625 26.812 C-4.647 27.346 -4.647 27.346 -6.625 28.812 C-7.738 31.786 -7.738 31.786 -8.328 35.352 C-8.456 35.992 -8.583 36.633 -8.715 37.294 C-9.118 39.339 -9.497 41.388 -9.875 43.438 C-10.144 44.826 -10.415 46.214 -10.688 47.602 C-11.352 51.002 -11.994 54.406 -12.625 57.812 C-13.945 57.812 -15.265 57.812 -16.625 57.812 C-16.756 57.23 -16.886 56.647 -17.021 56.047 C-19.441 45.263 -21.922 34.509 -24.645 23.797 C-26.467 16.507 -28.028 9.154 -29.625 1.812 C-31.638 2.363 -31.638 2.363 -33.625 3.812 C-34.782 6.683 -34.782 6.683 -35.441 10.148 C-35.584 10.783 -35.727 11.418 -35.874 12.071 C-36.327 14.107 -36.758 16.147 -37.188 18.188 C-37.48 19.522 -37.773 20.857 -38.068 22.191 C-38.646 24.807 -39.218 27.424 -39.786 30.042 C-40.962 35.326 -42.273 40.571 -43.625 45.812 C-44.615 45.812 -45.605 45.812 -46.625 45.812 C-49.265 39.275 -51.013 32.672 -52.625 25.812 C-54.621 26.348 -54.621 26.348 -56.625 27.812 C-57.984 30.895 -57.984 30.895 -58.875 34.438 C-59.378 36.22 -59.378 36.22 -59.891 38.039 C-60.133 38.954 -60.375 39.87 -60.625 40.812 C-62.547 40.473 -62.547 40.473 -64.625 39.812 C-65.875 37.25 -65.875 37.25 -66.625 34.812 C-69.026 35.008 -69.026 35.008 -71.625 35.812 C-72.059 36.482 -72.494 37.151 -72.941 37.84 C-74.625 39.812 -74.625 39.812 -77.289 40.238 C-78.266 40.201 -79.243 40.164 -80.25 40.125 C-81.232 40.101 -82.215 40.076 -83.227 40.051 C-85.625 39.812 -85.625 39.812 -86.625 38.812 C-86.746 25.53 -80.863 13.024 -71.75 3.5 C-51.717 -15.321 -22.226 -13.917 0 0 Z " fill="#FEFEFE" transform="translate(432.625,176.1875)"/>
<path d="M0 0 C0.925 -0.004 1.85 -0.008 2.803 -0.012 C11.906 0.001 20.57 0.609 29.312 3.25 C30.034 3.466 30.756 3.682 31.499 3.904 C41.358 6.996 50.254 11.288 58.062 18.125 C60.618 17.202 62.772 16.348 64.938 14.688 C73.981 8.038 85.36 8.405 96.062 9.125 C106.593 10.835 114.811 16.498 121.188 24.938 C122.767 27.623 123.445 29.402 124.25 32.312 C125.157 34.944 125.604 35.873 128.074 37.23 C130.386 37.983 132.7 38.554 135.062 39.125 C135.908 39.579 136.754 40.032 137.625 40.5 C140.884 41.336 142.836 40.146 145.875 38.953 C165.231 31.626 191.014 30.567 210.185 39.066 C212.874 40.372 215.543 41.671 218.119 43.19 C220.013 44.3 220.013 44.3 223.062 45.125 C226.878 43.446 228.586 42.153 230.348 38.355 C230.604 37.351 230.861 36.347 231.125 35.312 C233.677 26.774 236.997 22.432 244.391 17.484 C251.311 13.963 257.763 12.591 265.5 12.688 C266.745 12.696 266.745 12.696 268.014 12.704 C274.354 12.861 279.507 13.945 285.062 17.125 C286.094 17.661 287.125 18.197 288.188 18.75 C288.806 19.204 289.425 19.657 290.062 20.125 C290.062 20.785 290.062 21.445 290.062 22.125 C290.723 22.125 291.382 22.125 292.062 22.125 C296.528 27.392 298.415 32.468 300.062 39.125 C301.053 39.187 302.043 39.249 303.062 39.312 C309.074 40.156 313.964 43.799 318.062 48.125 C321.376 46.851 324.492 45.415 327.625 43.75 C334.595 40.234 342.125 36.735 350.062 37.125 C350.392 38.445 350.723 39.765 351.062 41.125 C349.866 41.496 348.67 41.868 347.438 42.25 C338.433 45.261 329.954 48.838 322.062 54.125 C321.402 54.125 320.743 54.125 320.062 54.125 C320.062 54.785 320.062 55.445 320.062 56.125 C316.556 55.569 315.324 54.584 313.25 51.75 C308.654 46.115 303.125 44.846 296.062 44.125 C295.79 43.255 295.79 43.255 295.512 42.367 C292.633 33.421 289.747 26.395 281 21.875 C273.082 18.049 262.999 17.92 254.445 19.656 C247.246 22.234 240.865 26.588 237.375 33.438 C236.09 37.048 235.451 40.322 235.062 44.125 C234.402 44.125 233.743 44.125 233.062 44.125 C233.062 44.785 233.062 45.445 233.062 46.125 C232.134 46.558 231.206 46.991 230.25 47.438 C227.12 48.871 227.12 48.871 225.438 50.875 C224.757 51.494 224.757 51.494 224.062 52.125 C220.259 51.655 217.272 49.635 214 47.75 C196.001 37.892 172.568 37.448 153.062 43.125 C149.582 44.404 146.166 45.748 142.77 47.234 C139.881 48.185 138.824 48.263 136.062 47.125 C134.364 46.145 132.668 45.161 130.996 44.137 C128.962 43.073 127.096 42.612 124.875 42.062 C122.026 41.069 121.26 40.529 119.914 37.773 C119.293 35.847 118.688 33.916 118.098 31.98 C115.67 25.284 111.028 21.368 104.812 18.188 C99.206 15.619 94.518 14.915 88.375 14.875 C87.208 14.844 87.208 14.844 86.018 14.812 C78.753 14.764 72.858 16.68 66.75 20.625 C66.114 21.027 65.479 21.429 64.824 21.844 C63.048 23.136 61.569 24.531 60.062 26.125 C57.27 24.849 55.26 23.504 53.062 21.375 C35.711 6.361 9.81 5.023 -11.938 6.125 C-16.732 6.643 -21.311 7.781 -25.938 9.125 C-26.809 9.33 -27.68 9.535 -28.578 9.746 C-43.038 13.406 -54.339 22.547 -61.938 35.125 C-62.535 36.464 -63.103 37.817 -63.625 39.188 C-64.938 42.125 -64.938 42.125 -66.707 42.844 C-69.261 43.166 -71.39 42.923 -73.938 42.562 C-83.543 41.615 -91.343 42.935 -99.195 48.688 C-101.035 50.159 -101.035 50.159 -102.938 52.125 C-105.062 51.75 -105.062 51.75 -106.938 51.125 C-107.268 49.805 -107.597 48.485 -107.938 47.125 C-94.915 38.387 -83.868 34.314 -67.938 37.125 C-67.796 36.052 -67.796 36.052 -67.652 34.957 C-66.819 31.655 -65.471 29.578 -63.5 26.812 C-62.883 25.929 -62.265 25.046 -61.629 24.137 C-61.071 23.473 -60.513 22.809 -59.938 22.125 C-59.278 22.125 -58.617 22.125 -57.938 22.125 C-57.669 21.486 -57.401 20.846 -57.125 20.188 C-55.938 18.125 -55.938 18.125 -52.938 17.125 C-52.938 16.465 -52.938 15.805 -52.938 15.125 C-36.882 3.925 -19.248 -0.08 0 0 Z " fill="#FEFEFE" transform="translate(654.9375,114.875)"/>
<path d="M0 0 C8.356 7.026 13.894 15.157 14.93 26.235 C15.288 30.924 15.533 35.616 15.75 40.312 C16.428 39.854 17.106 39.395 17.805 38.922 C35.514 27.247 55.123 24.477 75.875 28.688 C81.416 29.978 81.416 29.978 83.75 32.312 C83.75 33.303 83.75 34.292 83.75 35.312 C82.187 35.17 80.625 35.023 79.062 34.875 C78.192 34.794 77.322 34.713 76.426 34.629 C73.75 34.312 73.75 34.312 71.388 33.805 C54.537 30.656 37.382 33.594 22.75 42.312 C20.313 44.061 17.982 45.867 15.688 47.797 C13.78 49.289 11.923 50.265 9.75 51.312 C9.735 50.618 9.721 49.924 9.706 49.208 C9.63 45.992 9.534 42.778 9.438 39.562 C9.415 38.471 9.392 37.379 9.369 36.254 C9.062 26.829 8.617 16.416 1.75 9.312 C1.75 8.653 1.75 7.993 1.75 7.312 C1.069 7.044 0.389 6.776 -0.312 6.5 C-2.458 5.633 -4.581 4.708 -6.688 3.75 C-15.791 0.077 -26.954 0.073 -36.25 3.312 C-37.519 4.029 -38.771 4.779 -40 5.562 C-43.25 7.312 -43.25 7.312 -45.688 6.75 C-46.533 6.276 -47.379 5.801 -48.25 5.312 C-54.362 2.6 -59.341 1.531 -66.062 2.875 C-68.25 3.312 -68.25 3.312 -70.25 2.312 C-70 0.438 -70 0.438 -69.25 -1.688 C-64.83 -4.477 -60.307 -4.325 -55.25 -3.688 C-52.586 -2.719 -52.586 -2.719 -50 -1.562 C-46.251 0.13 -46.251 0.13 -42.188 -0.25 C-41.218 -0.724 -40.249 -1.199 -39.25 -1.688 C-27.043 -7.222 -11.775 -6.114 0 0 Z " fill="#FDFDFD" transform="translate(340.25,123.6875)"/>
<path d="M0 0 C3.215 1.366 4.474 3.268 6.5 6.062 C7.49 6.558 7.49 6.558 8.5 7.062 C8.5 7.723 8.5 8.382 8.5 9.062 C9.16 9.31 9.82 9.558 10.5 9.812 C12.831 10.784 14.964 11.823 17.188 13 C25.557 17.181 33.501 18.598 42.812 18.5 C43.819 18.493 44.826 18.486 45.863 18.479 C55.304 18.276 63.798 17.053 71.562 11.25 C72.532 10.528 73.501 9.806 74.5 9.062 C76.684 9.426 76.684 9.426 78.5 10.062 C77.989 14.634 77.989 14.634 75.855 16.504 C73.429 17.759 70.99 18.94 68.5 20.062 C67.712 20.46 66.925 20.857 66.113 21.266 C51.964 27.272 33.063 25.854 18.891 20.621 C11.309 17.136 4.713 12.603 -1.5 7.062 C-1.999 7.498 -2.498 7.934 -3.012 8.383 C-18.823 21.498 -37.546 24.962 -57.5 24.062 C-57.5 22.413 -57.5 20.762 -57.5 19.062 C-56.116 19.041 -56.116 19.041 -54.703 19.02 C-36.88 18.368 -17.337 15.012 -4.25 1.789 C-2.5 0.062 -2.5 0.062 0 0 Z " fill="#FEFEFE" transform="translate(714.5,256.9375)"/>
<path d="M0 0 C0.688 0.597 0.688 0.597 1.391 1.207 C2.004 1.737 2.618 2.267 3.25 2.812 C3.853 3.335 4.457 3.857 5.078 4.395 C14.921 12.617 26.634 13.051 39 12 C47.748 10.647 53.922 6.245 60 0 C61.32 0.66 62.64 1.32 64 2 C61.575 7.951 56.515 11.992 51 15 C38.462 19.672 22.5 19.989 10 15 C6.816 13.213 3.877 11.245 1 9 C-1.54 10.242 -3.935 11.554 -6.375 13 C-14.494 17.647 -22.839 18.187 -32 18 C-32.33 16.68 -32.66 15.36 -33 14 C-30.063 12.532 -27.133 12.534 -23.875 12.188 C-13.379 10.889 -7.599 7.195 0 0 Z " fill="#FEFEFE" transform="translate(523,262)"/>
<path d="M0 0 C3.379 0.273 4.662 0.607 6.914 3.223 C14.457 15.743 17.951 27.862 15.375 42.562 C13.842 48.64 10.612 54.591 5.992 58.852 C5.335 59.231 4.677 59.61 4 60 C3.01 59.67 2.02 59.34 1 59 C1.375 54.745 2.969 52.856 5.723 49.711 C11.019 42.617 10.878 33.177 9.684 24.773 C8.262 18.342 5.563 12.055 1.75 6.688 C0 4 0 4 0 0 Z " fill="#FEFEFD" transform="translate(1070,176)"/>
<path d="M0 0 C0.33 1.32 0.66 2.64 1 4 C-2 6 -2 6 -5.625 6.75 C-12.245 8.347 -18.049 11.964 -21.938 17.625 C-25.735 25.18 -25.489 34.7 -26 43 C-27.937 43.562 -27.937 43.562 -30 44 C-31.879 42.121 -31.174 39.007 -31.188 36.5 C-31.101 27.034 -29.519 20.284 -25 12 C-24.34 12 -23.68 12 -23 12 C-22.732 11.361 -22.464 10.721 -22.188 10.062 C-21 8 -21 8 -18 7 C-18 6.34 -18 5.68 -18 5 C-11.976 2.122 -6.784 0 0 0 Z " fill="#FEFEFE" transform="translate(205,120)"/>
<path d="M0 0 C0.99 0 1.98 0 3 0 C3 1.32 3 2.64 3 4 C2.01 3.67 1.02 3.34 0 3 C0 2.01 0 1.02 0 0 Z " fill="#F1F1F1" transform="translate(400,190)"/>
</svg>