
<!-- Generator: visioncortex VTracer 0.6.4 -->
<svg version="1.1" xmlns="http://www.w3.org/2000/svg" viewBox="0 0 1280 669" preserveAspectRatio="xMidYMid meet">
<path d="M0 0 C2.805 4.208 1.856 6.099 1 11 C0.67 11.66 0.34 12.32 0 13 C0.837 12.928 1.673 12.856 2.535 12.781 C17.493 11.589 31.333 11.822 46 15 C47.281 15.267 48.563 15.534 49.883 15.809 C59.523 18.073 67.523 22.046 76 27 C76 27.66 76 28.32 76 29 C76.763 29.289 77.526 29.577 78.312 29.875 C81 31 81 31 84 33 C84 33.66 84 34.32 84 35 C85.114 35.268 86.227 35.536 87.375 35.812 C91 37 91 37 93 40 C93.99 40 94.98 40 96 40 C95.783 39.457 95.567 38.915 95.344 38.355 C94.926 37.282 94.926 37.282 94.5 36.188 C94.082 35.126 94.082 35.126 93.656 34.043 C93 32 93 32 93 29 C92.175 29.083 91.35 29.165 90.5 29.25 C85.987 28.928 82.882 27.207 79 25 C79 24.34 79 23.68 79 23 C78.34 23 77.68 23 77 23 C77.33 21.35 77.66 19.7 78 18 C85.788 16.819 92.182 16.455 99 21 C99 21.99 99 22.98 99 24 C99.928 23.917 100.856 23.835 101.812 23.75 C105 24 105 24 106.562 25.812 C107.037 26.534 107.511 27.256 108 28 C109.643 29.038 111.312 30.036 113 31 C115.812 33.062 115.812 33.062 118 35 C118 35.66 118 36.32 118 37 C118.99 37.33 119.98 37.66 121 38 C121 38.66 121 39.32 121 40 C121.99 40 122.98 40 124 40 C124 40.66 124 41.32 124 42 C124.66 42 125.32 42 126 42 C126 42.66 126 43.32 126 44 C126.835 44.34 126.835 44.34 127.688 44.688 C131.684 46.956 134.54 49.619 136 54 C137.32 54 138.64 54 140 54 C140.516 55.196 141.031 56.392 141.562 57.625 C143.537 61.624 145.894 63.994 149.414 66.676 C152.364 69.139 153.785 72.487 155.438 75.875 C158.102 82.523 158.102 82.523 163.188 86.812 C163.786 86.874 164.384 86.936 165 87 C164.34 88.32 163.68 89.64 163 91 C155.125 90.125 155.125 90.125 154 89 C152.001 88.952 150 88.963 148 89 C141.067 89.045 134.582 88.746 127.875 86.938 C124.037 85.848 124.037 85.848 120.125 86 C119.094 86 118.062 86 117 86 C116.34 85.34 115.68 84.68 115 84 C115.66 86.97 116.32 89.94 117 93 C118.114 92.821 119.227 92.642 120.375 92.457 C136.278 90.141 148.895 91.696 163 100 C163.83 100.472 164.66 100.944 165.516 101.43 C167.394 102.539 169.206 103.758 171 105 C171 105.66 171 106.32 171 107 C171.99 107 172.98 107 174 107 C179 112.349 179 112.349 179 115 C179.66 115 180.32 115 181 115 C191.526 127.518 195.283 144.955 194.207 160.99 C193.039 172.328 188.399 182.157 183 192 C182.34 192 181.68 192 181 192 C180.629 193.104 180.629 193.104 180.25 194.23 C178.881 197.264 177.371 198.998 175 201.312 C174.299 202.01 173.598 202.707 172.875 203.426 C171 205 171 205 169 205 C169 205.66 169 206.32 169 207 C157.86 213.497 147.082 218.712 134 219 C134 219.66 134 220.32 134 221 C134.928 221.268 135.856 221.536 136.812 221.812 C141.369 223.51 141.369 223.51 143 226 C143.75 229.625 143.75 229.625 144 233 C143.67 233.33 143.34 233.66 143 234 C144.702 234.217 144.702 234.217 146.438 234.438 C150 235 150 235 151 236 C151.625 238.625 151.625 238.625 151 242 C148.296 244.776 145.346 247.047 142 249 C141.01 249 140.02 249 139 249 C139 249.66 139 250.32 139 251 C137.313 251.772 135.625 252.542 133.938 253.312 C132.998 253.742 132.058 254.171 131.09 254.613 C130.07 255.071 129.051 255.529 128 256 C126.899 256.498 125.798 256.995 124.664 257.508 C88.415 272.27 49.21 266.301 13 255 C-18.912 244.905 -18.912 244.905 -52 241 C-53.493 240.942 -53.493 240.942 -55.016 240.883 C-63.45 240.68 -71.671 241.816 -80 243 C-79.649 243.784 -79.299 244.567 -78.938 245.375 C-78.473 246.674 -78.473 246.674 -78 248 C-78.33 248.66 -78.66 249.32 -79 250 C-78.438 249.99 -77.877 249.979 -77.298 249.968 C-63.716 249.751 -50.476 250.289 -37 252 C-35.952 252.121 -34.904 252.242 -33.824 252.367 C-23.651 253.777 -13.812 257.059 -4 260 C-3.008 260.296 -2.016 260.593 -0.994 260.898 C17.744 266.509 17.744 266.509 24.938 269.125 C56.638 279.692 92.575 280.477 124.011 268.894 C127.798 267.536 130.155 266.758 134 268 C134.75 269.687 134.75 269.687 135 272 C132.12 276.883 127.769 279.247 123 282 C121.884 282.725 121.884 282.725 120.746 283.465 C117.284 285.4 113.746 286.66 110 287.938 C109.239 288.198 108.479 288.458 107.695 288.726 C106.162 289.248 104.629 289.767 103.094 290.283 C101.343 290.882 99.607 291.522 97.875 292.172 C80.712 298.235 60.695 299.322 42.75 296.875 C41.808 296.747 40.867 296.618 39.896 296.486 C30.183 295.05 20.856 292.507 11.455 289.721 C9.18 289.053 6.901 288.415 4.613 287.793 C-4.605 285.263 -4.605 285.263 -8 283 C-9.795 282.366 -11.612 281.791 -13.438 281.25 C-15.182 280.732 -15.182 280.732 -16.961 280.203 C-17.927 279.918 -17.927 279.918 -18.913 279.627 C-21.15 278.955 -23.375 278.253 -25.602 277.547 C-37.271 273.885 -48.948 271.083 -61 269 C-62.632 268.708 -62.632 268.708 -64.297 268.41 C-78.485 266.839 -93.2 267.155 -107.121 270.344 C-110 271 -110 271 -113 271 C-113 270.34 -113 269.68 -113 269 C-113.66 269 -114.32 269 -115 269 C-114.871 266.738 -114.871 266.738 -114 264 C-111.348 261.98 -111.348 261.98 -108.062 260.188 C-106.981 259.583 -105.899 258.978 -104.785 258.355 C-102 257 -102 257 -100 257 C-100 256.34 -100 255.68 -100 255 C-100.66 254.959 -101.32 254.918 -102 254.875 C-106.327 253.613 -109.718 251.07 -113 248 C-113 247.34 -113 246.68 -113 246 C-113.619 245.856 -114.238 245.711 -114.875 245.562 C-117 245 -117 245 -119 244 C-122.083 243.803 -125.163 243.682 -128.25 243.574 C-129.158 243.385 -130.065 243.195 -131 243 C-132.246 241.074 -132.246 241.074 -133 239 C-134.021 238.072 -134.021 238.072 -135.062 237.125 C-137.581 234.363 -137.926 232.719 -138 229 C-136.177 223.745 -133.305 221.252 -129 218 C-130.259 214.223 -131.478 213.863 -134.875 211.938 C-137.647 210.35 -140.34 208.773 -143 207 C-143 206.34 -143 205.68 -143 205 C-143.562 204.765 -144.124 204.531 -144.703 204.289 C-155.57 198.19 -162.479 184.415 -165.938 172.871 C-169.257 155.928 -166.458 140.727 -160 125 C-159.34 125 -158.68 125 -158 125 C-157.918 124.464 -157.835 123.928 -157.75 123.375 C-156.724 120.127 -155.034 117.712 -153 115 C-152.34 115 -151.68 115 -151 115 C-150.505 113.515 -150.505 113.515 -150 112 C-149.34 112 -148.68 112 -148 112 C-147.773 111.443 -147.546 110.886 -147.312 110.312 C-145.645 107.375 -143.41 105.346 -141 103 C-141 102.67 -141 102.34 -141 102 C-141.922 101.818 -141.922 101.818 -142.863 101.633 C-143.672 101.465 -144.48 101.298 -145.312 101.125 C-146.113 100.963 -146.914 100.8 -147.738 100.633 C-150 100 -150 100 -153 98 C-152.125 90.375 -152.125 90.375 -151 87 C-149.406 85.973 -149.406 85.973 -147.5 85.062 C-144.582 83.589 -144.582 83.589 -143.062 80.75 C-143.042 80.173 -143.021 79.595 -143 79 C-142.299 78.876 -141.598 78.752 -140.875 78.625 C-137.929 78.054 -137.929 78.054 -134.938 76.875 C-132 76 -132 76 -129.875 76.625 C-128.947 76.811 -128.947 76.811 -128 77 C-125.767 75.149 -124.298 73.596 -123 71 C-120.03 71 -117.06 71 -114 71 C-114.052 69.836 -114.052 69.836 -114.105 68.648 C-114.447 55.015 -111.718 43.87 -105 32 C-104.34 32 -103.68 32 -103 32 C-103 31.01 -103 30.02 -103 29 C-102.34 29 -101.68 29 -101 29 C-100.763 28.264 -100.526 27.528 -100.281 26.77 C-98.802 23.573 -97.156 21.977 -94.5 19.688 C-93.706 18.99 -92.912 18.293 -92.094 17.574 C-90 16 -90 16 -88 16 C-88 15.34 -88 14.68 -88 14 C-75.27 7.52 -64.797 3.8 -50.539 3.434 C-49.724 3.404 -48.91 3.374 -48.07 3.344 C-47.336 3.325 -46.601 3.306 -45.844 3.287 C-43.754 3.147 -43.754 3.147 -42 1 C-40.117 0.727 -40.117 0.727 -37.875 0.625 C-34.395 0.338 -32.255 -0.27 -29.312 -2.125 C-21.241 -6.547 -8.111 -3.515 0 0 Z M-65 219 C-65.66 220.98 -66.32 222.96 -67 225 C-65.841 224.843 -64.682 224.685 -63.488 224.523 C-56.407 223.748 -49.304 223.667 -42.188 223.625 C-41.075 223.618 -41.075 223.618 -39.94 223.611 C-23.686 223.576 -8.31 226.056 7.501 229.837 C8.65 230.111 9.798 230.386 10.98 230.668 C12.532 231.049 12.532 231.049 14.114 231.438 C16.831 231.967 19.242 232.108 22 232 C21.319 231.319 20.639 230.639 19.938 229.938 C18 227 18 227 18.25 223.188 C18.621 221.61 18.621 221.61 19 220 C15.119 218.735 11.235 218.867 7.202 218.886 C6.031 218.886 6.031 218.886 4.836 218.886 C2.26 218.887 -0.315 218.895 -2.891 218.902 C-4.679 218.904 -6.466 218.906 -8.254 218.907 C-12.956 218.91 -17.658 218.92 -22.36 218.931 C-27.159 218.942 -31.958 218.946 -36.758 218.951 C-46.172 218.962 -55.586 218.979 -65 219 Z " fill="#8695A1" transform="translate(621,180)"/>
<path d="M0 0 C2.536 0.005 5.072 0 7.609 -0.006 C9.233 -0.006 10.857 -0.004 12.482 -0.002 C13.234 -0.004 13.986 -0.006 14.761 -0.009 C18.536 0.008 22.042 0.221 25.712 1.13 C25.052 3.44 24.392 5.75 23.712 8.13 C24.871 7.809 26.03 7.488 27.224 7.158 C34.248 5.612 41.368 5.693 48.525 5.693 C49.266 5.691 50.008 5.689 50.772 5.687 C69.355 5.696 86.903 9.188 104.924 13.569 C107.892 14.262 107.892 14.262 111.712 14.13 C111.032 13.553 110.351 12.975 109.65 12.38 C109.01 11.638 108.371 10.895 107.712 10.13 C107.9 8.13 107.9 8.13 108.712 6.13 C108.898 5.388 109.083 4.645 109.275 3.88 C109.419 3.303 109.563 2.725 109.712 2.13 C115.287 0.25 120.18 -0.157 126.041 -0.128 C126.949 -0.132 127.857 -0.135 128.793 -0.139 C131.778 -0.148 134.762 -0.142 137.747 -0.135 C139.83 -0.137 141.914 -0.139 143.997 -0.141 C148.355 -0.144 152.713 -0.14 157.072 -0.13 C162.653 -0.119 168.233 -0.126 173.814 -0.138 C178.113 -0.145 182.411 -0.142 186.71 -0.137 C188.768 -0.136 190.826 -0.138 192.883 -0.142 C195.76 -0.147 198.636 -0.14 201.513 -0.128 C202.783 -0.134 202.783 -0.134 204.078 -0.141 C208.706 -0.108 212.34 0.436 216.712 2.13 C219.423 2.357 221.984 2.224 224.712 2.13 C224.712 2.79 224.712 3.45 224.712 4.13 C225.64 4.398 226.568 4.667 227.525 4.943 C232.081 6.64 232.081 6.64 233.712 9.13 C234.462 12.755 234.462 12.755 234.712 16.13 C234.382 16.46 234.052 16.79 233.712 17.13 C234.847 17.275 235.981 17.419 237.15 17.568 C240.712 18.13 240.712 18.13 241.712 19.13 C242.337 21.755 242.337 21.755 241.712 25.13 C239.008 27.907 236.058 30.177 232.712 32.13 C231.722 32.13 230.732 32.13 229.712 32.13 C229.712 32.79 229.712 33.45 229.712 34.13 C228.025 34.902 226.337 35.673 224.65 36.443 C223.71 36.872 222.77 37.301 221.802 37.744 C220.782 38.201 219.763 38.659 218.712 39.13 C217.611 39.628 216.51 40.126 215.376 40.638 C179.128 55.4 139.923 49.431 103.712 38.13 C71.8 28.035 71.8 28.035 38.712 24.13 C37.717 24.092 36.722 24.053 35.697 24.013 C27.263 23.81 19.042 24.946 10.712 26.13 C11.238 27.306 11.238 27.306 11.775 28.505 C12.084 29.372 12.393 30.238 12.712 31.13 C12.382 31.79 12.052 32.45 11.712 33.13 C12.274 33.12 12.836 33.109 13.414 33.099 C26.996 32.881 40.237 33.419 53.712 35.13 C55.284 35.312 55.284 35.312 56.888 35.498 C67.062 36.908 76.9 40.189 86.712 43.13 C87.704 43.427 88.696 43.723 89.718 44.028 C108.456 49.639 108.456 49.639 115.65 52.255 C147.35 62.822 183.287 63.607 214.723 52.024 C218.51 50.667 220.867 49.888 224.712 51.13 C225.462 52.818 225.462 52.818 225.712 55.13 C222.832 60.014 218.481 62.377 213.712 65.13 C212.596 65.855 212.596 65.855 211.458 66.595 C207.996 68.531 204.458 69.79 200.712 71.068 C199.952 71.328 199.191 71.588 198.407 71.856 C196.875 72.378 195.341 72.897 193.806 73.414 C192.056 74.013 190.319 74.653 188.587 75.302 C171.425 81.365 151.407 82.452 133.462 80.005 C132.52 79.877 131.579 79.749 130.609 79.616 C120.895 78.18 111.568 75.638 102.167 72.852 C99.892 72.183 97.613 71.546 95.325 70.923 C86.107 68.394 86.107 68.394 82.712 66.13 C80.917 65.496 79.1 64.922 77.275 64.38 C76.112 64.035 74.949 63.689 73.751 63.333 C73.107 63.143 72.463 62.953 71.799 62.757 C69.562 62.085 67.337 61.383 65.111 60.677 C53.441 57.015 41.764 54.214 29.712 52.13 C28.624 51.936 27.536 51.741 26.415 51.541 C12.227 49.969 -2.488 50.285 -16.409 53.474 C-19.288 54.13 -19.288 54.13 -22.288 54.13 C-22.288 53.47 -22.288 52.81 -22.288 52.13 C-22.948 52.13 -23.608 52.13 -24.288 52.13 C-24.159 49.869 -24.159 49.869 -23.288 47.13 C-20.635 45.111 -20.635 45.111 -17.35 43.318 C-16.269 42.713 -15.187 42.109 -14.073 41.486 C-11.288 40.13 -11.288 40.13 -9.288 40.13 C-9.288 39.47 -9.288 38.81 -9.288 38.13 C-9.948 38.089 -10.608 38.048 -11.288 38.005 C-15.614 36.743 -19.006 34.2 -22.288 31.13 C-22.288 30.47 -22.288 29.81 -22.288 29.13 C-22.907 28.986 -23.525 28.842 -24.163 28.693 C-26.288 28.13 -26.288 28.13 -28.288 27.13 C-31.37 26.933 -34.451 26.812 -37.538 26.705 C-38.899 26.42 -38.899 26.42 -40.288 26.13 C-41.534 24.205 -41.534 24.205 -42.288 22.13 C-42.968 21.512 -43.649 20.893 -44.35 20.255 C-46.868 17.494 -47.213 15.849 -47.288 12.13 C-45.786 7.531 -43.407 4.656 -39.432 2.029 C-36.086 0.627 -33.001 0.811 -29.425 1.052 C-26.853 1.116 -24.643 0.964 -22.108 0.654 C-14.758 -0.142 -7.384 -0.019 0 0 Z " fill="#8695A2" transform="translate(530.287841796875,396.86962890625)"/>
<path d="M0 0 C9.853 3.334 19.702 6.569 29.716 9.393 C30.66 9.664 31.604 9.935 32.577 10.213 C44.823 13.58 56.789 14.649 69.466 14.581 C70.168 14.579 70.87 14.577 71.593 14.575 C86.861 14.509 100.678 12.594 115.214 7.895 C118.833 6.735 121.967 5.889 125.779 6.268 C126.779 7.268 126.779 7.268 127.154 9.581 C126.779 12.268 126.779 12.268 124.74 14.186 C121.308 16.6 117.796 18.442 114.029 20.268 C113.364 20.598 112.698 20.928 112.013 21.268 C109.944 22.287 107.864 23.281 105.779 24.268 C105.062 24.614 104.345 24.959 103.607 25.315 C98.14 27.862 92.697 29.547 86.841 30.956 C86.012 31.168 85.182 31.38 84.328 31.598 C65.917 36.133 44.294 36.225 25.779 32.268 C25.107 32.129 24.435 31.989 23.743 31.846 C15.636 30.141 7.804 28.143 0.068 25.139 C-2.436 24.149 -2.436 24.149 -5.971 23.206 C-9.221 22.268 -9.221 22.268 -12.284 20.925 C-16.908 18.913 -21.68 17.391 -26.471 15.831 C-31.919 14.047 -37.334 12.271 -42.659 10.143 C-48.056 8.142 -53.623 6.879 -59.221 5.581 C-60.136 5.366 -61.05 5.151 -61.992 4.93 C-72.085 2.671 -82.027 2.095 -92.346 2.143 C-93.828 2.145 -93.828 2.145 -95.339 2.147 C-102.331 2.184 -109.286 2.454 -116.257 3 C-117.909 3.124 -119.565 3.202 -121.221 3.268 C-122.221 2.268 -122.221 2.268 -122.284 -0.294 C-122.263 -1.098 -122.243 -1.903 -122.221 -2.732 C-110.458 -9.09 -99.298 -12.624 -86.096 -14.482 C-84.737 -14.673 -84.737 -14.673 -83.351 -14.869 C-54.618 -18.561 -26.856 -9.089 0 0 Z " fill="#8695A1" transform="translate(610.2212524414063,472.7315979003906)"/>
<path d="M0 0 C1.454 0.031 1.454 0.031 2.938 0.062 C2.938 0.722 2.938 1.382 2.938 2.062 C3.928 2.558 3.928 2.558 4.938 3.062 C3.762 3.372 3.762 3.372 2.562 3.688 C-9.921 8.423 -18.091 16.079 -23.836 28.035 C-26.492 34.591 -27.448 40.372 -27.438 47.375 C-27.44 48.216 -27.442 49.057 -27.444 49.923 C-27.353 55.476 -26.661 59.87 -23.84 64.762 C-21.873 70.584 -24.649 78.148 -26 84 C-26.254 85.121 -26.254 85.121 -26.514 86.264 C-26.854 87.763 -27.196 89.262 -27.539 90.761 C-28.395 94.525 -29.229 98.294 -30.062 102.062 C-34.087 101.5 -37.847 100.573 -41.72 99.349 C-54.182 95.411 -66.774 93.287 -79.797 92.309 C-83.058 91.954 -85.947 91.08 -89.062 90.062 C-91.796 89.296 -94.339 88.896 -97.172 88.746 C-97.926 88.704 -98.68 88.662 -99.457 88.619 C-100.234 88.58 -101.012 88.541 -101.812 88.5 C-102.605 88.457 -103.398 88.414 -104.215 88.369 C-106.164 88.263 -108.113 88.163 -110.062 88.062 C-110.392 87.072 -110.723 86.082 -111.062 85.062 C-109.928 84.485 -108.794 83.908 -107.625 83.312 C-104.689 81.708 -104.689 81.708 -103.125 78.812 C-103.104 78.235 -103.084 77.658 -103.062 77.062 C-102.361 76.939 -101.66 76.815 -100.938 76.688 C-97.991 76.116 -97.991 76.116 -95 74.938 C-92.062 74.062 -92.062 74.062 -89.938 74.688 C-89.319 74.811 -88.7 74.935 -88.062 75.062 C-85.829 73.212 -84.361 71.659 -83.062 69.062 C-80.092 69.062 -77.123 69.062 -74.062 69.062 C-74.115 67.898 -74.115 67.898 -74.168 66.711 C-74.51 53.077 -71.78 41.933 -65.062 30.062 C-64.403 30.062 -63.742 30.062 -63.062 30.062 C-63.062 29.072 -63.062 28.083 -63.062 27.062 C-62.403 27.062 -61.742 27.062 -61.062 27.062 C-60.825 26.326 -60.588 25.59 -60.344 24.832 C-58.865 21.635 -57.219 20.04 -54.562 17.75 C-53.768 17.053 -52.974 16.355 -52.156 15.637 C-50.062 14.062 -50.062 14.062 -48.062 14.062 C-48.062 13.403 -48.062 12.743 -48.062 12.062 C-36.389 6.12 -26.291 1.917 -13.125 1.5 C-8.483 1.337 -4.271 0.087 0 0 Z " fill="#DF674B" transform="translate(581.0625,181.9375)"/>
<path d="M0 0 C1.362 -0.005 1.362 -0.005 2.752 -0.011 C5.737 -0.019 8.722 -0.014 11.707 -0.007 C13.79 -0.008 15.873 -0.01 17.956 -0.013 C22.315 -0.016 26.673 -0.011 31.031 -0.002 C36.612 0.009 42.193 0.003 47.773 -0.009 C52.072 -0.016 56.371 -0.014 60.67 -0.009 C62.727 -0.008 64.785 -0.009 66.843 -0.014 C69.72 -0.019 72.596 -0.011 75.473 0 C76.319 -0.004 77.165 -0.008 78.038 -0.012 C82.666 0.021 86.299 0.565 90.672 2.259 C93.382 2.485 95.943 2.353 98.672 2.259 C98.672 2.919 98.672 3.579 98.672 4.259 C99.6 4.527 100.528 4.795 101.484 5.071 C106.04 6.769 106.04 6.769 107.672 9.259 C108.422 12.884 108.422 12.884 108.672 16.259 C108.177 16.754 108.177 16.754 107.672 17.259 C109.982 17.589 112.292 17.919 114.672 18.259 C114.672 19.249 114.672 20.239 114.672 21.259 C113.72 21.363 112.769 21.468 111.789 21.575 C106.971 22.264 102.429 23.74 97.797 25.196 C63.43 35.946 18.269 33.87 -14.611 18.169 C-15.177 17.869 -15.744 17.568 -16.328 17.259 C-16.328 16.599 -16.328 15.939 -16.328 15.259 C-15.668 14.929 -15.008 14.599 -14.328 14.259 C-15.009 13.681 -15.69 13.104 -16.391 12.509 C-17.03 11.766 -17.67 11.024 -18.328 10.259 C-18.141 8.259 -18.141 8.259 -17.328 6.259 C-17.143 5.516 -16.957 4.774 -16.766 4.009 C-16.621 3.431 -16.477 2.854 -16.328 2.259 C-10.753 0.378 -5.861 -0.028 0 0 Z " fill="#B2B2E4" transform="translate(656.328369140625,396.7412109375)"/>
<path d="M0 0 C2.805 4.208 1.856 6.099 1 11 C0.67 11.66 0.34 12.32 0 13 C0.99 13.99 0.99 13.99 2 15 C0.68 15 -0.64 15 -2 15 C-2 15.99 -2 16.98 -2 18 C-2.568 18.226 -3.136 18.451 -3.721 18.683 C-15.42 23.377 -26.111 28.05 -36 36 C-36.9 36.719 -37.8 37.439 -38.727 38.18 C-47.273 45.435 -53.25 54.21 -58.578 64.004 C-60.173 66.243 -61.472 67.001 -64 68 C-69.726 58.515 -69.371 47.063 -67.305 36.418 C-63.526 24.049 -55.649 14.538 -44.699 7.848 C-43 7 -43 7 -41 7 C-40.67 6.34 -40.34 5.68 -40 5 C-39.01 4.67 -38.02 4.34 -37 4 C-37 3.34 -37 2.68 -37 2 C-38.65 2 -40.3 2 -42 2 C-42 1.67 -42 1.34 -42 1 C-41.443 0.974 -40.886 0.948 -40.312 0.922 C-36.059 0.606 -32.951 0.164 -29.312 -2.125 C-21.241 -6.547 -8.111 -3.515 0 0 Z " fill="#B2B2E3" transform="translate(621,180)"/>
<path d="M0 0 C2.536 0.005 5.072 0 7.609 -0.006 C9.233 -0.006 10.857 -0.004 12.482 -0.002 C13.234 -0.004 13.986 -0.006 14.761 -0.009 C18.536 0.008 22.042 0.221 25.712 1.13 C25.052 3.44 24.392 5.75 23.712 8.13 C24.372 8.13 25.032 8.13 25.712 8.13 C25.712 8.79 25.712 9.45 25.712 10.13 C25.113 10.382 24.513 10.634 23.896 10.893 C21.145 12.051 18.397 13.216 15.65 14.38 C14.235 14.974 14.235 14.974 12.792 15.58 C7.547 17.809 2.59 20.181 -2.288 23.13 C-2.288 24.45 -2.288 25.77 -2.288 27.13 C2.662 28.12 2.662 28.12 7.712 29.13 C7.712 30.12 7.712 31.11 7.712 32.13 C5.887 32.811 5.887 32.811 4.025 33.505 C1.61 34.407 -0.78 35.333 -3.163 36.318 C-5.288 37.13 -5.288 37.13 -7.288 37.13 C-7.948 37.79 -8.608 38.45 -9.288 39.13 C-14.037 36.915 -18.424 34.753 -22.288 31.13 C-22.288 30.47 -22.288 29.81 -22.288 29.13 C-22.907 28.986 -23.525 28.842 -24.163 28.693 C-26.288 28.13 -26.288 28.13 -28.288 27.13 C-31.37 26.933 -34.451 26.812 -37.538 26.705 C-38.899 26.42 -38.899 26.42 -40.288 26.13 C-41.534 24.205 -41.534 24.205 -42.288 22.13 C-42.968 21.512 -43.649 20.893 -44.35 20.255 C-46.868 17.494 -47.213 15.849 -47.288 12.13 C-45.786 7.531 -43.407 4.656 -39.432 2.029 C-36.086 0.627 -33.001 0.811 -29.425 1.052 C-26.853 1.116 -24.643 0.964 -22.108 0.654 C-14.758 -0.142 -7.384 -0.019 0 0 Z " fill="#B2B2E5" transform="translate(530.287841796875,396.86962890625)"/>
<path d="M0 0 C2.536 0.005 5.072 0 7.609 -0.006 C9.233 -0.006 10.857 -0.004 12.482 -0.002 C13.234 -0.004 13.986 -0.006 14.761 -0.009 C18.536 0.008 22.042 0.221 25.712 1.13 C25.712 1.79 25.712 2.45 25.712 3.13 C23.9 3.755 23.9 3.755 21.712 4.13 C20.722 3.47 19.732 2.81 18.712 2.13 C14.628 1.717 10.541 1.759 6.438 1.76 C4.445 1.755 2.452 1.719 0.46 1.681 C-8.87 1.653 -16.53 3.125 -25.288 6.13 C-25.288 7.12 -25.288 8.11 -25.288 9.13 C-26.938 9.79 -28.588 10.45 -30.288 11.13 C-29.298 12.615 -29.298 12.615 -28.288 14.13 C-27.958 15.12 -27.628 16.11 -27.288 17.13 C-25.763 18.755 -25.763 18.755 -23.913 20.255 C-23.307 20.774 -22.701 21.292 -22.077 21.826 C-20.212 23.324 -20.212 23.324 -17.288 24.13 C-17.288 24.79 -17.288 25.45 -17.288 26.13 C-13.988 26.13 -10.688 26.13 -7.288 26.13 C-6.958 25.47 -6.628 24.81 -6.288 24.13 C-5.628 24.13 -4.968 24.13 -4.288 24.13 C-4.288 23.47 -4.288 22.81 -4.288 22.13 C-3.628 22.46 -2.968 22.79 -2.288 23.13 C-2.288 24.45 -2.288 25.77 -2.288 27.13 C2.662 28.12 2.662 28.12 7.712 29.13 C7.712 30.12 7.712 31.11 7.712 32.13 C5.887 32.811 5.887 32.811 4.025 33.505 C1.61 34.407 -0.78 35.333 -3.163 36.318 C-5.288 37.13 -5.288 37.13 -7.288 37.13 C-7.948 37.79 -8.608 38.45 -9.288 39.13 C-14.037 36.915 -18.424 34.753 -22.288 31.13 C-22.288 30.47 -22.288 29.81 -22.288 29.13 C-22.907 28.986 -23.525 28.842 -24.163 28.693 C-26.288 28.13 -26.288 28.13 -28.288 27.13 C-31.37 26.933 -34.451 26.812 -37.538 26.705 C-38.899 26.42 -38.899 26.42 -40.288 26.13 C-41.534 24.205 -41.534 24.205 -42.288 22.13 C-42.968 21.512 -43.649 20.893 -44.35 20.255 C-46.868 17.494 -47.213 15.849 -47.288 12.13 C-45.786 7.531 -43.407 4.656 -39.432 2.029 C-36.086 0.627 -33.001 0.811 -29.425 1.052 C-26.853 1.116 -24.643 0.964 -22.108 0.654 C-14.758 -0.142 -7.384 -0.019 0 0 Z M-1.288 20.13 C0.712 21.13 0.712 21.13 0.712 21.13 Z " fill="#A9ABD3" transform="translate(530.287841796875,396.86962890625)"/>
<path d="M0 0 C0.99 0.495 0.99 0.495 2 1 C1.481 1.51 0.961 2.021 0.426 2.547 C-10.229 13.655 -12.464 25.506 -12.305 40.277 C-12.126 44.952 -11.128 48.624 -8.777 52.699 C-6.81 58.521 -9.586 66.086 -10.938 71.938 C-11.192 73.058 -11.192 73.058 -11.451 74.201 C-11.791 75.701 -12.133 77.2 -12.476 78.699 C-13.333 82.462 -14.166 86.231 -15 90 C-19.024 89.438 -22.785 88.511 -26.658 87.286 C-39.12 83.348 -51.712 81.225 -64.734 80.246 C-67.996 79.892 -70.884 79.017 -74 78 C-76.733 77.233 -79.276 76.834 -82.109 76.684 C-82.863 76.642 -83.618 76.6 -84.395 76.557 C-85.172 76.517 -85.949 76.478 -86.75 76.438 C-87.543 76.394 -88.336 76.351 -89.152 76.307 C-91.101 76.201 -93.051 76.1 -95 76 C-95.33 75.01 -95.66 74.02 -96 73 C-94.866 72.423 -93.731 71.845 -92.562 71.25 C-89.627 69.645 -89.627 69.645 -88.062 66.75 C-88.042 66.173 -88.021 65.595 -88 65 C-87.299 64.876 -86.598 64.752 -85.875 64.625 C-82.823 63.962 -79.947 63.028 -77 62 C-76.67 62.99 -76.34 63.98 -76 65 C-75.229 64.844 -74.458 64.688 -73.664 64.527 C-72.661 64.333 -71.658 64.138 -70.625 63.938 C-69.128 63.642 -69.128 63.642 -67.602 63.34 C-65 63 -65 63 -63 64 C-63 64.66 -63 65.32 -63 66 C-62.01 66 -61.02 66 -60 66 C-60 66.99 -60 67.98 -60 69 C-58.02 69 -56.04 69 -54 69 C-53.836 69.759 -53.673 70.519 -53.504 71.301 C-52.406 74.813 -51.362 77.156 -49 80 C-45.566 81.147 -42.526 81.662 -38.956 82.063 C-33.234 82.708 -28.289 84.065 -22.938 86.188 C-22.241 86.462 -21.545 86.737 -20.827 87.021 C-19.213 87.668 -17.606 88.332 -16 89 C-15.92 88.285 -15.839 87.569 -15.756 86.832 C-15.385 83.554 -15.005 80.277 -14.625 77 C-14.436 75.312 -14.436 75.312 -14.242 73.59 C-13.68 68.786 -13.133 64.144 -11.781 59.492 C-10.924 55.658 -11.122 54.528 -12.875 51.125 C-17.512 39.808 -15.914 25.322 -12 14 C-10.188 10.625 -10.188 10.625 -8 8 C-7.499 7.383 -6.997 6.765 -6.48 6.129 C-2.408 1.204 -2.408 1.204 0 0 Z " fill="#B88391" transform="translate(566,194)"/>
<path d="M0 0 C2.805 4.208 1.856 6.099 1 11 C0.67 11.66 0.34 12.32 0 13 C0.66 13.66 1.32 14.32 2 15 C0.68 15 -0.64 15 -2 15 C-2 15.99 -2 16.98 -2 18 C-3.932 18.866 -5.871 19.717 -7.812 20.562 C-8.891 21.038 -9.97 21.514 -11.082 22.004 C-14 23 -14 23 -17 22 C-15.68 21.67 -14.36 21.34 -13 21 C-13.495 19.02 -13.495 19.02 -14 17 C-13.34 17 -12.68 17 -12 17 C-12 16.34 -12 15.68 -12 15 C-12.975 14.879 -13.949 14.758 -14.953 14.633 C-17.762 14.233 -20.481 13.677 -23.234 12.992 C-31.756 10.872 -39.206 9.218 -48 11 C-46.497 7.995 -44.083 8.028 -41 7 C-40.67 6.34 -40.34 5.68 -40 5 C-39.01 4.67 -38.02 4.34 -37 4 C-37 3.34 -37 2.68 -37 2 C-38.65 2 -40.3 2 -42 2 C-42 1.67 -42 1.34 -42 1 C-41.443 0.974 -40.886 0.948 -40.312 0.922 C-36.059 0.606 -32.951 0.164 -29.312 -2.125 C-21.241 -6.547 -8.111 -3.515 0 0 Z M-20 23 C-19.01 23.33 -18.02 23.66 -17 24 C-18.32 24.33 -19.64 24.66 -21 25 C-20.67 24.34 -20.34 23.68 -20 23 Z " fill="#A5A2BC" transform="translate(621,180)"/>
<path d="M0 0 C1.454 0.031 1.454 0.031 2.938 0.062 C2.938 0.722 2.938 1.382 2.938 2.062 C3.928 2.558 3.928 2.558 4.938 3.062 C4.133 3.289 3.329 3.516 2.5 3.75 C-1.975 5.399 -5.95 7.668 -10.062 10.062 C-9.732 8.743 -9.403 7.423 -9.062 6.062 C-25.217 5.015 -39.899 10.803 -52.312 21.125 C-59.878 28.32 -65.161 37.451 -69.062 47.062 C-70.794 41.869 -68.913 36.799 -66.562 32 C-66.067 31.361 -65.572 30.721 -65.062 30.062 C-64.403 30.062 -63.742 30.062 -63.062 30.062 C-63.062 29.072 -63.062 28.083 -63.062 27.062 C-62.403 27.062 -61.742 27.062 -61.062 27.062 C-60.825 26.326 -60.588 25.59 -60.344 24.832 C-58.865 21.635 -57.219 20.04 -54.562 17.75 C-53.768 17.053 -52.974 16.355 -52.156 15.637 C-50.062 14.062 -50.062 14.062 -48.062 14.062 C-48.062 13.403 -48.062 12.743 -48.062 12.062 C-36.389 6.12 -26.291 1.917 -13.125 1.5 C-8.483 1.337 -4.271 0.087 0 0 Z " fill="#D57061" transform="translate(581.0625,181.9375)"/>
<path d="M0 0 C2.779 0.113 5.557 0.232 8.335 0.366 C9.298 0.401 10.262 0.437 11.255 0.473 C12.65 0.538 12.65 0.538 14.073 0.604 C14.925 0.642 15.778 0.68 16.656 0.719 C19.172 1.075 20.791 1.878 23.022 3.053 C25.618 3.501 28.161 3.877 30.772 4.178 C31.47 4.265 32.167 4.351 32.885 4.44 C34.597 4.651 36.309 4.853 38.022 5.053 C37.692 5.713 37.362 6.373 37.022 7.053 C34.969 7.448 34.969 7.448 32.288 7.651 C30.838 7.77 30.838 7.77 29.358 7.891 C27.831 8.003 27.831 8.003 26.272 8.116 C24.277 8.271 22.282 8.429 20.288 8.589 C19.399 8.654 18.51 8.72 17.594 8.788 C15.021 9.054 12.548 9.506 10.022 10.053 C10.022 9.393 10.022 8.733 10.022 8.053 C9.486 8.404 8.95 8.755 8.397 9.116 C5.264 10.353 3.281 9.732 0.022 9.053 C-1.298 9.053 -2.618 9.053 -3.978 9.053 C-2.981 0.081 -2.981 0.081 0 0 Z " fill="#978F99" transform="translate(471.977783203125,268.946533203125)"/>
<path d="M0 0 C0.66 0.33 1.32 0.66 2 1 C1.481 1.51 0.961 2.021 0.426 2.547 C-10.229 13.655 -12.464 25.506 -12.305 40.277 C-12.126 44.952 -11.128 48.624 -8.777 52.699 C-6.81 58.521 -9.586 66.086 -10.938 71.938 C-11.192 73.058 -11.192 73.058 -11.451 74.201 C-11.791 75.701 -12.133 77.2 -12.476 78.699 C-13.333 82.462 -14.166 86.231 -15 90 C-19.915 89.313 -24.465 88.025 -29.188 86.562 C-35.736 84.578 -42.216 82.982 -49 82 C-49 81.67 -49 81.34 -49 81 C-37.226 81.037 -26.554 83.723 -16 89 C-15.92 88.285 -15.839 87.569 -15.756 86.832 C-15.385 83.554 -15.005 80.277 -14.625 77 C-14.436 75.312 -14.436 75.312 -14.242 73.59 C-13.68 68.786 -13.133 64.144 -11.781 59.492 C-10.924 55.658 -11.122 54.528 -12.875 51.125 C-17.512 39.808 -15.914 25.322 -12 14 C-10.188 10.625 -10.188 10.625 -8 8 C-7.499 7.383 -6.997 6.765 -6.48 6.129 C-2.408 1.204 -2.408 1.204 0 0 Z " fill="#C27B80" transform="translate(566,194)"/>
<path d="M0 0 C0.66 0.33 1.32 0.66 2 1 C2 1.66 2 2.32 2 3 C2.771 2.844 3.542 2.688 4.336 2.527 C5.339 2.333 6.342 2.138 7.375 1.938 C8.872 1.642 8.872 1.642 10.398 1.34 C13 1 13 1 15 2 C15 2.66 15 3.32 15 4 C15.99 4 16.98 4 18 4 C18 4.99 18 5.98 18 7 C19.98 7 21.96 7 24 7 C24.99 9.64 25.98 12.28 27 15 C26.34 15 25.68 15 25 15 C25 15.66 25 16.32 25 17 C21.625 17.125 21.625 17.125 18 17 C17.34 16.34 16.68 15.68 16 15 C16.66 15 17.32 15 18 15 C17.658 12.029 17.658 12.029 17 9 C16.34 8.67 15.68 8.34 15 8 C15 7.34 15 6.68 15 6 C10.418 6.55 6.344 7.455 2 9 C-1.978 10.326 -5.844 10.069 -10 10 C-10 7.69 -10 5.38 -10 3 C-9.278 2.876 -8.556 2.752 -7.812 2.625 C-4.969 2.08 -4.969 2.08 -2.312 0.875 C-1.549 0.586 -0.786 0.298 0 0 Z " fill="#C67777" transform="translate(488,256)"/>
<path d="M0 0 C21.532 -0.383 21.532 -0.383 32 2 C32 2.66 32 3.32 32 4 C34.475 4.495 34.475 4.495 37 5 C36.67 6.32 36.34 7.64 36 9 C34.68 9 33.36 9 32 9 C32 9.99 32 10.98 32 12 C29.688 13.75 29.688 13.75 27 15 C26.01 14.67 25.02 14.34 24 14 C25.32 13.67 26.64 13.34 28 13 C27.67 11.68 27.34 10.36 27 9 C27.66 9 28.32 9 29 9 C29 8.34 29 7.68 29 7 C28.081 6.888 27.162 6.776 26.215 6.66 C20.931 5.905 15.758 4.644 10.562 3.438 C9.545 3.204 8.527 2.97 7.479 2.729 C4.985 2.155 2.492 1.579 0 1 C0 0.67 0 0.34 0 0 Z M-3 1 C0 2 0 2 0 2 Z M21 15 C21.99 15.33 22.98 15.66 24 16 C22.68 16.33 21.36 16.66 20 17 C20.33 16.34 20.66 15.68 21 15 Z " fill="#A8AAD3" transform="translate(580,188)"/>
<path d="M0 0 C1.362 -0.005 1.362 -0.005 2.752 -0.011 C5.737 -0.019 8.722 -0.014 11.707 -0.007 C13.79 -0.008 15.873 -0.01 17.956 -0.013 C22.315 -0.016 26.673 -0.011 31.031 -0.002 C36.612 0.009 42.193 0.003 47.773 -0.009 C52.072 -0.016 56.371 -0.014 60.67 -0.009 C62.727 -0.008 64.785 -0.009 66.843 -0.014 C69.72 -0.019 72.596 -0.011 75.473 0 C76.319 -0.004 77.165 -0.008 78.038 -0.012 C82.666 0.021 86.299 0.565 90.672 2.259 C93.382 2.485 95.943 2.353 98.672 2.259 C98.672 3.249 98.672 4.239 98.672 5.259 C93.875 5.536 90.174 5.188 85.581 3.772 C76.917 1.546 68.255 1.826 59.371 1.86 C57.521 1.858 55.672 1.855 53.823 1.852 C49.969 1.847 46.116 1.854 42.262 1.868 C37.335 1.885 32.409 1.875 27.482 1.857 C23.672 1.846 19.862 1.85 16.052 1.857 C14.235 1.859 12.418 1.857 10.601 1.85 C8.063 1.842 5.525 1.854 2.987 1.871 C2.245 1.865 1.504 1.858 0.74 1.852 C-4.431 1.915 -7.732 3.159 -12.328 5.259 C-13.648 5.259 -14.968 5.259 -16.328 5.259 C-16.328 4.269 -16.328 3.279 -16.328 2.259 C-10.753 0.378 -5.861 -0.028 0 0 Z " fill="#A8A9D1" transform="translate(656.328369140625,396.7412109375)"/>
<path d="M0 0 C0.33 0 0.66 0 1 0 C0.965 0.874 0.965 0.874 0.93 1.766 C0.753 9.8 2.052 17.361 3.656 25.211 C4 28 4 28 2.562 30.375 C2.047 30.911 1.531 31.447 1 32 C0.67 30.35 0.34 28.7 0 27 C-0.99 26.67 -1.98 26.34 -3 26 C-3 25.01 -3 24.02 -3 23 C-3.99 23 -4.98 23 -6 23 C-6 22.34 -6 21.68 -6 21 C-9.96 21.495 -9.96 21.495 -14 22 C-13.453 18.625 -12.945 16.918 -11 14 C-7.254 14.506 -5.487 15.158 -3 18 C-2.34 18.33 -1.68 18.66 -1 19 C-1.012 17.712 -1.023 16.424 -1.035 15.098 C-1.045 13.419 -1.054 11.741 -1.062 10.062 C-1.071 9.212 -1.079 8.362 -1.088 7.486 C-1.091 6.677 -1.094 5.869 -1.098 5.035 C-1.103 4.286 -1.108 3.537 -1.114 2.766 C-1 1 -1 1 0 0 Z M-16 20 C-15.34 20.33 -14.68 20.66 -14 21 C-15.65 21.33 -17.3 21.66 -19 22 C-18.01 21.34 -17.02 20.68 -16 20 Z " fill="#D47162" transform="translate(509,237)"/>
<path d="M0 0 C5.445 0.99 5.445 0.99 11 2 C11 2.99 11 3.98 11 5 C9.175 5.681 9.175 5.681 7.312 6.375 C4.897 7.277 2.508 8.203 0.125 9.188 C-2 10 -2 10 -4 10 C-4.66 10.66 -5.32 11.32 -6 12 C-8.64 10.68 -11.28 9.36 -14 8 C-14 7.01 -14 6.02 -14 5 C-13.299 5.144 -12.597 5.289 -11.875 5.438 C-5.979 6.608 -5.979 6.608 0 7 C0 6.34 0 5.68 0 5 C1.32 5 2.64 5 4 5 C3.67 4.34 3.34 3.68 3 3 C2.01 2.67 1.02 2.34 0 2 C0 1.34 0 0.68 0 0 Z M-18 3 C-17.01 3 -16.02 3 -15 3 C-15 3.66 -15 4.32 -15 5 C-15.99 4.67 -16.98 4.34 -18 4 C-18 3.67 -18 3.34 -18 3 Z " fill="#A6A2BD" transform="translate(527,424)"/>
<path d="M0 0 C0.33 0 0.66 0 1 0 C1.026 1.039 1.052 2.078 1.078 3.148 C1.357 10.737 1.927 16.78 5.211 23.738 C6.581 27.665 5.778 30.979 5 35 C4.866 34.433 4.732 33.866 4.594 33.281 C3.994 30.977 3.271 28.752 2.5 26.5 C1.008 22.143 -0.131 18.307 -0.098 13.672 C-0.093 12.473 -0.093 12.473 -0.088 11.25 C-0.08 10.425 -0.071 9.6 -0.062 8.75 C-0.058 7.91 -0.053 7.069 -0.049 6.203 C-0.037 4.135 -0.019 2.068 0 0 Z M3 35 C4 38 4 38 3.062 40.188 C2.537 41.085 2.537 41.085 2 42 C2.33 39.69 2.66 37.38 3 35 Z M1 42 C2 46 2 46 2 46 Z " fill="#D07369" transform="translate(551,221)"/>
<path d="M0 0 C0.625 1.812 0.625 1.812 1 4 C0.34 4.99 -0.32 5.98 -1 7 C-0.67 4.69 -0.34 2.38 0 0 Z M-2 7 C-1.34 7.33 -0.68 7.66 0 8 C-0.256 10.343 -0.593 12.678 -1 15 C-1.99 15.495 -1.99 15.495 -3 16 C-3.125 9.25 -3.125 9.25 -2 7 Z M-4 16 C-3.67 16 -3.34 16 -3 16 C-3 21.94 -3 27.88 -3 34 C-5.475 33.01 -5.475 33.01 -8 32 C-8 31.34 -8 30.68 -8 30 C-6.68 29.67 -5.36 29.34 -4 29 C-4 24.71 -4 20.42 -4 16 Z " fill="#DE674D" transform="translate(511,222)"/>
<path d="M0 0 C0 0.66 0 1.32 0 2 C0.66 2.33 1.32 2.66 2 3 C0.608 3.433 0.608 3.433 -0.812 3.875 C-4.098 4.887 -4.098 4.887 -7 7 C-7.99 7 -8.98 7 -10 7 C-10.33 5.35 -10.66 3.7 -11 2 C-7.17 0.198 -4.219 -0.196 0 0 Z " fill="#B98392" transform="translate(584,182)"/>
<path d="M0 0 C5.178 -0.025 10.356 -0.043 15.533 -0.055 C17.294 -0.06 19.054 -0.067 20.815 -0.075 C23.349 -0.088 25.884 -0.093 28.418 -0.098 C29.201 -0.103 29.985 -0.108 30.792 -0.113 C34.656 -0.114 38.245 0.056 42 1 C42 1.66 42 2.32 42 3 C40.188 3.625 40.188 3.625 38 4 C37.01 3.34 36.02 2.68 35 2 C32.32 1.76 29.734 1.627 27.051 1.586 C26.278 1.567 25.506 1.547 24.71 1.527 C22.244 1.468 19.778 1.421 17.312 1.375 C15.64 1.337 13.967 1.298 12.295 1.258 C8.197 1.162 4.099 1.078 0 1 C0 0.67 0 0.34 0 0 Z " fill="#A7A6C9" transform="translate(514,397)"/>
<path d="M0 0 C1.48 0.14 2.959 0.288 4.438 0.438 C5.673 0.559 5.673 0.559 6.934 0.684 C9 1 9 1 10 2 C12.671 2.141 15.324 2.042 18 2 C18 2.99 18 3.98 18 5 C11.178 5.386 5.504 4.009 -1 2 C-0.67 1.34 -0.34 0.68 0 0 Z " fill="#A8A8CD" transform="translate(737,397)"/>
<path d="M0 0 C0.99 0 1.98 0 3 0 C3 0.66 3 1.32 3 2 C2.01 1.67 1.02 1.34 0 1 C0 0.67 0 0.34 0 0 Z M3 2 C7.752 2.432 9.92 3.328 13 7 C12.67 7.66 12.34 8.32 12 9 C10.682 8.408 9.371 7.801 8.062 7.188 C7.332 6.851 6.601 6.515 5.848 6.168 C4 5 4 5 3 2 Z " fill="#A1A0BB" transform="translate(509,427)"/>
<path d="M0 0 C2.97 0 5.94 0 9 0 C9 0.99 9 1.98 9 3 C5.7 3.33 2.4 3.66 -1 4 C-0.67 2.68 -0.34 1.36 0 0 Z M-5 4 C-2.875 4.375 -2.875 4.375 -1 5 C-2.98 5.33 -4.96 5.66 -7 6 C-6.34 5.34 -5.68 4.68 -5 4 Z " fill="#A7A7CA" transform="translate(762,415)"/>
<path d="M0 0 C3.536 1.911 5.79 3.626 8 7 C3.944 6.532 0.534 6.12 -3 4 C-3 3.34 -3 2.68 -3 2 C-2.01 2 -1.02 2 0 2 C0 1.34 0 0.68 0 0 Z " fill="#A8A8CD" transform="translate(643,410)"/>
<path d="M0 0 C0.625 1.812 0.625 1.812 1 4 C0.34 4.99 -0.32 5.98 -1 7 C-0.67 4.69 -0.34 2.38 0 0 Z M-2 7 C-1.34 7.33 -0.68 7.66 0 8 C-0.256 10.343 -0.593 12.678 -1 15 C-1.99 15.495 -1.99 15.495 -3 16 C-3.125 9.25 -3.125 9.25 -2 7 Z " fill="#DA6B56" transform="translate(511,222)"/>
<path d="M0 0 C0.66 0.33 1.32 0.66 2 1 C-0.64 3.97 -3.28 6.94 -6 10 C-6.66 9.34 -7.32 8.68 -8 8 C-7.046 6.851 -6.086 5.706 -5.125 4.562 C-4.591 3.924 -4.058 3.286 -3.508 2.629 C-2 1 -2 1 0 0 Z " fill="#C67979" transform="translate(566,194)"/>
<path d="M0 0 C0.66 0.33 1.32 0.66 2 1 C1.67 1.99 1.34 2.98 1 4 C0.34 3.67 -0.32 3.34 -1 3 C-0.67 2.01 -0.34 1.02 0 0 Z M6 0 C6.99 0.99 7.98 1.98 9 3 C8 4 8 4 5.438 4.062 C4.231 4.032 4.231 4.032 3 4 C3 3.34 3 2.68 3 2 C3.99 2 4.98 2 6 2 C6 1.34 6 0.68 6 0 Z M8 0 C8.66 0 9.32 0 10 0 C9.67 0.66 9.34 1.32 9 2 C8.67 1.34 8.34 0.68 8 0 Z " fill="#8795A5" transform="translate(472,277)"/>
<path d="M0 0 C2.018 0.065 4.036 0.13 6.055 0.195 C6.385 1.845 6.715 3.495 7.055 5.195 C6.725 4.535 6.395 3.875 6.055 3.195 C3.699 2.728 3.699 2.728 0.992 2.57 C0.073 2.496 -0.846 2.421 -1.793 2.344 C-2.503 2.295 -3.214 2.246 -3.945 2.195 C-1.945 0.195 -1.945 0.195 0 0 Z " fill="#C67878" transform="translate(566.9453125,183.8046875)"/>
<path d="M0 0 C0.66 0 1.32 0 2 0 C2.33 1.32 2.66 2.64 3 4 C0.03 3.67 -2.94 3.34 -6 3 C-6 2.67 -6 2.34 -6 2 C-4.02 2 -2.04 2 0 2 C0 1.34 0 0.68 0 0 Z " fill="#B98392" transform="translate(513,271)"/>
<path d="M0 0 C0.99 0.33 1.98 0.66 3 1 C3 1.66 3 2.32 3 3 C-1.625 5.125 -1.625 5.125 -5 4 C-2.688 1.938 -2.688 1.938 0 0 Z M-7 5 C-5 6 -5 6 -5 6 Z " fill="#A8AAD1" transform="translate(553,404)"/>
<path d="M0 0 C0.33 0.66 0.66 1.32 1 2 C-1.31 2.33 -3.62 2.66 -6 3 C-6.33 2.34 -6.66 1.68 -7 1 C-4.537 -0.231 -2.72 -0.072 0 0 Z " fill="#A6A2BD" transform="translate(498,398)"/>
<path d="M0 0 C1.32 0.33 2.64 0.66 4 1 C4 1.66 4 2.32 4 3 C2.68 3 1.36 3 0 3 C0 2.01 0 1.02 0 0 Z " fill="#DE684D" transform="translate(498,251)"/>
<path d="M0 0 C0.99 0 1.98 0 3 0 C3.33 1.32 3.66 2.64 4 4 C3.01 3.67 2.02 3.34 1 3 C0.67 2.01 0.34 1.02 0 0 Z " fill="#CC7670" transform="translate(553,245)"/>
</svg>